<svg width="405" height="167" viewBox="0 0 405 167" fill="none" xmlns="http://www.w3.org/2000/svg">
<path d="M11.2673 5.71085H2.48725V34.6152H9.13059V24.4365H11.2673H11.3062C12.5494 24.4365 13.676 24.2164 14.6861 23.7761C15.6962 23.3099 16.5509 22.6624 17.2502 21.8336C17.9754 21.0048 18.5323 20.0206 18.9208 18.881C19.3093 17.7414 19.5035 16.4723 19.5035 15.0737C19.5035 13.6492 19.3093 12.3671 18.9208 11.2275C18.5323 10.062 17.9754 9.07785 17.2502 8.27495C16.5509 7.44615 15.6962 6.8116 14.6861 6.3713C13.676 5.931 12.5494 5.71085 11.3062 5.71085H11.2673ZM0.00085009 -9.51318e-05H22.0676V40.637H0.00085009V-9.51318e-05ZM30.7533 5.71085H24.2265V34.6152H30.7533V5.71085ZM21.7401 -9.51318e-05H33.3951V40.637H21.7401V-9.51318e-05ZM52.6662 5.71085H34.9507V34.6152H41.4774V23.4264H49.7136V16.8996H41.4774V12.2376H52.6662V5.71085ZM33.0082 -9.51318e-05H54.3756V40.637H33.0082V-9.51318e-05ZM74.2665 5.71085H56.5509V34.6152H74.2665V28.0884H63.0777V23.4264H71.3139V16.8996H63.0777V12.2376H74.2665V5.71085ZM54.0645 -9.51318e-05H76.7918V40.637H54.0645V-9.51318e-05ZM76.0649 -9.51318e-05H88.186V40.637H76.0649V-9.51318e-05ZM98.6039 5.71085H89.8238V34.6152H96.4672V24.4365H98.6039H98.6428C99.886 24.4365 101.013 24.2164 102.023 23.7761C103.033 23.3099 103.888 22.6624 104.587 21.8336C105.312 21.0048 105.869 20.0206 106.257 18.881C106.646 17.7414 106.84 16.4723 106.84 15.0737C106.84 13.6492 106.646 12.3671 106.257 11.2275C105.869 10.062 105.312 9.07785 104.587 8.27495C103.888 7.44615 103.033 6.8116 102.023 6.3713C101.013 5.931 99.886 5.71085 98.6428 5.71085H98.6039ZM87.3374 -9.51318e-05H109.404V40.637H87.3374V-9.51318e-05ZM123.684 23.0768C124.021 23.0768 124.487 22.9084 125.083 22.5717C125.679 22.2091 126.261 21.6911 126.831 21.0177C127.427 20.3184 127.932 19.4637 128.346 18.4536C128.787 17.4435 129.007 16.291 129.007 14.996C129.007 13.7528 128.864 12.5743 128.579 11.4606C128.294 10.321 127.815 9.33685 127.142 8.50805C126.494 7.65335 125.614 6.97995 124.5 6.48785C123.412 5.96985 122.04 5.71085 120.382 5.71085H120.343H111.563V34.6152H118.09V25.2135H118.168L122.053 34.6152H129.551L123.684 23.0768ZM109.077 -9.51318e-05H132.192V40.637H109.077V-9.51318e-05ZM155.62 16.3557C155.594 15.0348 155.348 13.7528 154.882 12.5096C154.416 11.2664 153.717 10.1527 152.784 9.1685C151.722 8.0548 150.505 7.2001 149.132 6.6044C147.785 6.0087 146.348 5.71085 144.82 5.71085H144.781C143.253 5.71085 141.816 6.0087 140.469 6.6044C139.122 7.2001 137.905 8.0548 136.817 9.1685C135.91 10.1527 135.211 11.2923 134.719 12.5873C134.227 13.8564 133.981 15.1125 133.981 16.3557V23.1156C134.007 24.6696 134.227 26.133 134.641 27.5057C135.082 28.8784 135.807 30.1086 136.817 31.1964C137.905 32.3101 139.122 33.1648 140.469 33.7605C141.841 34.3562 143.279 34.6541 144.781 34.6541H144.82C146.348 34.6541 147.785 34.3562 149.132 33.7605C150.505 33.1648 151.722 32.2972 152.784 31.1576C153.82 30.0698 154.545 28.8136 154.96 27.3891C155.4 25.9387 155.62 24.5142 155.62 23.1156V16.3557ZM131.689 -9.51318e-05H157.718V40.637H131.689V-9.51318e-05ZM159.049 5.71085V12.2376H165.614V34.6152H172.141V12.2376H178.707V5.71085H159.049ZM157.184 -9.51318e-05H180.882V40.637H157.184V-9.51318e-05ZM204.524 16.3557C204.498 15.0348 204.252 13.7528 203.786 12.5096C203.32 11.2664 202.62 10.1527 201.688 9.1685C200.626 8.0548 199.409 7.2001 198.036 6.6044C196.689 6.0087 195.252 5.71085 193.724 5.71085H193.685C192.157 5.71085 190.719 6.0087 189.373 6.6044C188.026 7.2001 186.809 8.0548 185.721 9.1685C184.814 10.1527 184.115 11.2923 183.623 12.5873C183.131 13.8564 182.885 15.1125 182.885 16.3557V23.1156C182.911 24.6696 183.131 26.133 183.545 27.5057C183.985 28.8784 184.711 30.1086 185.721 31.1964C186.809 32.3101 188.026 33.1648 189.373 33.7605C190.745 34.3562 192.183 34.6541 193.685 34.6541H193.724C195.252 34.6541 196.689 34.3562 198.036 33.7605C199.409 33.1648 200.626 32.2972 201.688 31.1576C202.724 30.0698 203.449 28.8136 203.864 27.3891C204.304 25.9387 204.524 24.5142 204.524 23.1156V16.3557ZM180.593 -9.51318e-05H206.622V40.637H180.593V-9.51318e-05ZM218.986 28.205C217.665 28.1014 216.603 27.5704 215.8 26.6121C214.997 25.6279 214.596 24.4236 214.596 22.9991V17.3658C214.596 15.9413 214.984 14.7629 215.761 13.8305C216.564 12.8722 217.626 12.3412 218.947 12.2376C219.491 12.2117 220.009 12.3153 220.501 12.5484C220.993 12.7815 221.434 13.0923 221.822 13.4808C222.211 13.8693 222.534 14.3096 222.793 14.8017C223.078 15.2938 223.298 15.773 223.454 16.2392L229.087 13.0923C228.802 12.2117 228.401 11.3311 227.883 10.4505C227.391 9.56995 226.73 8.78 225.901 8.0807C225.098 7.3814 224.127 6.8116 222.988 6.3713C221.848 5.931 220.488 5.71085 218.908 5.71085H218.869C217.082 5.71085 215.515 6.04755 214.169 6.72095C212.822 7.36845 211.695 8.2361 210.789 9.3239C209.908 10.4117 209.235 11.6549 208.768 13.0535C208.328 14.4262 208.095 15.8248 208.069 17.2493V23.2322C208.147 24.7344 208.38 26.1848 208.768 27.5834C209.157 28.9561 209.766 30.1734 210.594 31.2353C211.449 32.2713 212.537 33.1001 213.858 33.7217C215.205 34.3433 216.862 34.6541 218.831 34.6541H218.869C220.631 34.6541 222.107 34.408 223.298 33.9159C224.516 33.3979 225.513 32.7893 226.29 32.09C227.067 31.3907 227.663 30.6784 228.077 29.9532C228.517 29.228 228.854 28.6323 229.087 28.1661L223.454 25.0193C223.065 25.9258 222.495 26.7028 221.744 27.3503C221.019 27.9978 220.1 28.2827 218.986 28.205ZM206.049 -9.51318e-05H232.04V40.637H206.049V-9.51318e-05ZM255.515 16.3557C255.489 15.0348 255.243 13.7528 254.777 12.5096C254.31 11.2664 253.611 10.1527 252.679 9.1685C251.617 8.0548 250.399 7.2001 249.027 6.6044C247.68 6.0087 246.243 5.71085 244.714 5.71085H244.676C243.147 5.71085 241.71 6.0087 240.363 6.6044C239.016 7.2001 237.799 8.0548 236.711 9.1685C235.805 10.1527 235.106 11.2923 234.613 12.5873C234.121 13.8564 233.875 15.1125 233.875 16.3557V23.1156C233.901 24.6696 234.121 26.133 234.536 27.5057C234.976 28.8784 235.701 30.1086 236.711 31.1964C237.799 32.3101 239.016 33.1648 240.363 33.7605C241.736 34.3562 243.173 34.6541 244.676 34.6541H244.714C246.243 34.6541 247.68 34.3562 249.027 33.7605C250.399 33.1648 251.617 32.2972 252.679 31.1576C253.715 30.0698 254.44 28.8136 254.854 27.3891C255.295 25.9387 255.515 24.5142 255.515 23.1156V16.3557ZM231.583 -9.51318e-05H257.613V40.637H231.583V-9.51318e-05ZM266.48 5.71085H259.953V34.6152H274.211V28.0884H266.48V5.71085ZM257.078 -9.51318e-05H276.698V40.637H257.078V-9.51318e-05ZM11.2673 47.7109H2.48725V76.6152H9.13059V66.4365H11.2673H11.3062C12.5494 66.4365 13.676 66.2164 14.6861 65.7761C15.6962 65.3099 16.5509 64.6624 17.2502 63.8336C17.9754 63.0048 18.5323 62.0206 18.9208 60.881C19.3093 59.7414 19.5035 58.4723 19.5035 57.0737C19.5035 55.6492 19.3093 54.3671 18.9208 53.2275C18.5323 52.062 17.9754 51.0778 17.2502 50.2749C16.5509 49.4462 15.6962 48.8116 14.6861 48.3713C13.676 47.931 12.5494 47.7109 11.3062 47.7109H11.2673ZM0.00085009 41.9999H22.0676V82.637H0.00085009V41.9999ZM36.3477 65.0768C36.6844 65.0768 37.1506 64.9084 37.7463 64.5717C38.342 64.2091 38.9248 63.6911 39.4946 63.0177C40.0903 62.3184 40.5953 61.4637 41.0097 60.4536C41.45 59.4435 41.6702 58.291 41.6702 56.996C41.6702 55.7528 41.5277 54.5743 41.2428 53.4606C40.9579 52.321 40.4788 51.3368 39.8054 50.508C39.1579 49.6533 38.2773 48.98 37.1636 48.4879C36.0758 47.9699 34.7031 47.7109 33.0455 47.7109H33.0066H24.2265V76.6152H30.7533V67.2135H30.831L34.716 76.6152H42.2141L36.3477 65.0768ZM21.7401 41.9999H44.8559V82.637H21.7401V41.9999ZM68.2836 58.3557C68.2577 57.0348 68.0117 55.7528 67.5455 54.5096C67.0793 53.2664 66.38 52.1527 65.4476 51.1685C64.3857 50.0548 63.1684 49.2001 61.7957 48.6044C60.4489 48.0087 59.0114 47.7109 57.4833 47.7109H57.4445C55.9164 47.7109 54.4789 48.0087 53.1321 48.6044C51.7853 49.2001 50.568 50.0548 49.4802 51.1685C48.5737 52.1527 47.8744 53.2923 47.3823 54.5873C46.8902 55.8564 46.6442 57.1125 46.6442 58.3557V65.1156C46.6701 66.6696 46.8902 68.133 47.3046 69.5057C47.7449 70.8784 48.4701 72.1086 49.4802 73.1964C50.568 74.3101 51.7853 75.1648 53.1321 75.7605C54.5048 76.3562 55.9423 76.6541 57.4445 76.6541H57.4833C59.0114 76.6541 60.4489 76.3562 61.7957 75.7605C63.1684 75.1648 64.3857 74.2972 65.4476 73.1576C66.4836 72.0698 67.2088 70.8136 67.6232 69.3891C68.0635 67.9387 68.2836 66.5142 68.2836 65.1156V58.3557ZM44.352 41.9999H70.3815V82.637H44.352V41.9999ZM89.5054 47.7109H71.7898V76.6152H78.3166V65.4264H86.5528V58.8996H78.3166V54.2376H89.5054V47.7109ZM69.8473 41.9999H91.2148V82.637H69.8473V41.9999ZM111.106 47.7109H93.3901V76.6152H111.106V70.0884H99.9169V65.4264H108.153V58.8996H99.9169V54.2376H111.106V47.7109ZM90.9037 41.9999H113.631V82.637H90.9037V41.9999ZM134.505 69.3503C134.505 67.874 134.246 66.6049 133.728 65.543C133.21 64.4552 132.523 63.4839 131.669 62.6292C130.814 61.7745 129.83 61.0105 128.716 60.3371C127.628 59.6637 126.489 58.9903 125.297 58.3169C124.442 57.6953 123.808 57.2032 123.394 56.8406C123.005 56.4521 122.811 56.0118 122.811 55.5197C122.811 54.8722 123.018 54.393 123.432 54.0822C123.873 53.7455 124.352 53.5772 124.87 53.5772C125.362 53.5772 125.789 53.6808 126.152 53.888C126.54 54.0952 126.864 54.3542 127.123 54.665C127.408 54.9499 127.628 55.2736 127.784 55.6362C127.939 55.9729 128.056 56.2837 128.133 56.5686L133.844 54.3153C133.715 53.5383 133.443 52.7613 133.028 51.9843C132.614 51.1814 132.031 50.4692 131.28 49.8476C130.555 49.226 129.648 48.7209 128.561 48.3325C127.499 47.9181 126.255 47.7109 124.831 47.7109C123.64 47.7368 122.487 47.9181 121.373 48.2548C120.26 48.5915 119.275 49.0836 118.421 49.7311C117.566 50.3785 116.88 51.1814 116.362 52.1397C115.844 53.098 115.585 54.2117 115.585 55.4808C115.585 56.8535 115.818 57.9931 116.284 58.8996C116.776 59.8061 117.437 60.622 118.265 61.3472C119.12 62.0724 120.104 62.7717 121.218 63.4451C122.358 64.0926 123.588 64.8566 124.909 65.7372C125.504 66.1516 125.958 66.5531 126.268 66.9416C126.605 67.3042 126.786 67.7056 126.812 68.1459C126.838 68.8711 126.631 69.4021 126.191 69.7388C125.776 70.0755 125.349 70.2697 124.909 70.3215C124.391 70.3992 123.899 70.2956 123.432 70.0107C122.992 69.6999 122.617 69.3632 122.306 69.0006C121.995 68.6121 121.749 68.2495 121.568 67.9128C121.412 67.5761 121.36 67.3948 121.412 67.3689L115.196 69.9719C115.455 71.0079 115.87 71.9403 116.439 72.7691C117.035 73.572 117.747 74.2583 118.576 74.8281C119.405 75.3979 120.324 75.8382 121.334 76.149C122.37 76.4598 123.471 76.6152 124.637 76.6152C126.139 76.6152 127.486 76.4469 128.677 76.1102C129.869 75.7476 130.879 75.2684 131.707 74.6727C132.562 74.0511 133.223 73.3389 133.689 72.536C134.181 71.7072 134.453 70.8266 134.505 69.8942V69.3503ZM113.098 41.9999H136.797V82.637H113.098V41.9999ZM157.913 69.3503C157.913 67.874 157.654 66.6049 157.136 65.543C156.618 64.4552 155.932 63.4839 155.077 62.6292C154.223 61.7745 153.238 61.0105 152.125 60.3371C151.037 59.6637 149.897 58.9903 148.706 58.3169C147.851 57.6953 147.217 57.2032 146.802 56.8406C146.414 56.4521 146.219 56.0118 146.219 55.5197C146.219 54.8722 146.427 54.393 146.841 54.0822C147.281 53.7455 147.76 53.5772 148.278 53.5772C148.771 53.5772 149.198 53.6808 149.561 53.888C149.949 54.0952 150.273 54.3542 150.532 54.665C150.817 54.9499 151.037 55.2736 151.192 55.6362C151.348 55.9729 151.464 56.2837 151.542 56.5686L157.253 54.3153C157.123 53.5383 156.851 52.7613 156.437 51.9843C156.023 51.1814 155.44 50.4692 154.689 49.8476C153.964 49.226 153.057 48.7209 151.969 48.3325C150.907 47.9181 149.664 47.7109 148.24 47.7109C147.048 47.7368 145.896 47.9181 144.782 48.2548C143.668 48.5915 142.684 49.0836 141.829 49.7311C140.975 50.3785 140.288 51.1814 139.77 52.1397C139.252 53.098 138.993 54.2117 138.993 55.4808C138.993 56.8535 139.226 57.9931 139.693 58.8996C140.185 59.8061 140.845 60.622 141.674 61.3472C142.529 62.0724 143.513 62.7717 144.627 63.4451C145.766 64.0926 146.996 64.8566 148.317 65.7372C148.913 66.1516 149.366 66.5531 149.677 66.9416C150.014 67.3042 150.195 67.7056 150.221 68.1459C150.247 68.8711 150.04 69.4021 149.599 69.7388C149.185 70.0755 148.758 70.2697 148.317 70.3215C147.799 70.3992 147.307 70.2956 146.841 70.0107C146.401 69.6999 146.025 69.3632 145.714 69.0006C145.404 68.6121 145.158 68.2495 144.976 67.9128C144.821 67.5761 144.769 67.3948 144.821 67.3689L138.605 69.9719C138.864 71.0079 139.278 71.9403 139.848 72.7691C140.444 73.572 141.156 74.2583 141.985 74.8281C142.814 75.3979 143.733 75.8382 144.743 76.149C145.779 76.4598 146.88 76.6152 148.045 76.6152C149.548 76.6152 150.894 76.4469 152.086 76.1102C153.277 75.7476 154.287 75.2684 155.116 74.6727C155.971 74.0511 156.631 73.3389 157.097 72.536C157.59 71.7072 157.861 70.8266 157.913 69.8942V69.3503ZM136.507 41.9999H160.205V82.637H136.507V41.9999ZM168.018 47.7109H161.491V76.6152H168.018V47.7109ZM159.005 41.9999H170.66V82.637H159.005V41.9999ZM194.205 58.3557C194.179 57.0348 193.933 55.7528 193.466 54.5096C193 53.2664 192.301 52.1527 191.369 51.1685C190.307 50.0548 189.089 49.2001 187.717 48.6044C186.37 48.0087 184.932 47.7109 183.404 47.7109H183.365C181.837 47.7109 180.4 48.0087 179.053 48.6044C177.706 49.2001 176.489 50.0548 175.401 51.1685C174.495 52.1527 173.795 53.2923 173.303 54.5873C172.811 55.8564 172.565 57.1125 172.565 58.3557V65.1156C172.591 66.6696 172.811 68.133 173.226 69.5057C173.666 70.8784 174.391 72.1086 175.401 73.1964C176.489 74.3101 177.706 75.1648 179.053 75.7605C180.426 76.3562 181.863 76.6541 183.365 76.6541H183.404C184.932 76.6541 186.37 76.3562 187.717 75.7605C189.089 75.1648 190.307 74.2972 191.369 73.1576C192.405 72.0698 193.13 70.8136 193.544 69.3891C193.984 67.9387 194.205 66.5142 194.205 65.1156V58.3557ZM170.273 41.9999H196.302V82.637H170.273V41.9999ZM212.435 61.8911L204.704 47.7109H198.06V76.6152H204.976V62.3961L212.746 76.6152H219.35V47.7109H212.435V61.8911ZM195.768 41.9999H221.565V82.637H195.768V41.9999ZM241.469 76.6152H248.89L240.42 47.7109H231.718L223.249 76.6152H230.669L233.233 69.0006H238.866L241.469 76.6152ZM221.19 41.9999H252.036V82.637H221.19V41.9999ZM260.903 47.7109H254.376V76.6152H268.634V70.0884H260.903V47.7109ZM251.501 41.9999H271.121V82.637H251.501V41.9999ZM270.429 41.9999H282.55V82.637H270.429V41.9999ZM299.261 47.7109H292.734L283.799 76.6152H290.326L299.261 47.7109ZM281.507 41.9999H301.01V82.637H281.507V41.9999ZM300.401 41.9999H312.522V82.637H300.401V41.9999ZM9.01405 89.7109H2.48725V118.615H9.01405V89.7109ZM0.00085009 83.9999H11.6558V124.637H0.00085009V83.9999ZM27.4043 103.891L19.6732 89.7109H13.0299V118.615H19.9452V104.396L27.7151 118.615H34.3196V89.7109H27.4043V103.891ZM10.7377 83.9999H36.5341V124.637H10.7377V83.9999ZM37.946 89.7109V96.2376H44.5117V118.615H51.0385V96.2376H57.6041V89.7109H37.946ZM36.0812 83.9999H59.7797V124.637H36.0812V83.9999ZM78.7813 89.7109H61.0657V118.615H78.7813V112.088H67.5925V107.426H75.8287V100.9H67.5925V96.2376H78.7813V89.7109ZM58.5793 83.9999H81.3066V124.637H58.5793V83.9999ZM90.1756 89.7109H83.6488V118.615H97.9067V112.088H90.1756V89.7109ZM80.7739 83.9999H100.393V124.637H80.7739V83.9999ZM109.297 89.7109H102.77V118.615H117.028V112.088H109.297V89.7109ZM99.8954 83.9999H119.515V124.637H99.8954V83.9999ZM139.219 89.7109H121.503V118.615H139.219V112.088H128.03V107.426H136.266V100.9H128.03V96.2376H139.219V89.7109ZM119.017 83.9999H141.744V124.637H119.017V83.9999ZM154.11 112.205C152.789 112.101 151.727 111.57 150.924 110.612C150.121 109.628 149.72 108.424 149.72 106.999V101.366C149.72 99.9413 150.108 98.7629 150.885 97.8305C151.688 96.8722 152.75 96.3412 154.071 96.2376C154.615 96.2117 155.133 96.3153 155.625 96.5484C156.117 96.7815 156.557 97.0923 156.946 97.4808C157.334 97.8693 157.658 98.3096 157.917 98.8017C158.202 99.2938 158.422 99.773 158.577 100.239L164.211 97.0923C163.926 96.2117 163.524 95.3311 163.006 94.4505C162.514 93.5699 161.854 92.78 161.025 92.0807C160.222 91.3814 159.251 90.8116 158.111 90.3713C156.972 89.931 155.612 89.7109 154.032 89.7109H153.993C152.206 89.7109 150.639 90.0476 149.292 90.7209C147.945 91.3685 146.819 92.2361 145.912 93.3239C145.032 94.4117 144.358 95.6549 143.892 97.0535C143.452 98.4262 143.219 99.8248 143.193 101.249V107.232C143.27 108.734 143.504 110.185 143.892 111.583C144.281 112.956 144.889 114.173 145.718 115.235C146.573 116.271 147.661 117.1 148.981 117.722C150.328 118.343 151.986 118.654 153.954 118.654H153.993C155.754 118.654 157.231 118.408 158.422 117.916C159.639 117.398 160.636 116.789 161.413 116.09C162.19 115.391 162.786 114.678 163.2 113.953C163.641 113.228 163.977 112.632 164.211 112.166L158.577 109.019C158.189 109.926 157.619 110.703 156.868 111.35C156.143 111.998 155.223 112.283 154.11 112.205ZM141.173 83.9999H167.163V124.637H141.173V83.9999ZM168.572 89.7109V96.2376H175.137V118.615H181.664V96.2376H188.23V89.7109H168.572ZM166.707 83.9999H190.405V124.637H166.707V83.9999ZM206.782 89.672V106.572C206.782 107.271 206.704 107.931 206.549 108.553C206.419 109.175 206.199 109.719 205.888 110.185C205.604 110.651 205.228 111.027 204.762 111.311C204.296 111.57 203.739 111.7 203.091 111.7C202.444 111.7 201.887 111.57 201.421 111.311C200.954 111.027 200.566 110.651 200.255 110.185C199.944 109.719 199.711 109.175 199.556 108.553C199.426 107.931 199.362 107.271 199.362 106.572V89.672H192.641V107.077C192.641 108.605 192.822 110.068 193.184 111.467C193.573 112.865 194.182 114.109 195.01 115.196C195.839 116.258 196.914 117.1 198.235 117.722C199.556 118.343 201.162 118.641 203.052 118.615H203.091C204.801 118.641 206.303 118.382 207.598 117.838C208.893 117.268 209.968 116.478 210.822 115.468C211.703 114.432 212.363 113.202 212.804 111.778C213.27 110.353 213.503 108.786 213.503 107.077V89.672H206.782ZM190.115 83.9999H215.951V124.637H190.115V83.9999ZM235.816 118.615H243.237L234.767 89.7109H226.065L217.596 118.615H225.016L227.58 111.001H233.213L235.816 118.615ZM215.537 83.9999H246.383V124.637H215.537V83.9999ZM255.25 89.7109H248.723V118.615H262.981V112.088H255.25V89.7109ZM245.848 83.9999H265.468V124.637H245.848V83.9999ZM19.6589 131.711H1.94335V160.615H8.47015V149.426H16.7063V142.9H8.47015V138.238H19.6589V131.711ZM0.00085009 126H21.3683V166.637H0.00085009V126ZM30.0704 131.711H23.5436V160.615H30.0704V131.711ZM21.0572 126H32.7122V166.637H21.0572V126ZM33.6589 131.711V138.238H40.2245V160.615H46.7513V138.238H53.317V131.711H33.6589ZM31.7941 126H55.4926V166.637H31.7941V126ZM71.8694 145.891L64.1382 131.711H57.4949V160.615H64.4102V146.396L72.1802 160.615H78.7847V131.711H71.8694V145.891ZM55.2027 126H80.9991V166.637H55.2027V126ZM100.748 131.711H83.0327V160.615H100.748V154.088H89.5595V149.426H97.7957V142.9H89.5595V138.238H100.748V131.711ZM80.5463 126H103.273V166.637H80.5463V126ZM124.147 153.35C124.147 151.874 123.888 150.605 123.37 149.543C122.852 148.455 122.166 147.484 121.311 146.629C120.456 145.775 119.472 145.01 118.359 144.337C117.271 143.664 116.131 142.99 114.94 142.317C114.085 141.695 113.45 141.203 113.036 140.841C112.648 140.452 112.453 140.012 112.453 139.52C112.453 138.872 112.661 138.393 113.075 138.082C113.515 137.746 113.994 137.577 114.512 137.577C115.004 137.577 115.432 137.681 115.794 137.888C116.183 138.095 116.507 138.354 116.766 138.665C117.051 138.95 117.271 139.274 117.426 139.636C117.582 139.973 117.698 140.284 117.776 140.569L123.487 138.315C123.357 137.538 123.085 136.761 122.671 135.984C122.256 135.181 121.674 134.469 120.923 133.848C120.197 133.226 119.291 132.721 118.203 132.332C117.141 131.918 115.898 131.711 114.474 131.711C113.282 131.737 112.13 131.918 111.016 132.255C109.902 132.591 108.918 133.084 108.063 133.731C107.209 134.379 106.522 135.181 106.004 136.14C105.486 137.098 105.227 138.212 105.227 139.481C105.227 140.854 105.46 141.993 105.927 142.9C106.419 143.806 107.079 144.622 107.908 145.347C108.763 146.072 109.747 146.772 110.86 147.445C112 148.093 113.23 148.857 114.551 149.737C115.147 150.152 115.6 150.553 115.911 150.942C116.248 151.304 116.429 151.706 116.455 152.146C116.481 152.871 116.274 153.402 115.833 153.739C115.419 154.075 114.992 154.27 114.551 154.322C114.033 154.399 113.541 154.296 113.075 154.011C112.635 153.7 112.259 153.363 111.948 153.001C111.637 152.612 111.391 152.25 111.21 151.913C111.055 151.576 111.003 151.395 111.055 151.369L104.839 153.972C105.098 155.008 105.512 155.94 106.082 156.769C106.678 157.572 107.39 158.258 108.219 158.828C109.047 159.398 109.967 159.838 110.977 160.149C112.013 160.46 113.114 160.615 114.279 160.615C115.781 160.615 117.128 160.447 118.32 160.11C119.511 159.748 120.521 159.268 121.35 158.673C122.205 158.051 122.865 157.339 123.331 156.536C123.823 155.707 124.095 154.827 124.147 153.894V153.35ZM102.741 126H126.439V166.637H102.741V126ZM147.556 153.35C147.556 151.874 147.297 150.605 146.779 149.543C146.261 148.455 145.574 147.484 144.72 146.629C143.865 145.775 142.881 145.01 141.767 144.337C140.679 143.664 139.54 142.99 138.348 142.317C137.494 141.695 136.859 141.203 136.445 140.841C136.056 140.452 135.862 140.012 135.862 139.52C135.862 138.872 136.069 138.393 136.484 138.082C136.924 137.746 137.403 137.577 137.921 137.577C138.413 137.577 138.84 137.681 139.203 137.888C139.592 138.095 139.915 138.354 140.174 138.665C140.459 138.95 140.679 139.274 140.835 139.636C140.99 139.973 141.107 140.284 141.184 140.569L146.895 138.315C146.766 137.538 146.494 136.761 146.079 135.984C145.665 135.181 145.082 134.469 144.331 133.848C143.606 133.226 142.7 132.721 141.612 132.332C140.55 131.918 139.307 131.711 137.882 131.711C136.691 131.737 135.538 131.918 134.425 132.255C133.311 132.591 132.327 133.084 131.472 133.731C130.617 134.379 129.931 135.181 129.413 136.14C128.895 137.098 128.636 138.212 128.636 139.481C128.636 140.854 128.869 141.993 129.335 142.9C129.827 143.806 130.488 144.622 131.317 145.347C132.171 146.072 133.155 146.772 134.269 147.445C135.409 148.093 136.639 148.857 137.96 149.737C138.556 150.152 139.009 150.553 139.32 150.942C139.656 151.304 139.838 151.706 139.863 152.146C139.889 152.871 139.682 153.402 139.242 153.739C138.827 154.075 138.4 154.27 137.96 154.322C137.442 154.399 136.95 154.296 136.484 154.011C136.043 153.7 135.668 153.363 135.357 153.001C135.046 152.612 134.8 152.25 134.619 151.913C134.463 151.576 134.412 151.395 134.463 151.369L128.247 153.972C128.506 155.008 128.921 155.94 129.491 156.769C130.086 157.572 130.799 158.258 131.627 158.828C132.456 159.398 133.376 159.838 134.386 160.149C135.422 160.46 136.522 160.615 137.688 160.615C139.19 160.615 140.537 160.447 141.728 160.11C142.92 159.748 143.93 159.268 144.759 158.673C145.613 158.051 146.274 157.339 146.74 156.536C147.232 155.707 147.504 154.827 147.556 153.894V153.35ZM126.149 126H149.848V166.637H126.149V126ZM149.364 126H161.485V166.637H149.364V126ZM178.197 131.711H171.67L162.734 160.615H169.261L178.197 131.711ZM160.442 126H179.945V166.637H160.442V126ZM179.336 126H191.457V166.637H179.336V126ZM210.811 131.711H193.095V160.615H210.811V154.088H199.622V149.426H207.858V142.9H199.622V138.238H210.811V131.711ZM190.609 126H213.336V166.637H190.609V126ZM234.714 131.711L228.693 148.494L222.71 131.711H216.067V160.615H222.982V150.203L226.595 160.615H230.791L234.326 150.514V160.615H241.241V131.711H234.714ZM212.803 126H244.194V166.637H212.803V126ZM267.731 142.356C267.705 141.035 267.459 139.753 266.993 138.51C266.527 137.266 265.828 136.153 264.895 135.168C263.833 134.055 262.616 133.2 261.243 132.604C259.896 132.009 258.459 131.711 256.931 131.711H256.892C255.364 131.711 253.927 132.009 252.58 132.604C251.233 133.2 250.016 134.055 248.928 135.168C248.021 136.153 247.322 137.292 246.83 138.587C246.338 139.856 246.092 141.113 246.092 142.356V149.116C246.118 150.67 246.338 152.133 246.752 153.506C247.193 154.878 247.918 156.109 248.928 157.196C250.016 158.31 251.233 159.165 252.58 159.761C253.952 160.356 255.39 160.654 256.892 160.654H256.931C258.459 160.654 259.896 160.356 261.243 159.761C262.616 159.165 263.833 158.297 264.895 157.158C265.931 156.07 266.656 154.814 267.071 153.389C267.511 151.939 267.731 150.514 267.731 149.116V142.356ZM243.8 126H269.829V166.637H243.8V126ZM271.16 131.711V138.238H277.725V160.615H284.252V138.238H290.818V131.711H271.16ZM269.295 126H292.993V166.637H269.295V126ZM301.034 131.711H294.507V160.615H301.034V131.711ZM292.021 126H303.676V166.637H292.021V126ZM327.22 142.356C327.194 141.035 326.948 139.753 326.482 138.51C326.016 137.266 325.317 136.153 324.384 135.168C323.322 134.055 322.105 133.2 320.732 132.604C319.386 132.009 317.948 131.711 316.42 131.711H316.381C314.853 131.711 313.416 132.009 312.069 132.604C310.722 133.2 309.505 134.055 308.417 135.168C307.51 136.153 306.811 137.292 306.319 138.587C305.827 139.856 305.581 141.113 305.581 142.356V149.116C305.607 150.67 305.827 152.133 306.241 153.506C306.682 154.878 307.407 156.109 308.417 157.196C309.505 158.31 310.722 159.165 312.069 159.761C313.441 160.356 314.879 160.654 316.381 160.654H316.42C317.948 160.654 319.386 160.356 320.732 159.761C322.105 159.165 323.322 158.297 324.384 157.158C325.42 156.07 326.145 154.814 326.56 153.389C327 151.939 327.22 150.514 327.22 149.116V142.356ZM303.289 126H329.318V166.637H303.289V126ZM345.451 145.891L337.719 131.711H331.076V160.615H337.991V146.396L345.761 160.615H352.366V131.711H345.451V145.891ZM328.784 126H354.58V166.637H328.784V126ZM374.485 160.615H381.905L373.436 131.711H364.734L356.264 160.615H363.685L366.249 153.001H371.882L374.485 160.615ZM354.205 126H385.052V166.637H354.205V126ZM393.919 131.711H387.392V160.615H401.65V154.088H393.919V131.711ZM384.517 126H404.136V166.637H384.517V126Z" fill="white"/>
</svg>
