<svg width="420" height="76" viewBox="0 0 420 76" fill="none" xmlns="http://www.w3.org/2000/svg">
<path d="M13.5881 17.4279C15.0651 17.4279 16.3123 17.7397 17.3298 18.3633C18.3472 18.9541 19.1678 19.709 19.7914 20.628C20.4478 21.547 20.9237 22.5481 21.2191 23.6312C21.5145 24.7143 21.6622 25.7153 21.6622 26.6343C21.6622 27.98 21.4489 29.2601 21.0222 30.4745C20.6283 31.6889 20.0211 32.772 19.2006 33.7238C18.4129 34.6428 17.4118 35.3813 16.1974 35.9392C14.983 36.4644 13.5717 36.727 11.9634 36.727H11.7173H0V0.0981398H8.76335H8.27103H8.51719C10.3224 0.0981398 11.8978 0.32789 13.2435 0.787392C14.5892 1.24689 15.6887 1.8705 16.5421 2.65822C17.3954 3.44593 18.0354 4.36494 18.4621 5.41523C18.8888 6.46552 19.1021 7.59786 19.1021 8.81225C19.1021 10.0923 18.9216 11.2575 18.5606 12.3077C18.2324 13.358 17.7893 14.2606 17.2313 15.0155C16.7062 15.7704 16.1154 16.3612 15.4589 16.7879C14.8025 17.2146 14.1789 17.4279 13.5881 17.4279ZM50.8627 22.0557C50.8627 24.222 50.5673 26.2077 49.9765 28.0129C49.4186 29.818 48.5816 31.3771 47.4657 32.6899C46.3826 33.97 45.0205 34.971 43.3794 35.6931C41.7383 36.3823 39.8347 36.7106 37.6685 36.6777H37.6192C35.2233 36.7106 33.1883 36.3331 31.5144 35.5454C29.8405 34.7577 28.4784 33.691 27.4282 32.3453C26.3779 30.9668 25.6066 29.3914 25.1142 27.619C24.6547 25.8466 24.425 23.9922 24.425 22.0557V-0.000326465H32.9422V21.4157C32.9422 22.3019 33.0242 23.1389 33.1883 23.9266C33.3853 24.7143 33.6807 25.4035 34.0745 25.9943C34.4684 26.5851 34.9607 27.061 35.5515 27.4221C36.1423 27.7503 36.8479 27.9144 37.6685 27.9144C38.489 27.9144 39.1947 27.7503 39.7855 27.4221C40.3762 27.061 40.8522 26.5851 41.2132 25.9943C41.6071 25.4035 41.886 24.7143 42.0501 23.9266C42.2471 23.1389 42.3455 22.3019 42.3455 21.4157V-0.000326465H50.8627V22.0557ZM62.3592 0.0489081V36.6777H54.0882V0.0489081H62.3592ZM74.0423 28.4067H83.8395V36.6777H65.7713V0.0489081H74.0423V28.4067ZM106.49 0.0489081V8.31993H98.17V36.6777H89.8989V8.31993H81.5787V0.0489081H106.49ZM145.676 8.31993H131.497V14.2278H141.934V22.4988H131.497V36.6777H123.226V0.0489081H145.676V8.31993ZM175.362 22.105C175.362 23.8773 175.083 25.6825 174.525 27.5205C174 29.3257 173.081 30.9176 171.768 32.2961C170.422 33.7402 168.88 34.8397 167.14 35.5946C165.433 36.3495 163.612 36.727 161.675 36.727H161.626C159.723 36.727 157.901 36.3495 156.161 35.5946C154.455 34.8397 152.912 33.7566 151.534 32.3453C150.253 30.9668 149.334 29.4078 148.777 27.6682C148.251 25.9287 147.972 24.0743 147.94 22.105V13.5386C147.94 11.9631 148.251 10.3713 148.875 8.76302C149.499 7.12195 150.385 5.6778 151.534 4.43058C152.912 3.01926 154.455 1.93615 156.161 1.18125C157.868 0.426356 159.69 0.0489081 161.626 0.0489081H161.675C163.612 0.0489081 165.433 0.426356 167.14 1.18125C168.88 1.93615 170.422 3.01926 171.768 4.43058C172.95 5.6778 173.836 7.08913 174.427 8.66456C175.017 10.24 175.329 11.8647 175.362 13.5386V22.105ZM191.183 36.6777L186.26 24.7635H186.161V36.6777H177.89V0.0489081H189.017H189.066C191.166 0.0489081 192.906 0.377123 194.284 1.03355C195.696 1.65716 196.812 2.51052 197.632 3.59363C198.486 4.64392 199.093 5.89114 199.454 7.33529C199.815 8.74661 199.995 10.24 199.995 11.8154C199.995 13.4565 199.716 14.9171 199.158 16.1971C198.633 17.4771 197.993 18.5603 197.238 19.4464C196.516 20.2998 195.778 20.9562 195.023 21.4157C194.268 21.8424 193.677 22.0557 193.251 22.0557L200.685 36.6777H191.183ZM242.119 28.1605C242.054 29.3421 241.709 30.4581 241.086 31.5083C240.495 32.5258 239.658 33.4284 238.575 34.2161C237.524 34.971 236.244 35.5782 234.735 36.0377C233.225 36.4644 231.518 36.6777 229.614 36.6777C228.137 36.6777 226.743 36.4808 225.43 36.0869C224.15 35.6931 222.984 35.1351 221.934 34.413C220.884 33.691 219.981 32.8212 219.226 31.8037C218.504 30.7534 217.979 29.5719 217.651 28.259L225.528 24.9604C225.462 24.9933 225.528 25.223 225.725 25.6497C225.955 26.0764 226.267 26.5359 226.66 27.0282C227.054 27.4877 227.53 27.9144 228.088 28.3082C228.679 28.6693 229.303 28.8006 229.959 28.7021C230.517 28.6365 231.059 28.3903 231.584 27.9636C232.142 27.5369 232.404 26.8641 232.371 25.9451C232.339 25.3871 232.109 24.8784 231.682 24.4189C231.288 23.9266 230.714 23.4178 229.959 22.8927C228.285 21.7768 226.726 20.8085 225.282 19.988C223.871 19.1346 222.623 18.2484 221.54 17.3294C220.49 16.4104 219.653 15.3766 219.029 14.2278C218.439 13.0791 218.143 11.6349 218.143 9.89537C218.143 8.28711 218.472 6.87578 219.128 5.66139C219.784 4.44699 220.654 3.42952 221.737 2.60899C222.82 1.78845 224.068 1.16484 225.479 0.73816C226.89 0.31148 228.351 0.0817292 229.861 0.0489081C231.666 0.0489081 233.241 0.31148 234.587 0.836623C235.965 1.32895 237.114 1.96897 238.033 2.75668C238.985 3.5444 239.723 4.44699 240.249 5.46446C240.774 6.44911 241.118 7.43375 241.282 8.4184L234.045 11.2739C233.947 10.9128 233.799 10.519 233.602 10.0923C233.405 9.63279 233.126 9.22253 232.765 8.86149C232.437 8.46763 232.027 8.13941 231.534 7.87684C231.075 7.61427 230.533 7.48298 229.91 7.48298C229.253 7.48298 228.646 7.69632 228.088 8.123C227.563 8.51686 227.301 9.12406 227.301 9.9446C227.301 10.5682 227.547 11.1262 228.039 11.6185C228.564 12.078 229.368 12.7016 230.451 13.4893C231.961 14.3427 233.405 15.196 234.784 16.0494C236.195 16.9028 237.442 17.871 238.525 18.9541C239.609 20.0372 240.478 21.268 241.135 22.6465C241.791 23.9922 242.119 25.6005 242.119 27.4713V28.1605ZM258.36 28.5544C259.771 28.6529 260.936 28.2918 261.855 27.4713C262.807 26.6508 263.529 25.6661 264.022 24.5174L271.16 28.5052C270.865 29.096 270.438 29.8509 269.88 30.7699C269.355 31.6889 268.6 32.5915 267.616 33.4776C266.631 34.3638 265.367 35.1351 263.825 35.7916C262.315 36.4152 260.444 36.727 258.212 36.727H258.163C255.669 36.727 253.568 36.3331 251.861 35.5454C250.187 34.7577 248.809 33.7074 247.726 32.3945C246.675 31.0488 245.904 29.5062 245.412 27.7667C244.92 25.9943 244.624 24.1563 244.526 22.2527V14.6709C244.558 12.8657 244.854 11.0934 245.412 9.35381C246.003 7.58145 246.856 6.00602 247.972 4.62751C249.121 3.24901 250.548 2.14949 252.255 1.32895C253.962 0.475587 255.948 0.0489081 258.212 0.0489081H258.261C260.264 0.0489081 261.987 0.32789 263.431 0.885855C264.875 1.44382 266.106 2.1659 267.123 3.05208C268.174 3.93826 269.011 4.93932 269.634 6.05525C270.291 7.17118 270.799 8.28711 271.16 9.40304L264.022 13.3909C263.825 12.8001 263.546 12.1929 263.185 11.5693C262.856 10.9457 262.446 10.3877 261.954 9.89537C261.462 9.40304 260.904 9.00919 260.28 8.71379C259.656 8.4184 259 8.28711 258.311 8.31993C256.637 8.45122 255.291 9.12406 254.274 10.3385C253.289 11.52 252.797 13.0134 252.797 14.8186V21.9573C252.797 23.7625 253.305 25.2887 254.323 26.5359C255.34 27.7503 256.686 28.4231 258.36 28.5544ZM291.737 27.0282H284.599L281.349 36.6777H271.946L282.679 0.0489081H293.707L304.439 36.6777H295.036L291.737 27.0282ZM314.771 28.4067H324.568V36.6777H306.5V0.0489081H314.771V28.4067ZM350.152 8.31993H335.973V14.2278H346.411V22.4988H335.973V28.4067H350.152V36.6777H327.702V0.0489081H350.152V8.31993ZM18.2652 39.0489H27.0285V75.6777H18.659L8.81258 57.6587V75.6777H0.0492323V39.0489H8.46795L18.2652 57.0187V39.0489ZM57.2333 61.105C57.2333 62.8773 56.9543 64.6825 56.3964 66.5205C55.8712 68.3257 54.9522 69.9176 53.6394 71.2961C52.2937 72.7402 50.7511 73.8397 49.0115 74.5946C47.3048 75.3495 45.4832 75.727 43.5467 75.727H43.4975C41.5939 75.727 39.7723 75.3495 38.0327 74.5946C36.326 73.8397 34.7834 72.7566 33.4049 71.3453C32.1248 69.9668 31.2058 68.4078 30.6479 66.6682C30.1227 64.9287 29.8437 63.0743 29.8109 61.105V52.5386C29.8109 50.9631 30.1227 49.3713 30.7463 47.763C31.3699 46.1219 32.2561 44.6778 33.4049 43.4306C34.7834 42.0193 36.326 40.9361 38.0327 40.1813C39.7394 39.4264 41.561 39.0489 43.4975 39.0489H43.5467C45.4832 39.0489 47.3048 39.4264 49.0115 40.1813C50.7511 40.9361 52.2937 42.0193 53.6394 43.4306C54.8209 44.6778 55.7071 46.0891 56.2979 47.6646C56.8887 49.24 57.2005 50.8647 57.2333 52.5386V61.105ZM82.0714 39.0489V75.6777H73.8004V39.0489H82.0714ZM103.749 39.0489H112.512V75.6777H104.142L94.296 57.6587V75.6777H85.5326V39.0489H93.9514L103.749 57.0187V39.0489ZM137.646 47.3199H123.467V53.2278H133.904V61.4988H123.467V67.4067H137.646V75.6777H115.196V39.0489H137.646V47.3199ZM154.211 75.6777L149.287 63.7635H149.189V75.6777H140.918V39.0489H152.044H152.094C154.194 39.0489 155.934 39.3771 157.312 40.0336C158.723 40.6572 159.839 41.5105 160.66 42.5936C161.513 43.6439 162.121 44.8911 162.482 46.3353C162.843 47.7466 163.023 49.24 163.023 50.8154C163.023 52.4565 162.744 53.9171 162.186 55.1971C161.661 56.4771 161.021 57.5603 160.266 58.4464C159.544 59.2998 158.806 59.9562 158.051 60.4157C157.296 60.8424 156.705 61.0557 156.278 61.0557L163.712 75.6777H154.211ZM191.108 39.0489V47.3199H182.788V75.6777H174.517V47.3199H166.197V39.0489H191.108ZM202.027 39.0489V75.6777H193.756V39.0489H202.027ZM223.803 66.0282H216.664L213.415 75.6777H204.011L214.744 39.0489H225.772L236.505 75.6777H227.101L223.803 66.0282ZM277.072 67.1605C277.007 68.3421 276.662 69.4581 276.039 70.5083C275.448 71.5258 274.611 72.4284 273.528 73.2161C272.477 73.971 271.197 74.5782 269.688 75.0377C268.178 75.4644 266.471 75.6777 264.567 75.6777C263.09 75.6777 261.696 75.4808 260.383 75.0869C259.103 74.6931 257.937 74.1351 256.887 73.413C255.837 72.691 254.934 71.8212 254.179 70.8037C253.457 69.7534 252.932 68.5719 252.604 67.259L260.481 63.9604C260.415 63.9933 260.481 64.223 260.678 64.6497C260.908 65.0764 261.22 65.5359 261.613 66.0282C262.007 66.4877 262.483 66.9144 263.041 67.3082C263.632 67.6693 264.256 67.8006 264.912 67.7021C265.47 67.6365 266.012 67.3903 266.537 66.9636C267.095 66.5369 267.357 65.8641 267.324 64.9451C267.292 64.3871 267.062 63.8784 266.635 63.4189C266.241 62.9266 265.667 62.4178 264.912 61.8927C263.238 60.7768 261.679 59.8085 260.235 58.988C258.824 58.1346 257.576 57.2484 256.493 56.3294C255.443 55.4104 254.606 54.3766 253.982 53.2278C253.392 52.0791 253.096 50.6349 253.096 48.8954C253.096 47.2871 253.425 45.8758 254.081 44.6614C254.737 43.447 255.607 42.4295 256.69 41.609C257.773 40.7884 259.021 40.1648 260.432 39.7382C261.843 39.3115 263.304 39.0817 264.814 39.0489C266.619 39.0489 268.194 39.3115 269.54 39.8366C270.918 40.3289 272.067 40.969 272.986 41.7567C273.938 42.5444 274.676 43.447 275.202 44.4645C275.727 45.4491 276.071 46.4338 276.235 47.4184L268.998 50.2739C268.9 49.9128 268.752 49.519 268.555 49.0923C268.358 48.6328 268.079 48.2225 267.718 47.8615C267.39 47.4676 266.98 47.1394 266.487 46.8768C266.028 46.6143 265.486 46.483 264.863 46.483C264.206 46.483 263.599 46.6963 263.041 47.123C262.516 47.5169 262.254 48.1241 262.254 48.9446C262.254 49.5682 262.5 50.1262 262.992 50.6185C263.517 51.078 264.321 51.7016 265.404 52.4893C266.914 53.3427 268.358 54.196 269.737 55.0494C271.148 55.9028 272.395 56.871 273.478 57.9541C274.562 59.0372 275.431 60.268 276.088 61.6465C276.744 62.9922 277.072 64.6005 277.072 66.4713V67.1605ZM306.212 39.0489L296.365 57.3633V75.6777H288.587V57.3633L279.183 39.0489H288.439L292.722 47.7138L296.956 39.0489H306.212ZM332.411 67.1605C332.345 68.3421 332 69.4581 331.377 70.5083C330.786 71.5258 329.949 72.4284 328.866 73.2161C327.816 73.971 326.536 74.5782 325.026 75.0377C323.516 75.4644 321.809 75.6777 319.906 75.6777C318.429 75.6777 317.034 75.4808 315.721 75.0869C314.441 74.6931 313.276 74.1351 312.225 73.413C311.175 72.691 310.273 71.8212 309.518 70.8037C308.796 69.7534 308.27 68.5719 307.942 67.259L315.819 63.9604C315.754 63.9933 315.819 64.223 316.016 64.6497C316.246 65.0764 316.558 65.5359 316.952 66.0282C317.346 66.4877 317.822 66.9144 318.379 67.3082C318.97 67.6693 319.594 67.8006 320.25 67.7021C320.808 67.6365 321.35 67.3903 321.875 66.9636C322.433 66.5369 322.696 65.8641 322.663 64.9451C322.63 64.3871 322.4 63.8784 321.973 63.4189C321.58 62.9266 321.005 62.4178 320.25 61.8927C318.576 60.7768 317.017 59.8085 315.573 58.988C314.162 58.1346 312.915 57.2484 311.832 56.3294C310.781 55.4104 309.944 54.3766 309.321 53.2278C308.73 52.0791 308.435 50.6349 308.435 48.8954C308.435 47.2871 308.763 45.8758 309.419 44.6614C310.076 43.447 310.945 42.4295 312.029 41.609C313.112 40.7884 314.359 40.1648 315.77 39.7382C317.181 39.3115 318.642 39.0817 320.152 39.0489C321.957 39.0489 323.532 39.3115 324.878 39.8366C326.257 40.3289 327.405 40.969 328.324 41.7567C329.276 42.5444 330.015 43.447 330.54 44.4645C331.065 45.4491 331.41 46.4338 331.574 47.4184L324.337 50.2739C324.238 49.9128 324.09 49.519 323.893 49.0923C323.697 48.6328 323.418 48.2225 323.057 47.8615C322.728 47.4676 322.318 47.1394 321.826 46.8768C321.366 46.6143 320.825 46.483 320.201 46.483C319.545 46.483 318.937 46.6963 318.379 47.123C317.854 47.5169 317.592 48.1241 317.592 48.9446C317.592 49.5682 317.838 50.1262 318.33 50.6185C318.855 51.078 319.66 51.7016 320.743 52.4893C322.252 53.3427 323.697 54.196 325.075 55.0494C326.486 55.9028 327.734 56.871 328.817 57.9541C329.9 59.0372 330.77 60.268 331.426 61.6465C332.082 62.9922 332.411 64.6005 332.411 66.4713V67.1605ZM359.335 39.0489V47.3199H351.014V75.6777H342.743V47.3199H334.423V39.0489H359.335ZM384.432 47.3199H370.253V53.2278H380.691V61.4988H370.253V67.4067H384.432V75.6777H361.982V39.0489H384.432V47.3199ZM419.607 39.0489V75.6777H410.843V62.8773L406.363 75.6777H401.046L396.468 62.4835V75.6777H387.704V39.0489H396.123L403.705 60.3173L411.336 39.0489H419.607Z" fill="white"/>
</svg>
