<svg width="445" height="138" viewBox="0 0 445 138" fill="none" xmlns="http://www.w3.org/2000/svg">
<g filter="url(#filter0_n_2858_534)">
<path d="M11.1065 128.295H2.00104V137.293H11.1065V128.295Z" fill="#E50914"/>
<path d="M20.2117 128.295H17.3663V137.293H20.2117V128.295Z" fill="#E50914"/>
<path d="M42.4063 128.295H35.5772V137.293H42.4063V128.295Z" fill="#F63720"/>
<path d="M53.2196 128.295H50.3741V137.293H53.2196V128.295Z" fill="#E50914"/>
<path d="M45.8216 128.295H44.1143V137.293H45.8216V128.295Z" fill="#E50914"/>
<path d="M60.0484 128.295H56.6339V137.293H60.0484V128.295Z" fill="#E50914"/>
<path d="M67.4466 128.295H65.7393V137.293H67.4466V128.295Z" fill="#E50914"/>
<path d="M114.682 137.293H118.097V128.295H114.682V137.293Z" fill="#E50914"/>
<path d="M107.852 137.293H109.56V128.295H107.852V137.293Z" fill="#E50914"/>
<path d="M101.023 137.293H103.3V128.295H101.023V137.293Z" fill="#E50914"/>
<path d="M91.917 137.293H96.4698V128.295H91.917V137.293Z" fill="#E50914"/>
<path d="M126.065 128.295H123.788V137.293H126.065V128.295Z" fill="#E50914"/>
<path d="M134.031 128.295H132.323V137.293H134.031V128.295Z" fill="#E50914"/>
<path d="M148.259 137.293H149.966V128.295H148.259V137.293Z" fill="#E50914"/>
<path d="M83.952 137.293H85.6592V128.295H83.952V137.293Z" fill="#E50914"/>
<path d="M89.6409 137.293H90.21V128.295H89.6409V137.293Z" fill="#E50914"/>
<path d="M78.8294 137.293H81.6749V128.295H78.8294V137.293Z" fill="#E50914"/>
<path d="M73.7078 137.293H75.4151V128.295H73.7078V137.293Z" fill="#E50914"/>
<path d="M295.086 137.293H308.175V128.295H295.086V137.293Z" fill="#E50914"/>
<path d="M285.98 137.293H288.825V128.295H285.98V137.293Z" fill="#E50914"/>
<path d="M263.785 137.293H270.614V128.295H263.785V137.293Z" fill="#E50914"/>
<path d="M252.972 137.293H255.817V128.295H252.972V137.293Z" fill="#F63720"/>
<path d="M260.37 137.293H262.077V128.295H260.37V137.293Z" fill="#E50914"/>
<path d="M246.143 137.293H249.558V128.295H246.143V137.293Z" fill="#E50914"/>
<path d="M238.745 137.293H240.452V128.295H238.745V137.293Z" fill="#E50914"/>
<path d="M191.509 128.295H188.095V137.293H191.509V128.295Z" fill="#F63720"/>
<path d="M198.339 128.295H196.632V137.293H198.339V128.295Z" fill="#E50914"/>
<path d="M205.168 128.295H202.892V137.293H205.168V128.295Z" fill="#E50914"/>
<path d="M214.273 128.295H209.72V137.293H214.273V128.295Z" fill="#E50914"/>
<path d="M180.128 137.293H182.974V128.295H180.128V137.293Z" fill="#F63720"/>
<path d="M172.161 137.293H173.868V128.295H172.161V137.293Z" fill="#E50914"/>
<path d="M157.933 128.295H156.226V137.293H157.933V128.295Z" fill="#E50914"/>
<path d="M222.242 128.295H220.534V137.293H222.242V128.295Z" fill="#E50914"/>
<path d="M216.551 128.295H215.982V137.293H216.551V128.295Z" fill="#E50914"/>
<path d="M227.362 128.295H224.517V137.293H227.362V128.295Z" fill="#E50914"/>
<path d="M232.484 128.295H230.776V137.293H232.484V128.295Z" fill="#E50914"/>
<path d="M432.805 137.293L436.001 137.293L436.001 128.295L432.805 128.295L432.805 137.293Z" fill="#E50914"/>
<path d="M416.827 137.293L420.023 137.293L420.023 128.295L416.827 128.295L416.827 137.293Z" fill="#E50914"/>
<path d="M425.136 137.293L427.054 137.293L427.054 128.295L425.136 128.295L425.136 137.293Z" fill="#E50914"/>
<path d="M409.156 137.293L412.991 137.293L412.991 128.295L409.156 128.295L409.156 137.293Z" fill="#E50914"/>
<path d="M400.849 137.293L402.767 137.293L402.767 128.295L400.849 128.295L400.849 137.293Z" fill="#E50914"/>
<path d="M347.801 128.295L343.966 128.295L343.966 137.293L347.801 137.293L347.801 128.295Z" fill="#E50914"/>
<path d="M355.469 128.295L353.552 128.295L353.552 137.293L355.469 137.293L355.469 128.295Z" fill="#E50914"/>
<path d="M363.14 128.295L360.583 128.295L360.583 137.293L363.14 137.293L363.14 128.295Z" fill="#E50914"/>
<path d="M373.366 128.295L368.253 128.295L368.253 137.293L373.366 137.293L373.366 128.295Z" fill="#E50914"/>
<path d="M327.523 137.293L337.767 137.293L337.767 128.295L327.523 128.295L327.523 137.293Z" fill="#F63720"/>
<path d="M317.279 137.293L319.196 137.293L319.196 128.295L317.279 128.295L317.279 137.293Z" fill="#E50914"/>
<path d="M382.313 128.295L380.396 128.295L380.396 137.293L382.313 137.293L382.313 128.295Z" fill="#E50914"/>
<path d="M375.921 128.295L375.282 128.295L375.282 137.293L375.921 137.293L375.921 128.295Z" fill="#E50914"/>
<path d="M388.066 128.295L384.87 128.295L384.87 137.293L388.066 137.293L388.066 128.295Z" fill="#E50914"/>
<path d="M393.819 128.295L391.901 128.295L391.901 137.293L393.819 137.293L393.819 128.295Z" fill="#E50914"/>
</g>
<path d="M356.001 0V20.2578H398.111L356.001 62.3316V80.5125H373.677L416.132 38.0914V80.5125H436.233V0H356.001Z" fill="#E50914"/>
<g filter="url(#filter1_n_2858_534)">
<path d="M2.59199 32V10.666H10.1738C12.4275 10.666 14.0905 11.1255 15.1626 12.0445C16.2567 12.9635 16.8037 14.3311 16.8037 16.1472C16.8037 17.3288 16.563 18.3025 16.0816 19.0683C15.6003 19.8342 14.8454 20.4031 13.8169 20.775V20.8407C16.202 21.519 17.3945 23.2585 17.3945 26.0593C17.3945 30.0198 15.1298 32 10.6004 32H2.59199ZM6.10389 28.7835H10.305C11.5304 28.7835 12.4275 28.5537 12.9964 28.0942C13.5653 27.6129 13.8498 26.847 13.8498 25.7967C13.8498 24.6808 13.5325 23.8821 12.8979 23.4008C12.2634 22.8975 11.2569 22.6459 9.87837 22.6459H6.10389V28.7835ZM6.10389 19.4294H9.48451C10.863 19.4294 11.8367 19.2105 12.4056 18.7729C12.9964 18.3134 13.2918 17.5804 13.2918 16.5739C13.2918 15.6111 13.0292 14.9219 12.5041 14.5061C12.0008 14.0904 11.1365 13.8825 9.91119 13.8825H6.10389V19.4294ZM21.27 32V10.666H24.7491V19.5278H32.3637V10.666H35.8428V32H32.3637V22.7443H24.7491V32H21.27ZM38.7008 32L45.7246 10.666H49.4663L56.4901 32H52.8469L51.2058 26.9127H43.821L42.1799 32H38.7008ZM44.8056 23.6962H50.1883L47.497 15.0969L44.8056 23.6962ZM66.7986 32.3939C65.1356 32.3939 63.6915 31.9562 62.4661 31.081C61.2627 30.1839 60.3327 28.9148 59.6763 27.2737C59.0418 25.6107 58.7245 23.6305 58.7245 21.333C58.7245 17.7445 59.4794 15.0094 60.9892 13.1276C62.499 11.224 64.6871 10.2721 67.5535 10.2721C68.7569 10.2721 69.851 10.4581 70.8356 10.8301C71.8203 11.1802 72.7612 11.7491 73.6583 12.5368L71.8531 15.261C71.1967 14.6702 70.5184 14.2436 69.8182 13.981C69.118 13.6965 68.374 13.5543 67.5863 13.5543C64.0416 13.5543 62.2692 16.1472 62.2692 21.333C62.2692 26.5188 63.9978 29.1117 67.455 29.1117C68.7022 29.1117 69.7963 28.7288 70.7372 27.963V22.9741H66.9627V19.7576H74.2163V32H71.9187L71.5905 30.4902C70.8903 31.1466 70.1464 31.628 69.3587 31.9344C68.5928 32.2407 67.7395 32.3939 66.7986 32.3939ZM95.8179 32L102.842 10.666H106.583L113.607 32H109.964L108.323 26.9127H100.938L99.297 32H95.8179ZM101.923 23.6962H107.305L104.614 15.0969L101.923 23.6962ZM125.032 32.3939C122.165 32.3939 119.977 31.453 118.467 29.5712C116.958 27.6676 116.203 24.9215 116.203 21.333C116.203 17.7445 116.958 15.0094 118.467 13.1276C119.977 11.224 122.165 10.2721 125.032 10.2721C126.235 10.2721 127.329 10.4581 128.314 10.8301C129.298 11.1802 130.239 11.7491 131.136 12.5368L129.331 15.261C128.675 14.6702 127.997 14.2436 127.296 13.981C126.596 13.6965 125.852 13.5543 125.064 13.5543C121.52 13.5543 119.747 16.1472 119.747 21.333C119.747 26.5188 121.52 29.1117 125.064 29.1117C125.962 29.1117 126.782 28.9476 127.526 28.6194C128.292 28.2693 129.058 27.7113 129.824 26.9455L131.793 29.5056C130.786 30.5121 129.747 31.2451 128.675 31.7046C127.603 32.1641 126.388 32.3939 125.032 32.3939ZM141.051 32V13.9153H134.323V10.666H151.259V13.9153H144.53V32H141.051ZM154.806 32V28.7835H160.09V13.8825H154.806V10.666H168.854V13.8825H163.569V28.7835H168.854V32H154.806ZM178.998 32L172.27 10.666H175.913L180.967 27.0111L185.989 10.666H189.468L182.74 32H178.998ZM193.573 32V10.666H207.325V13.8825H197.052V19.5278H205.75V22.7443H197.052V28.7835H207.325V32H193.573ZM3.34688 71V49.666H17.1319V52.8825H6.82596V58.7576H15.5565V61.9741H6.82596V71H3.34688ZM28.5564 71.3939C25.865 71.3939 23.8301 70.4639 22.4516 68.604C21.0731 66.7223 20.3838 63.9653 20.3838 60.333C20.3838 56.6789 21.0731 53.9219 22.4516 52.062C23.8301 50.2021 25.865 49.2721 28.5564 49.2721C31.2477 49.2721 33.2827 50.2021 34.6612 52.062C36.0397 53.9219 36.7289 56.6789 36.7289 60.333C36.7289 63.9653 36.0397 66.7223 34.6612 68.604C33.2827 70.4639 31.2477 71.3939 28.5564 71.3939ZM28.5564 68.1117C31.6416 68.1117 33.1842 65.5188 33.1842 60.333C33.1842 55.1472 31.6416 52.5543 28.5564 52.5543C25.4712 52.5543 23.9285 55.1472 23.9285 60.333C23.9285 65.5188 25.4712 68.1117 28.5564 68.1117ZM40.5716 71V49.666H48.2519C50.4837 49.666 52.1686 50.2021 53.3064 51.2743C54.4661 52.3245 55.0459 53.8781 55.0459 55.9349C55.0459 59.1952 53.6018 61.1864 50.7135 61.9084L56.0634 71H51.9935L46.9062 62.171H44.0835V71H40.5716ZM44.0835 58.9873H47.9565C49.2256 58.9873 50.1336 58.7466 50.6807 58.2652C51.2277 57.7839 51.5012 57.0071 51.5012 55.9349C51.5012 54.8409 51.2277 54.0641 50.6807 53.6046C50.1336 53.1232 49.2256 52.8825 47.9565 52.8825H44.0835V58.9873ZM59.7091 71V49.666H67.2909C69.5447 49.666 71.2076 50.1255 72.2798 51.0445C73.3738 51.9635 73.9209 53.3311 73.9209 55.1472C73.9209 56.3288 73.6802 57.3025 73.1988 58.0683C72.7174 58.8342 71.9625 59.4031 70.9341 59.775V59.8407C73.3191 60.519 74.5116 62.2585 74.5116 65.0593C74.5116 69.0198 72.247 71 67.7176 71H59.7091ZM63.221 67.7835H67.4222C68.6475 67.7835 69.5447 67.5537 70.1136 67.0942C70.6825 66.6129 70.9669 65.847 70.9669 64.7967C70.9669 63.6808 70.6496 62.8821 70.0151 62.4008C69.3805 61.8975 68.374 61.6459 66.9955 61.6459H63.221V67.7835ZM63.221 58.4294H66.6017C67.9802 58.4294 68.9539 58.2105 69.5228 57.7729C70.1136 57.3134 70.409 56.5804 70.409 55.5739C70.409 54.6111 70.1464 53.9219 69.6212 53.5061C69.118 53.0904 68.2537 52.8825 67.0283 52.8825H63.221V58.4294ZM79.339 71V49.666H93.0912V52.8825H82.8181V58.5278H91.5158V61.7443H82.8181V67.7835H93.0912V71H79.339ZM104.483 71.3939C102.973 71.3939 101.573 71.175 100.282 70.7374C98.9907 70.2998 97.8091 69.6215 96.7369 68.7025L98.5421 65.9127C99.3955 66.6566 100.325 67.2146 101.332 67.5866C102.338 67.9367 103.422 68.1117 104.581 68.1117C105.96 68.1117 106.999 67.8491 107.699 67.324C108.421 66.777 108.782 66.0002 108.782 64.9937C108.782 64.1841 108.575 63.5823 108.159 63.1885C107.765 62.7727 107.098 62.4445 106.157 62.2038L102.71 61.3833C100.96 60.9676 99.669 60.2892 98.8375 59.3484C98.006 58.4075 97.5903 57.1603 97.5903 55.6067C97.5903 53.6374 98.2467 52.0948 99.5596 50.9789C100.872 49.8411 102.71 49.2721 105.074 49.2721C107.634 49.2721 109.909 49.9942 111.9 51.4384L110.194 54.2938C108.75 53.1341 107.032 52.5543 105.041 52.5543C103.75 52.5543 102.765 52.8059 102.087 53.3092C101.43 53.7906 101.102 54.5017 101.102 55.4426C101.102 56.1428 101.299 56.7008 101.693 57.1165C102.109 57.5104 102.787 57.8167 103.728 58.0355L107.174 58.8889C108.925 59.3046 110.216 59.9829 111.047 60.9238C111.879 61.8428 112.294 63.1447 112.294 64.8296C112.294 66.8645 111.616 68.4727 110.259 69.6543C108.903 70.814 106.977 71.3939 104.483 71.3939ZM135.504 71V68.4727C135.504 65.9345 135.964 63.9871 136.883 62.6305C137.824 61.252 139.377 60.2455 141.543 59.6109L144.202 58.8232C144.946 58.6044 145.526 58.309 145.942 57.937C146.379 57.5432 146.598 56.9414 146.598 56.1318C146.598 55.1253 146.259 54.3814 145.581 53.9C144.924 53.3967 143.972 53.1451 142.725 53.1451C140.624 53.1451 138.797 53.8562 137.244 55.2785L135.439 52.5215C136.489 51.6462 137.594 51.0007 138.754 50.585C139.935 50.1474 141.259 49.9286 142.725 49.9286C145.11 49.9286 146.937 50.4756 148.206 51.5697C149.475 52.6418 150.11 54.2063 150.11 56.2631C150.11 57.8167 149.716 59.0639 148.928 60.0048C148.141 60.9238 146.882 61.6349 145.154 62.1382L142.528 62.8931C141.719 63.1119 141.062 63.4073 140.559 63.7793C140.077 64.1294 139.705 64.6217 139.443 65.2562C139.202 65.8908 139.06 66.7551 139.016 67.8491H150.11V71H135.504ZM161.83 71.3939C159.248 71.3939 157.268 70.4858 155.889 68.6697C154.532 66.8317 153.854 64.1622 153.854 60.6612C153.854 57.1603 154.532 54.5017 155.889 52.6856C157.268 50.8476 159.248 49.9286 161.83 49.9286C164.412 49.9286 166.381 50.8476 167.738 52.6856C169.116 54.5017 169.805 57.1603 169.805 60.6612C169.805 64.1622 169.116 66.8317 167.738 68.6697C166.381 70.4858 164.412 71.3939 161.83 71.3939ZM161.83 68.1773C163.318 68.1773 164.434 67.5537 165.178 66.3065C165.921 65.0374 166.293 63.1557 166.293 60.6612C166.293 60.1798 166.283 59.7422 166.261 59.3484C166.239 58.9326 166.195 58.5388 166.129 58.1668L158.383 66.1752C159.149 67.51 160.298 68.1773 161.83 68.1773ZM157.53 63.1557L165.276 55.1472C164.532 53.8125 163.383 53.1451 161.83 53.1451C160.342 53.1451 159.226 53.7796 158.482 55.0487C157.738 56.296 157.366 58.1668 157.366 60.6612C157.366 61.1207 157.377 61.5583 157.399 61.9741C157.443 62.3898 157.486 62.7837 157.53 63.1557ZM180.869 71.3939C178.287 71.3939 176.307 70.4858 174.928 68.6697C173.571 66.8317 172.893 64.1622 172.893 60.6612C172.893 57.1603 173.571 54.5017 174.928 52.6856C176.307 50.8476 178.287 49.9286 180.869 49.9286C183.451 49.9286 185.42 50.8476 186.777 52.6856C188.155 54.5017 188.844 57.1603 188.844 60.6612C188.844 64.1622 188.155 66.8317 186.777 68.6697C185.42 70.4858 183.451 71.3939 180.869 71.3939ZM180.869 68.1773C182.357 68.1773 183.473 67.5537 184.217 66.3065C184.961 65.0374 185.333 63.1557 185.333 60.6612C185.333 60.1798 185.322 59.7422 185.3 59.3484C185.278 58.9326 185.234 58.5388 185.168 58.1668L177.423 66.1752C178.188 67.51 179.337 68.1773 180.869 68.1773ZM176.569 63.1557L184.315 55.1472C183.571 53.8125 182.422 53.1451 180.869 53.1451C179.381 53.1451 178.265 53.7796 177.521 55.0487C176.777 56.296 176.405 58.1668 176.405 60.6612C176.405 61.1207 176.416 61.5583 176.438 61.9741C176.482 62.3898 176.525 62.7837 176.569 63.1557ZM199.908 71.3939C197.326 71.3939 195.346 70.4858 193.967 68.6697C192.611 66.8317 191.932 64.1622 191.932 60.6612C191.932 57.1603 192.611 54.5017 193.967 52.6856C195.346 50.8476 197.326 49.9286 199.908 49.9286C202.49 49.9286 204.459 50.8476 205.816 52.6856C207.194 54.5017 207.883 57.1603 207.883 60.6612C207.883 64.1622 207.194 66.8317 205.816 68.6697C204.459 70.4858 202.49 71.3939 199.908 71.3939ZM199.908 68.1773C201.396 68.1773 202.512 67.5537 203.256 66.3065C204 65.0374 204.372 63.1557 204.372 60.6612C204.372 60.1798 204.361 59.7422 204.339 59.3484C204.317 58.9326 204.273 58.5388 204.207 58.1668L196.462 66.1752C197.227 67.51 198.376 68.1773 199.908 68.1773ZM195.608 63.1557L203.354 55.1472C202.61 53.8125 201.461 53.1451 199.908 53.1451C198.42 53.1451 197.304 53.7796 196.56 55.0487C195.816 56.296 195.444 58.1668 195.444 60.6612C195.444 61.1207 195.455 61.5583 195.477 61.9741C195.521 62.3898 195.564 62.7837 195.608 63.1557ZM236.246 71V52.9153H229.518V49.666H246.454V52.9153H239.725V71H236.246ZM248.13 71L255.154 49.666H258.896L265.92 71H262.276L260.635 65.9127H253.251L251.609 71H248.13ZM254.235 62.6962H259.618L256.927 54.0969L254.235 62.6962ZM269.04 71V49.666H276.72C278.952 49.666 280.637 50.2021 281.775 51.2743C282.935 52.3245 283.515 53.8781 283.515 55.9349C283.515 59.1952 282.07 61.1864 279.182 61.9084L284.532 71H280.462L275.375 62.171H272.552V71H269.04ZM272.552 58.9873H276.425C277.694 58.9873 278.602 58.7466 279.149 58.2652C279.696 57.7839 279.97 57.0071 279.97 55.9349C279.97 54.8409 279.696 54.0641 279.149 53.6046C278.602 53.1232 277.694 52.8825 276.425 52.8825H272.552V58.9873ZM295.267 71.3939C293.604 71.3939 292.16 70.9562 290.935 70.081C289.731 69.1839 288.801 67.9148 288.145 66.2737C287.51 64.6107 287.193 62.6305 287.193 60.333C287.193 56.7445 287.948 54.0094 289.458 52.1276C290.968 50.224 293.156 49.2721 296.022 49.2721C297.226 49.2721 298.32 49.4581 299.304 49.8301C300.289 50.1802 301.23 50.7491 302.127 51.5368L300.322 54.261C299.665 53.6702 298.987 53.2436 298.287 52.981C297.587 52.6965 296.843 52.5543 296.055 52.5543C292.51 52.5543 290.738 55.1472 290.738 60.333C290.738 65.5188 292.466 68.1117 295.924 68.1117C297.171 68.1117 298.265 67.7288 299.206 66.963V61.9741H295.431V58.7576H302.685V71H300.387L300.059 69.4902C299.359 70.1466 298.615 70.628 297.827 70.9344C297.061 71.2407 296.208 71.3939 295.267 71.3939ZM307.808 71V49.666H321.56V52.8825H311.287V58.5278H319.984V61.7443H311.287V67.7835H321.56V71H307.808ZM331.442 71V52.9153H324.713V49.666H341.649V52.9153H334.921V71H331.442ZM9.68144 110.394C8.01848 110.394 6.57433 109.956 5.34899 109.081C4.14554 108.184 3.21559 106.915 2.55916 105.274C1.92461 103.611 1.60734 101.631 1.60734 99.333C1.60734 95.7445 2.36223 93.0094 3.87203 91.1276C5.38182 89.224 7.56992 88.2721 10.4363 88.2721C11.6398 88.2721 12.7338 88.4581 13.7185 88.8301C14.7031 89.1802 15.644 89.7491 16.5411 90.5368L14.736 93.261C14.0795 92.6702 13.4012 92.2436 12.701 91.981C12.0008 91.6965 11.2569 91.5543 10.4692 91.5543C6.92443 91.5543 5.15206 94.1472 5.15206 99.333C5.15206 104.519 6.88067 107.112 10.3379 107.112C11.5851 107.112 12.6791 106.729 13.62 105.963V100.974H9.84554V97.7576H17.0991V110H14.8016L14.4734 108.49C13.7732 109.147 13.0292 109.628 12.2415 109.934C11.4757 110.241 10.6223 110.394 9.68144 110.394ZM22.3859 110V88.666H25.865V106.783H36.171V110H22.3859ZM47.5954 110.394C44.9041 110.394 42.8691 109.464 41.4906 107.604C40.1121 105.722 39.4229 102.965 39.4229 99.333C39.4229 95.6789 40.1121 92.9219 41.4906 91.062C42.8691 89.2021 44.9041 88.2721 47.5954 88.2721C50.2868 88.2721 52.3217 89.2021 53.7002 91.062C55.0787 92.9219 55.768 95.6789 55.768 99.333C55.768 102.965 55.0787 105.722 53.7002 107.604C52.3217 109.464 50.2868 110.394 47.5954 110.394ZM47.5954 107.112C50.6807 107.112 52.2233 104.519 52.2233 99.333C52.2233 94.1472 50.6807 91.5543 47.5954 91.5543C44.5102 91.5543 42.9676 94.1472 42.9676 99.333C42.9676 104.519 44.5102 107.112 47.5954 107.112ZM59.7091 110V88.666H67.2909C69.5447 88.666 71.2076 89.1255 72.2798 90.0445C73.3738 90.9635 73.9209 92.3311 73.9209 94.1472C73.9209 95.3288 73.6802 96.3025 73.1988 97.0683C72.7174 97.8342 71.9625 98.4031 70.9341 98.775V98.8407C73.3191 99.519 74.5116 101.259 74.5116 104.059C74.5116 108.02 72.247 110 67.7176 110H59.7091ZM63.221 106.783H67.4222C68.6475 106.783 69.5447 106.554 70.1136 106.094C70.6825 105.613 70.9669 104.847 70.9669 103.797C70.9669 102.681 70.6496 101.882 70.0151 101.401C69.3805 100.897 68.374 100.646 66.9955 100.646H63.221V106.783ZM63.221 97.4294H66.6017C67.9802 97.4294 68.9539 97.2105 69.5228 96.7729C70.1136 96.3134 70.409 95.5804 70.409 94.5739C70.409 93.6111 70.1464 92.9219 69.6212 92.5061C69.118 92.0904 68.2537 91.8825 67.0283 91.8825H63.221V97.4294ZM76.7789 110L83.8027 88.666H87.5444L94.5682 110H90.925L89.2839 104.913H81.8991L80.258 110H76.7789ZM82.8837 101.696H88.2664L85.5751 93.0969L82.8837 101.696ZM98.5421 110V88.666H102.021V106.783H112.327V110H98.5421ZM135.176 110V88.666H139.41L142.725 100.186L146.04 88.666H150.405V110H147.222V93.5892L143.677 105.799H141.74L138.196 93.5892V110H135.176ZM152.935 110L159.959 88.666H163.701L170.724 110H167.081L165.44 104.913H158.055L156.414 110H152.935ZM159.04 101.696H164.423L161.731 93.0969L159.04 101.696ZM173.845 110V88.666H181.525C183.757 88.666 185.442 89.2021 186.58 90.2743C187.739 91.3245 188.319 92.8781 188.319 94.9349C188.319 98.1952 186.875 100.186 183.987 100.908L189.337 110H185.267L180.18 101.171H177.357V110H173.845ZM177.357 97.9873H181.23C182.499 97.9873 183.407 97.7466 183.954 97.2652C184.501 96.7839 184.775 96.0071 184.775 94.9349C184.775 93.8409 184.501 93.0641 183.954 92.6046C183.407 92.1232 182.499 91.8825 181.23 91.8825H177.357V97.9873ZM192.654 110V88.666H196.133V98.6766L204.24 88.666H208.573L201.549 97.134L208.737 110H204.733L199.153 100.055L196.133 103.665V110H192.654ZM212.612 110V88.666H226.365V91.8825H216.091V97.5278H224.789V100.744H216.091V106.783H226.365V110H212.612ZM236.246 110V91.9153H229.518V88.666H246.454V91.9153H239.725V110H236.246ZM269.007 110V88.666H274.587C277.672 88.666 280.014 89.5741 281.611 91.3902C283.23 93.1844 284.04 95.832 284.04 99.333C284.04 102.834 283.241 105.493 281.644 107.309C280.068 109.103 277.76 110 274.718 110H269.007ZM272.487 106.783H274.39C276.491 106.783 278.033 106.182 279.018 104.978C280.003 103.775 280.495 101.893 280.495 99.333C280.495 96.7729 280.003 94.8912 279.018 93.6877C278.033 92.4842 276.491 91.8825 274.39 91.8825H272.487V106.783ZM295.103 110.394C292.412 110.394 290.377 109.464 288.998 107.604C287.62 105.722 286.931 102.965 286.931 99.333C286.931 95.6789 287.62 92.9219 288.998 91.062C290.377 89.2021 292.412 88.2721 295.103 88.2721C297.794 88.2721 299.829 89.2021 301.208 91.062C302.586 92.9219 303.276 95.6789 303.276 99.333C303.276 102.965 302.586 105.722 301.208 107.604C299.829 109.464 297.794 110.394 295.103 110.394ZM295.103 107.112C298.188 107.112 299.731 104.519 299.731 99.333C299.731 94.1472 298.188 91.5543 295.103 91.5543C292.018 91.5543 290.475 94.1472 290.475 99.333C290.475 104.519 292.018 107.112 295.103 107.112ZM306.528 110V88.666H310.762L314.077 100.186L317.391 88.666H321.757V110H318.573V93.5892L315.028 105.799H313.092L309.547 93.5892V110H306.528ZM326.157 110V106.783H331.442V91.8825H326.157V88.666H340.205V91.8825H334.921V106.783H340.205V110H326.157ZM344.934 110V88.666H348.938L356.356 103.534V88.666H359.507V110H356.159L348.085 93.7533V110H344.934ZM362.365 110L369.388 88.666H373.13L380.154 110H376.511L374.87 104.913H367.485L365.844 110H362.365ZM368.469 101.696H373.852L371.161 93.0969L368.469 101.696ZM383.012 110V88.666H387.016L394.434 103.534V88.666H397.585V110H394.237L386.163 93.7533V110H383.012ZM410.617 110.394C407.751 110.394 405.563 109.453 404.053 107.571C402.543 105.668 401.788 102.921 401.788 99.333C401.788 95.7445 402.543 93.0094 404.053 91.1276C405.563 89.224 407.751 88.2721 410.617 88.2721C411.821 88.2721 412.915 88.4581 413.9 88.8301C414.884 89.1802 415.825 89.7491 416.722 90.5368L414.917 93.261C414.261 92.6702 413.582 92.2436 412.882 91.981C412.182 91.6965 411.438 91.5543 410.65 91.5543C407.106 91.5543 405.333 94.1472 405.333 99.333C405.333 104.519 407.106 107.112 410.65 107.112C411.547 107.112 412.368 106.948 413.112 106.619C413.878 106.269 414.644 105.711 415.409 104.945L417.379 107.506C416.372 108.512 415.333 109.245 414.261 109.705C413.188 110.164 411.974 110.394 410.617 110.394ZM422.042 110V88.666H435.794V91.8825H425.521V97.5278H434.219V100.744H425.521V106.783H435.794V110H422.042Z" fill="#E50914"/>
</g>
<defs>
<filter id="filter0_n_2858_534" x="2.00104" y="128.295" width="434" height="8.99805" filterUnits="userSpaceOnUse" color-interpolation-filters="sRGB">
<feFlood flood-opacity="0" result="BackgroundImageFix"/>
<feBlend mode="normal" in="SourceGraphic" in2="BackgroundImageFix" result="shape"/>
<feTurbulence type="fractalNoise" baseFrequency="2 2" stitchTiles="stitch" numOctaves="3" result="noise" seed="1499" />
<feColorMatrix in="noise" type="luminanceToAlpha" result="alphaNoise" />
<feComponentTransfer in="alphaNoise" result="coloredNoise1">
<feFuncA type="discrete" tableValues="1 1 1 1 1 1 1 1 1 1 1 1 1 1 1 1 1 1 1 1 1 1 1 1 1 1 1 1 1 1 1 1 1 1 1 1 1 1 1 1 1 1 1 1 1 1 1 1 1 1 1 0 0 0 0 0 0 0 0 0 0 0 0 0 0 0 0 0 0 0 0 0 0 0 0 0 0 0 0 0 0 0 0 0 0 0 0 0 0 0 0 0 0 0 0 0 0 0 0 0 "/>
</feComponentTransfer>
<feComposite operator="in" in2="shape" in="coloredNoise1" result="noise1Clipped" />
<feFlood flood-color="rgba(227, 227, 227, 0.25)" result="color1Flood" />
<feComposite operator="in" in2="noise1Clipped" in="color1Flood" result="color1" />
<feMerge result="effect1_noise_2858_534">
<feMergeNode in="shape" />
<feMergeNode in="color1" />
</feMerge>
</filter>
<filter id="filter1_n_2858_534" x="1.60651" y="10.2715" width="434.188" height="100.123" filterUnits="userSpaceOnUse" color-interpolation-filters="sRGB">
<feFlood flood-opacity="0" result="BackgroundImageFix"/>
<feBlend mode="normal" in="SourceGraphic" in2="BackgroundImageFix" result="shape"/>
<feTurbulence type="fractalNoise" baseFrequency="2 2" stitchTiles="stitch" numOctaves="3" result="noise" seed="1499" />
<feColorMatrix in="noise" type="luminanceToAlpha" result="alphaNoise" />
<feComponentTransfer in="alphaNoise" result="coloredNoise1">
<feFuncA type="discrete" tableValues="1 1 1 1 1 1 1 1 1 1 1 1 1 1 1 1 1 1 1 1 1 1 1 1 1 1 1 1 1 1 1 1 1 1 1 1 1 1 1 1 1 1 1 1 1 1 1 1 1 1 1 0 0 0 0 0 0 0 0 0 0 0 0 0 0 0 0 0 0 0 0 0 0 0 0 0 0 0 0 0 0 0 0 0 0 0 0 0 0 0 0 0 0 0 0 0 0 0 0 0 "/>
</feComponentTransfer>
<feComposite operator="in" in2="shape" in="coloredNoise1" result="noise1Clipped" />
<feFlood flood-color="rgba(227, 227, 227, 0.25)" result="color1Flood" />
<feComposite operator="in" in2="noise1Clipped" in="color1Flood" result="color1" />
<feMerge result="effect1_noise_2858_534">
<feMergeNode in="shape" />
<feMergeNode in="color1" />
</feMerge>
</filter>
</defs>
</svg>
