<svg width="495" height="91" viewBox="0 0 495 91" fill="none" xmlns="http://www.w3.org/2000/svg">
<g filter="url(#filter0_n_2858_540)">
<path d="M489 0L489 32.7273L482.455 32.7273L482.455 -2.86111e-07L489 0Z" fill="#E50914"/>
<path d="M436.636 -2.28889e-06L436.636 32.7273L430.091 32.7273L430.091 -2.575e-06L436.636 -2.28889e-06Z" fill="#E50914"/>
<path d="M384.273 32.7273L384.273 -4.57777e-06L377.727 -4.86389e-06L377.727 32.7273L384.273 32.7273Z" fill="#E50914"/>
<path d="M331.909 -6.86666e-06L331.909 32.7273L325.364 32.7273L325.364 -7.15277e-06L331.909 -6.86666e-06Z" fill="#E50914"/>
<path d="M279.545 32.7273L279.545 -9.15555e-06L273 -9.44166e-06L273 32.7273L279.545 32.7273Z" fill="#E50914"/>
<path d="M475.909 13.0909L475.909 32.7273L469.364 32.7273L469.364 13.0909L475.909 13.0909Z" fill="#E50914"/>
<path d="M423.545 32.7273L423.545 13.0909L417 13.0909L417 32.7273L423.545 32.7273Z" fill="#E50914"/>
<path d="M371.182 13.0909L371.182 32.7273L364.636 32.7273L364.636 13.0909L371.182 13.0909Z" fill="#E50914"/>
<path d="M318.818 32.7273L318.818 13.0909L312.273 13.0909L312.273 32.7273L318.818 32.7273Z" fill="#E50914"/>
<path d="M462.818 13.0909L462.818 32.7273L456.273 32.7273L456.273 13.0909L462.818 13.0909Z" fill="#E50914"/>
<path d="M410.455 32.7273L410.455 13.0909L403.909 13.0909L403.909 32.7273L410.455 32.7273Z" fill="#E50914"/>
<path d="M358.091 13.0909L358.091 32.7273L351.545 32.7273L351.545 13.0909L358.091 13.0909Z" fill="#E50914"/>
<path d="M305.727 32.7273L305.727 13.0909L299.182 13.0909L299.182 32.7273L305.727 32.7273Z" fill="#E50914"/>
<path d="M449.727 13.0909L449.727 32.7273L443.182 32.7273L443.182 13.0909L449.727 13.0909Z" fill="#E50914"/>
<path d="M397.364 32.7273L397.364 13.0909L390.818 13.0909L390.818 32.7273L397.364 32.7273Z" fill="#E50914"/>
<path d="M345 13.0909L345 32.7273L338.455 32.7273L338.455 13.0909L345 13.0909Z" fill="#E50914"/>
<path d="M292.636 32.7273L292.636 13.0909L286.091 13.0909L286.091 32.7273L292.636 32.7273Z" fill="#E50914"/>
</g>
<g filter="url(#filter1_n_2858_540)">
<path d="M29.9499 40.7251V68.7293C29.9499 74.8444 27.0777 77.9019 21.3332 77.9019H12.0911C6.34669 77.9019 3.47447 74.8444 3.47447 68.7293V40.7251C3.47447 34.6101 6.34669 31.5525 12.0911 31.5525H21.3332C27.0777 31.5525 29.9499 34.6101 29.9499 40.7251ZM20.2214 69.8412V39.5438C20.2214 39.1732 20.0824 38.8489 19.8045 38.571C19.5728 38.293 19.2717 38.154 18.9011 38.154H14.5233C14.1527 38.154 13.8284 38.293 13.5504 38.571C13.3188 38.8489 13.203 39.1732 13.203 39.5438V69.8412C13.203 70.2118 13.3188 70.5361 13.5504 70.814C13.8284 71.092 14.1527 71.2309 14.5233 71.2309H18.9011C19.2717 71.2309 19.5728 71.092 19.8045 70.814C20.0824 70.5361 20.2214 70.2118 20.2214 69.8412ZM50.9617 32.2474H59.5784L64.7901 66.0887L68.6815 32.2474H78.1321L70.8357 77.207H59.7869L55.2701 49.6198L50.7533 77.207H39.7045L32.4081 32.2474H41.8586L45.75 66.0887L50.9617 32.2474ZM106.486 77.207H96.7574V39.8913C96.7574 39.5206 96.6184 39.1964 96.3404 38.9184C96.1088 38.6404 95.8077 38.5015 95.4371 38.5015H91.6847C91.3141 38.5015 90.9898 38.6404 90.7118 38.9184C90.4802 39.1964 90.3644 39.5206 90.3644 39.8913V77.207H80.6359V40.7251C80.6359 34.6101 83.5081 31.5525 89.2525 31.5525H97.8692C103.614 31.5525 106.486 34.6101 106.486 40.7251V77.207ZM119.956 69.1463H130.727V77.207H110.227V32.2474H130.727V40.1692H119.956V50.7316H130.032V58.3754H119.956V69.1463ZM143.303 58.7924V77.207H133.574V32.2474H150.877C156.622 32.2474 159.494 35.305 159.494 41.42V46.6317C159.494 50.3378 158.173 52.7005 155.533 53.7196C157.849 54.5535 159.007 56.4529 159.007 59.4178V77.207H149.279V60.1821C149.279 59.2556 148.839 58.7924 147.959 58.7924H143.303ZM143.303 38.8489V51.9824H148.445C148.816 51.9824 149.117 51.8434 149.348 51.5655C149.626 51.2875 149.765 50.9632 149.765 50.5926V40.2387C149.765 39.8681 149.626 39.5438 149.348 39.2659C149.117 38.9879 148.816 38.8489 148.445 38.8489H143.303ZM187.907 44.0606H178.665V40.5167C178.665 40.1461 178.526 39.8218 178.248 39.5438C178.017 39.2659 177.716 39.1269 177.345 39.1269H173.523C173.152 39.1269 172.828 39.2659 172.55 39.5438C172.319 39.8218 172.203 40.1461 172.203 40.5167V48.5079C172.203 48.8785 172.319 49.2028 172.55 49.4808C172.828 49.7587 173.152 49.8977 173.523 49.8977H179.777C185.521 49.9904 188.394 53.0479 188.394 59.0703V68.7293C188.394 74.8444 185.521 77.9019 179.777 77.9019H171.577C165.833 77.9019 162.961 74.8444 162.961 68.7293V64.0735H172.203V69.0768C172.203 69.4474 172.319 69.7717 172.55 70.0496C172.828 70.3276 173.152 70.4666 173.523 70.4666H177.831C178.202 70.4666 178.503 70.3276 178.735 70.0496C179.013 69.7717 179.152 69.4474 179.152 69.0768V60.2516C179.152 59.881 179.013 59.5567 178.735 59.2788C178.503 59.0008 178.202 58.8618 177.831 58.8618H171.577C165.833 58.8618 162.961 55.8043 162.961 49.6893V40.7251C162.961 34.6101 165.833 31.5525 171.577 31.5525H179.291C185.035 31.5525 187.907 34.6101 187.907 40.7251V44.0606ZM201.736 59.5567V77.207H192.008V32.2474H201.736V51.079H209.45V32.2474H219.178V77.207H209.45V59.5567H201.736ZM233.091 32.2474V77.207H223.362V32.2474H233.091ZM255.059 32.2474C260.803 32.2474 263.676 35.305 263.676 41.42V50.3841C263.676 56.4992 260.803 59.5567 255.059 59.5567H247.207V77.207H237.478V32.2474H255.059ZM253.947 51.496V40.3082C253.947 39.9376 253.808 39.6133 253.53 39.3353C253.299 39.0574 252.997 38.9184 252.627 38.9184H247.207V52.8858H252.627C252.997 52.8858 253.299 52.7468 253.53 52.4688C253.808 52.1909 253.947 51.8666 253.947 51.496Z" fill="#E50914"/>
</g>
<g filter="url(#filter2_n_2858_540)">
<path d="M272.114 45.1925C272.73 45.2994 273.175 45.3528 273.45 45.3528C273.572 45.3528 273.74 45.2994 273.954 45.1925C274.066 45.1925 274.122 45.246 274.122 45.3528L275.786 45.1925H276.794C280.351 45.1925 282.129 46.4698 282.129 49.0244V49.5282C281.167 51.3092 280.167 52.1998 279.129 52.1998V52.3677C280.727 53.4109 281.951 54.968 282.801 57.0392L283.633 57.2071H284.129L284.297 57.8712L283.801 58.207H282.129C281.92 58.1612 281.31 57.2147 280.297 55.3675C279.351 53.7595 278.236 52.813 276.954 52.528H275.29C275.127 52.528 274.959 52.6959 274.786 53.0318V56.8712C276.231 57.0443 276.954 57.2656 276.954 57.5353V57.8712C276.954 58.0951 276.844 58.207 276.626 58.207H271.954C271.791 58.207 271.623 58.0391 271.45 57.7032V57.5353C271.578 57.2911 272.188 57.0137 273.282 56.7033L273.122 56.0392C273.229 55.7034 273.338 55.5354 273.45 55.5354L273.282 53.8638V50.696C273.282 50.4161 273.394 49.9149 273.618 49.1923C273.506 47.4112 273.285 46.5207 272.954 46.5207C272.715 46.4138 272.214 46.3044 271.45 46.1925V45.6887C271.45 45.5208 271.672 45.3554 272.114 45.1925ZM274.786 47.5283V51.0319C274.959 51.0319 275.183 51.1413 275.458 51.3601H276.954C279.513 51.0548 280.793 50.1668 280.793 48.6961C280.351 48.0244 280.129 47.5792 280.129 47.3604L279.793 47.5283H279.625C279.625 47.0805 279.516 46.8566 279.297 46.8566V47.0245C279.078 46.9125 278.91 46.8566 278.793 46.8566L278.961 46.5207L278.122 46.3604H276.122C275.231 46.3604 274.786 46.7497 274.786 47.5283ZM284.946 45.1925H294.129C294.302 45.1925 294.523 45.4139 294.793 45.8566V48.8564C294.793 49.0804 294.681 49.1923 294.457 49.1923H293.793C293.539 49.1923 293.261 48.2483 292.961 46.3604H289.618C288.061 46.3604 287.282 46.9711 287.282 48.1924V50.3602C287.282 50.523 287.45 50.6909 287.786 50.864H289.618C289.857 50.864 290.081 50.3627 290.29 49.3602H291.122C291.345 49.3959 291.457 49.5078 291.457 49.6961V53.3676C291.457 53.5864 291.345 53.6959 291.122 53.6959H290.954L290.122 53.5356V53.1997L289.954 52.0318C288.173 52.1082 287.282 52.3295 287.282 52.6959V55.7034C287.282 56.2326 287.618 56.6779 288.29 57.0392H288.954C292.18 57.0392 293.793 56.8153 293.793 56.3674C293.793 56.286 293.849 55.9527 293.961 55.3675L293.793 54.3676C293.905 54.1538 293.961 53.9859 293.961 53.8638H294.961C295.185 53.8994 295.297 54.0114 295.297 54.1996V56.5354H295.625V57.2071C295.457 57.8737 294.791 58.207 293.625 58.207H284.946L284.114 58.0391V57.2071C285 57.2071 285.61 56.7058 285.946 55.7034C285.946 55.3319 285.893 55.0545 285.786 54.8714C285.893 53.6501 285.946 52.5916 285.946 51.696V47.6886L285.618 47.1924L285.946 46.6886V46.3604H284.946L284.114 46.1925V45.3528L284.946 45.1925ZM293.457 46.3604C293.681 46.7217 293.793 46.999 293.793 47.1924H293.961V47.0245C293.793 46.5818 293.625 46.3604 293.457 46.3604ZM301.297 45.0246H302.793C304.106 45.0246 305.442 45.9126 306.801 47.6886C307.579 49.3017 307.968 50.8614 307.968 52.3677C307.968 55.0647 306.523 57.0672 303.633 58.375C302.712 58.375 302.043 58.6523 301.625 59.207L301.961 59.039H302.297C302.882 59.039 303.938 59.2604 305.465 59.7031C305.597 59.7031 306.098 59.4258 306.969 58.8711C307.635 59.1001 307.968 59.324 307.968 59.5428C307.968 60.0975 307.078 60.5428 305.297 60.8786C303.75 60.4308 302.417 60.1509 301.297 60.039C300.534 60.4868 299.865 60.7107 299.29 60.7107H298.458C298.458 60.5886 298.402 60.4206 298.29 60.2069C298.463 59.637 299.02 59.1357 299.961 58.7032C300.185 58.7032 300.297 58.5938 300.297 58.375C299.849 58.2427 299.068 57.6295 297.954 56.5354C297.216 56.5354 296.605 54.9222 296.122 51.696C296.122 48.9786 297.234 46.9762 299.458 45.6887C300.684 45.4953 301.297 45.274 301.297 45.0246ZM297.626 51.696C297.626 54.0419 298.682 55.8789 300.793 57.2071C301.007 57.2071 301.396 57.3165 301.961 57.5353C303.132 57.4234 304.244 56.8127 305.297 55.7034C305.633 55.7034 305.857 55.2581 305.969 54.3676C305.857 54.1538 305.801 53.9859 305.801 53.8638C305.801 53.533 305.969 53.3676 306.304 53.3676V53.0318C306.304 48.9608 305.19 46.681 302.961 46.1925C302.778 46.0805 302.501 46.0246 302.129 46.0246C299.956 46.0246 298.455 47.7496 297.626 51.1998V51.696ZM309.396 44.8567L309.9 45.1925H310.564L312.068 44.8567C313.071 44.8567 313.572 45.134 313.572 45.6887C313.373 45.8821 312.704 46.05 311.564 46.1925C311.345 46.5996 311.236 47.0448 311.236 47.5283V50.0319C311.236 50.5561 311.18 51.1108 311.068 51.696C311.068 54.276 311.847 56.057 313.404 57.0392C313.959 57.0392 314.236 57.0951 314.236 57.2071C316.246 57.2071 317.414 55.8713 317.739 53.1997V47.1924C317.739 46.3019 316.961 45.8566 315.404 45.8566V45.3528C315.516 45.0221 315.849 44.8567 316.404 44.8567H316.572C317.218 44.8567 318.108 44.9127 319.243 45.0246L319.579 44.8567C320.246 44.9686 320.579 45.246 320.579 45.6887C319.734 45.9991 319.233 46.3884 319.075 46.8566V48.5282C319.075 49.1643 319.019 49.5536 318.907 49.6961C319.019 50.2966 319.075 50.7978 319.075 51.1998V54.1996C318.419 56.8712 317.083 58.207 315.068 58.207H313.9C311.88 58.207 310.491 56.7593 309.732 53.8638V53.3676C309.732 52.3753 309.788 51.7061 309.9 51.3601C309.788 50.3932 309.732 49.5587 309.732 48.8564V46.0246H309.229L308.397 45.8566V45.3528C308.508 45.0221 308.842 44.8567 309.396 44.8567ZM312.068 55.0316C312.226 55.0316 312.559 55.3675 313.068 56.0392H312.9C312.753 56.0392 312.475 55.7593 312.068 55.1996V55.0316ZM321.228 45.1925C321.941 45.4114 322.33 45.5208 322.396 45.5208C322.763 45.302 323.099 45.1925 323.404 45.1925H328.075C328.895 45.1925 329.34 45.3579 329.411 45.6887V46.1925L328.572 46.3604H326.404C326.124 46.5792 325.846 46.6886 325.572 46.6886L325.74 47.8565C325.74 47.9685 325.684 48.0244 325.572 48.0244C325.572 48.1364 325.628 48.1924 325.74 48.1924C325.74 48.3094 325.684 48.4773 325.572 48.6961C325.684 49.8309 325.74 50.7189 325.74 51.3601V51.528C325.74 52.1183 325.684 52.6196 325.572 53.0318C325.684 53.617 325.74 54.1742 325.74 54.7034V55.3675L325.572 56.3674C325.74 56.8153 325.905 57.0392 326.068 57.0392L326.907 56.8712C326.907 57.0392 327.129 57.2045 327.572 57.3674C328.03 57.1486 328.363 57.0392 328.572 57.0392C329.131 57.1816 329.411 57.347 329.411 57.5353V58.0391L328.572 58.207H326.572C325.763 58.207 324.539 58.0951 322.9 57.8712C322.534 58.0951 322.2 58.207 321.9 58.207H320.9C320.737 58.207 320.569 58.0391 320.396 57.7032C320.396 57.3114 321.007 57.0341 322.228 56.8712L323.404 57.0392L324.236 56.8712V54.8714L323.9 55.0316V54.5355C324.124 54.2607 324.236 54.0368 324.236 53.8638C324.236 53.1056 324.292 52.4389 324.404 51.8639C324.404 48.1949 324.071 46.3604 323.404 46.3604H320.9C320.737 46.3604 320.569 46.1925 320.396 45.8566C320.508 45.4139 320.786 45.1925 321.228 45.1925ZM330.083 45.1925C330.699 45.2994 331.144 45.3528 331.419 45.3528C331.541 45.3528 331.709 45.2994 331.923 45.1925C332.035 45.1925 332.091 45.246 332.091 45.3528L333.755 45.1925H334.763C338.32 45.1925 340.098 46.4698 340.098 49.0244V49.5282C339.136 51.3092 338.136 52.1998 337.098 52.1998V52.3677C338.696 53.4109 339.92 54.968 340.77 57.0392L341.602 57.2071H342.098L342.266 57.8712L341.77 58.207H340.098C339.89 58.1612 339.279 57.2147 338.266 55.3675C337.32 53.7595 336.205 52.813 334.923 52.528H333.259C333.096 52.528 332.928 52.6959 332.755 53.0318V56.8712C334.2 57.0443 334.923 57.2656 334.923 57.5353V57.8712C334.923 58.0951 334.813 58.207 334.595 58.207H329.923C329.76 58.207 329.592 58.0391 329.419 57.7032V57.5353C329.547 57.2911 330.157 57.0137 331.251 56.7033L331.091 56.0392C331.198 55.7034 331.307 55.5354 331.419 55.5354L331.251 53.8638V50.696C331.251 50.4161 331.363 49.9149 331.587 49.1923C331.475 47.4112 331.254 46.5207 330.923 46.5207C330.684 46.4138 330.183 46.3044 329.419 46.1925V45.6887C329.419 45.5208 329.641 45.3554 330.083 45.1925ZM332.755 47.5283V51.0319C332.928 51.0319 333.152 51.1413 333.427 51.3601H334.923C337.483 51.0548 338.762 50.1668 338.762 48.6961C338.32 48.0244 338.098 47.5792 338.098 47.3604L337.762 47.5283H337.594C337.594 47.0805 337.485 46.8566 337.266 46.8566V47.0245C337.047 46.9125 336.88 46.8566 336.762 46.8566L336.93 46.5207L336.091 46.3604H334.091C333.2 46.3604 332.755 46.7497 332.755 47.5283ZM342.915 45.1925H352.098C352.271 45.1925 352.492 45.4139 352.762 45.8566V48.8564C352.762 49.0804 352.65 49.1923 352.426 49.1923H351.762C351.508 49.1923 351.23 48.2483 350.93 46.3604H347.587C346.03 46.3604 345.251 46.9711 345.251 48.1924V50.3602C345.251 50.523 345.419 50.6909 345.755 50.864H347.587C347.826 50.864 348.05 50.3627 348.259 49.3602H349.091C349.315 49.3959 349.426 49.5078 349.426 49.6961V53.3676C349.426 53.5864 349.315 53.6959 349.091 53.6959H348.923L348.091 53.5356V53.1997L347.923 52.0318C346.142 52.1082 345.251 52.3295 345.251 52.6959V55.7034C345.251 56.2326 345.587 56.6779 346.259 57.0392H346.923C350.149 57.0392 351.762 56.8153 351.762 56.3674C351.762 56.286 351.818 55.9527 351.93 55.3675L351.762 54.3676C351.874 54.1538 351.93 53.9859 351.93 53.8638H352.93C353.154 53.8994 353.266 54.0114 353.266 54.1996V56.5354H353.594V57.2071C353.426 57.8737 352.76 58.207 351.594 58.207H342.915L342.083 58.0391V57.2071C342.969 57.2071 343.579 56.7058 343.915 55.7034C343.915 55.3319 343.862 55.0545 343.755 54.8714C343.862 53.6501 343.915 52.5916 343.915 51.696V47.6886L343.587 47.1924L343.915 46.6886V46.3604H342.915L342.083 46.1925V45.3528L342.915 45.1925ZM351.426 46.3604C351.65 46.7217 351.762 46.999 351.762 47.1924H351.93V47.0245C351.762 46.5818 351.594 46.3604 351.426 46.3604ZM355.404 45.1925H356.74L357.404 45.6887L358.243 45.1925H358.907C362.475 45.1925 364.645 46.7497 365.418 49.864V52.6959C365.418 55.3115 363.971 57.1486 361.075 58.207H355.068L354.236 58.0391V57.2071C355.152 57.2071 355.653 56.0927 355.74 53.8638C355.628 52.9224 355.572 52.1438 355.572 51.528V47.1924C355.083 46.5258 354.638 46.1925 354.236 46.1925V45.3528L355.404 45.1925ZM358.572 46.3604C358.572 46.5792 358.462 46.6886 358.243 46.6886L357.404 46.5207L357.075 47.0245V48.0244C357.075 48.4722 356.964 49.1948 356.74 50.1922L356.908 51.1998C356.796 51.1998 356.74 51.2532 356.74 51.3601C356.928 51.3601 357.149 52.1947 357.404 53.8638H357.243C357.243 55.1156 357.798 55.9502 358.907 56.3674L361.075 56.8712C361.411 56.8712 362.136 56.314 363.251 55.1996H363.747L363.579 54.8714C363.579 54.7238 363.691 54.1106 363.915 53.0318V50.3602C363.915 49.373 363.358 48.317 362.243 47.1924L361.075 46.5207C360.963 46.5207 360.907 46.5767 360.907 46.6886C360.638 46.6886 359.859 46.5792 358.572 46.3604ZM372.442 45.1925H381.625C381.798 45.1925 382.019 45.4139 382.289 45.8566V48.8564C382.289 49.0804 382.177 49.1923 381.953 49.1923H381.289C381.035 49.1923 380.757 48.2483 380.457 46.3604H377.114C375.557 46.3604 374.778 46.9711 374.778 48.1924V50.3602C374.778 50.523 374.946 50.6909 375.282 50.864H377.114C377.353 50.864 377.577 50.3627 377.785 49.3602H378.617C378.841 49.3959 378.953 49.5078 378.953 49.6961V53.3676C378.953 53.5864 378.841 53.6959 378.617 53.6959H378.449L377.617 53.5356V53.1997L377.45 52.0318C375.668 52.1082 374.778 52.3295 374.778 52.6959V55.7034C374.778 56.2326 375.114 56.6779 375.785 57.0392H376.45C379.676 57.0392 381.289 56.8153 381.289 56.3674C381.289 56.286 381.345 55.9527 381.457 55.3675L381.289 54.3676C381.401 54.1538 381.457 53.9859 381.457 53.8638H382.457C382.681 53.8994 382.793 54.0114 382.793 54.1996V56.5354H383.121V57.2071C382.953 57.8737 382.286 58.207 381.121 58.207H372.442L371.61 58.0391V57.2071C372.496 57.2071 373.106 56.7058 373.442 55.7034C373.442 55.3319 373.389 55.0545 373.282 54.8714C373.389 53.6501 373.442 52.5916 373.442 51.696V47.6886L373.114 47.1924L373.442 46.6886V46.3604H372.442L371.61 46.1925V45.3528L372.442 45.1925ZM380.953 46.3604C381.177 46.7217 381.289 46.999 381.289 47.1924H381.457V47.0245C381.289 46.5818 381.121 46.3604 380.953 46.3604ZM392.304 45.0246C392.711 45.2434 393.157 45.3528 393.64 45.3528H395.64C395.864 45.3885 395.976 45.5004 395.976 45.6887V46.0246C395.976 46.2485 395.864 46.3604 395.64 46.3604H394.808C394.696 47.3476 394.584 47.9583 394.472 48.1924C394.584 49.7597 394.64 51.0955 394.64 52.1998V57.7032C394.64 57.8661 394.472 58.034 394.136 58.207H393.968C392.996 58.207 391.716 56.5939 390.129 53.3676C387.961 49.6935 386.793 47.8565 386.625 47.8565V51.8639C386.625 52.327 386.681 52.9376 386.793 53.6959C386.681 53.8078 386.625 54.2531 386.625 55.0316V55.3675H386.961L386.793 55.7034C386.793 56.5939 387.126 57.0392 387.793 57.0392C388.505 57.0392 388.895 57.2045 388.961 57.5353V58.0391L388.129 58.207H384.289C384.132 58.207 383.966 58.0391 383.793 57.7032V57.5353C383.793 57.2809 384.071 57.1155 384.625 57.0392C384.839 57.1511 385.007 57.2071 385.129 57.2071C385.348 56.8 385.457 56.3547 385.457 55.8713C385.457 55.6169 385.401 55.393 385.289 55.1996C385.289 55.0876 385.345 55.0316 385.457 55.0316L385.289 53.3676V52.1998C385.289 51.4212 385.236 50.1973 385.129 48.5282H385.289C385.142 47.083 384.752 46.3604 384.121 46.3604L383.457 46.1925V45.3528C383.681 45.3528 383.793 45.2994 383.793 45.1925L385.457 45.3528H386.793C387.236 45.5309 388.126 47.0347 389.465 49.864C391.459 52.8562 392.571 54.4134 392.8 54.5355H392.968L393.136 53.3676V46.6886C391.579 46.3986 390.8 46.1212 390.8 45.8566V45.6887C390.8 45.4546 391.302 45.2333 392.304 45.0246ZM397.724 45.1925H399.06L399.724 45.6887L400.564 45.1925H401.228C404.795 45.1925 406.966 46.7497 407.739 49.864V52.6959C407.739 55.3115 406.291 57.1486 403.396 58.207H397.388L396.556 58.0391V57.2071C397.472 57.2071 397.974 56.0927 398.06 53.8638C397.948 52.9224 397.892 52.1438 397.892 51.528V47.1924C397.404 46.5258 396.958 46.1925 396.556 46.1925V45.3528L397.724 45.1925ZM400.892 46.3604C400.892 46.5792 400.783 46.6886 400.564 46.6886L399.724 46.5207L399.396 47.0245V48.0244C399.396 48.4722 399.284 49.1948 399.06 50.1922L399.228 51.1998C399.116 51.1998 399.06 51.2532 399.06 51.3601C399.248 51.3601 399.47 52.1947 399.724 53.8638H399.564C399.564 55.1156 400.119 55.9502 401.228 56.3674L403.396 56.8712C403.732 56.8712 404.457 56.314 405.571 55.1996H406.067L405.899 54.8714C405.899 54.7238 406.011 54.1106 406.235 53.0318V50.3602C406.235 49.373 405.678 48.317 404.564 47.1924L403.396 46.5207C403.284 46.5207 403.228 46.5767 403.228 46.6886C402.958 46.6886 402.18 46.5792 400.892 46.3604ZM412.739 50.1922L414.403 50.3602H417.747C418.413 50.4314 418.747 50.5993 418.747 50.864V51.1998C418.523 51.4695 418.411 51.6909 418.411 51.8639H412.739C412.159 51.8639 411.658 52.0318 411.236 52.3677H410.9C410.544 52.0624 409.877 51.8385 408.9 51.696V51.1998L409.068 50.3602H410.732C411.526 50.5841 411.971 50.696 412.068 50.696C412.068 50.5841 412.292 50.4161 412.739 50.1922ZM421.449 45.1925C421.561 45.1925 421.617 45.246 421.617 45.3528L422.457 45.1925H426.625C429.184 45.1925 430.464 45.3579 430.464 45.6887C430.464 45.9686 430.408 46.4138 430.296 47.0245C430.408 47.8794 430.464 48.8259 430.464 49.864C430.24 49.8946 430.128 50.004 430.128 50.1922L429.128 50.0319L429.296 48.8564V48.6961L428.96 48.1924V46.8566C428.584 46.8566 428.138 46.6912 427.625 46.3604H426.96C426.711 46.3604 426.322 47.2484 425.793 49.0244V52.6959L426.128 52.528H426.289V53.3676C426.289 53.5864 426.179 53.6959 425.961 53.6959V52.8638H425.793V56.5354L428.632 57.3674C428.739 57.3674 428.792 57.4234 428.792 57.5353V57.7032C428.792 57.8661 428.627 58.034 428.296 58.207H427.296C426.894 58.207 426.393 58.1511 425.793 58.0391L425.457 58.207C424.872 58.0951 424.538 58.0391 424.457 58.0391C423.149 58.1511 422.202 58.207 421.617 58.207L421.289 57.7032C421.289 57.2605 422.233 56.9832 424.121 56.8712L424.289 56.5354V47.8565C424.146 46.8591 423.645 46.3604 422.785 46.3604H421.449L421.121 47.5283V49.6961L420.785 50.1922C420.007 50.1922 419.617 49.8589 419.617 49.1923V46.0246C419.617 45.6378 420.228 45.3605 421.449 45.1925ZM435.64 44.8567H437.144C439.22 44.8567 440.833 46.3579 441.983 49.3602C442.202 50.2508 442.311 50.9734 442.311 51.528C442.062 54.0877 441.673 55.3675 441.143 55.3675C440.304 57.3725 438.803 58.375 436.64 58.375H436.304C434.879 58.375 433.655 57.8177 432.632 56.7033C431.299 55.5482 430.633 54.047 430.633 52.1998V51.3601C430.633 48.5308 431.912 46.4189 434.472 45.0246L435.64 44.8567ZM431.968 51.3601C432.055 53.3091 432.388 54.3676 432.968 54.5355C432.968 55.7721 434.08 56.716 436.304 57.3674C438.497 57.3674 439.945 55.8102 440.647 52.6959V51.0319C440.189 47.5817 438.797 45.8566 436.472 45.8566C434.691 45.8566 433.302 47.0805 432.304 49.5282C432.08 50.4747 431.968 51.0853 431.968 51.3601ZM447.289 50.1922L448.953 50.3602H452.296C452.963 50.4314 453.296 50.5993 453.296 50.864V51.1998C453.072 51.4695 452.96 51.6909 452.96 51.8639H447.289C446.709 51.8639 446.207 52.0318 445.785 52.3677H445.449C445.093 52.0624 444.426 51.8385 443.449 51.696V51.1998L443.617 50.3602H445.281C446.075 50.5841 446.52 50.696 446.617 50.696C446.617 50.5841 446.841 50.4161 447.289 50.1922ZM454.9 45.1925H464.082C464.255 45.1925 464.477 45.4139 464.746 45.8566V48.8564C464.746 49.0804 464.634 49.1923 464.41 49.1923H463.746C463.492 49.1923 463.215 48.2483 462.914 46.3604H459.571C458.014 46.3604 457.235 46.9711 457.235 48.1924V50.3602C457.235 50.523 457.403 50.6909 457.739 50.864H459.571C459.81 50.864 460.034 50.3627 460.243 49.3602H461.075C461.299 49.3959 461.411 49.5078 461.411 49.6961V53.3676C461.411 53.5864 461.299 53.6959 461.075 53.6959H460.907L460.075 53.5356V53.1997L459.907 52.0318C458.126 52.1082 457.235 52.3295 457.235 52.6959V55.7034C457.235 56.2326 457.571 56.6779 458.243 57.0392H458.907C462.133 57.0392 463.746 56.8153 463.746 56.3674C463.746 56.286 463.802 55.9527 463.914 55.3675L463.746 54.3676C463.858 54.1538 463.914 53.9859 463.914 53.8638H464.914C465.138 53.8994 465.25 54.0114 465.25 54.1996V56.5354H465.578V57.2071C465.41 57.8737 464.744 58.207 463.578 58.207H454.9L454.068 58.0391V57.2071C454.953 57.2071 455.564 56.7058 455.899 55.7034C455.899 55.3319 455.846 55.0545 455.739 54.8714C455.846 53.6501 455.899 52.5916 455.899 51.696V47.6886L455.571 47.1924L455.899 46.6886V46.3604H454.9L454.068 46.1925V45.3528L454.9 45.1925ZM463.41 46.3604C463.634 46.7217 463.746 46.999 463.746 47.1924H463.914V47.0245C463.746 46.5818 463.578 46.3604 463.41 46.3604ZM474.762 45.0246C475.169 45.2434 475.614 45.3528 476.097 45.3528H478.097C478.321 45.3885 478.433 45.5004 478.433 45.6887V46.0246C478.433 46.2485 478.321 46.3604 478.097 46.3604H477.265C477.153 47.3476 477.041 47.9583 476.929 48.1924C477.041 49.7597 477.097 51.0955 477.097 52.1998V57.7032C477.097 57.8661 476.929 58.034 476.594 58.207H476.426C475.454 58.207 474.174 56.5939 472.586 53.3676C470.418 49.6935 469.25 47.8565 469.083 47.8565V51.8639C469.083 52.327 469.138 52.9376 469.25 53.6959C469.138 53.8078 469.083 54.2531 469.083 55.0316V55.3675H469.418L469.25 55.7034C469.25 56.5939 469.584 57.0392 470.25 57.0392C470.963 57.0392 471.352 57.2045 471.418 57.5353V58.0391L470.586 58.207H466.747C466.589 58.207 466.424 58.0391 466.251 57.7032V57.5353C466.251 57.2809 466.528 57.1155 467.083 57.0392C467.296 57.1511 467.464 57.2071 467.586 57.2071C467.805 56.8 467.915 56.3547 467.915 55.8713C467.915 55.6169 467.859 55.393 467.747 55.1996C467.747 55.0876 467.803 55.0316 467.915 55.0316L467.747 53.3676V52.1998C467.747 51.4212 467.693 50.1973 467.586 48.5282H467.747C467.599 47.083 467.21 46.3604 466.579 46.3604L465.915 46.1925V45.3528C466.139 45.3528 466.251 45.2994 466.251 45.1925L467.915 45.3528H469.25C469.693 45.5309 470.584 47.0347 471.922 49.864C473.917 52.8562 475.029 54.4134 475.258 54.5355H475.426L475.594 53.3676V46.6886C474.036 46.3986 473.258 46.1212 473.258 45.8566V45.6887C473.258 45.4546 473.759 45.2333 474.762 45.0246ZM480.182 45.1925H481.517L482.182 45.6887L483.021 45.1925H483.685C487.253 45.1925 489.423 46.7497 490.196 49.864V52.6959C490.196 55.3115 488.749 57.1486 485.853 58.207H479.846L479.014 58.0391V57.2071C479.93 57.2071 480.431 56.0927 480.518 53.8638C480.406 52.9224 480.35 52.1438 480.35 51.528V47.1924C479.861 46.5258 479.416 46.1925 479.014 46.1925V45.3528L480.182 45.1925ZM483.349 46.3604C483.349 46.5792 483.24 46.6886 483.021 46.6886L482.182 46.5207L481.853 47.0245V48.0244C481.853 48.4722 481.741 49.1948 481.517 50.1922L481.685 51.1998C481.573 51.1998 481.517 51.2532 481.517 51.3601C481.706 51.3601 481.927 52.1947 482.182 53.8638H482.021C482.021 55.1156 482.576 55.9502 483.685 56.3674L485.853 56.8712C486.189 56.8712 486.914 56.314 488.029 55.1996H488.525L488.357 54.8714C488.357 54.7238 488.469 54.1106 488.693 53.0318V50.3602C488.693 49.373 488.135 48.317 487.021 47.1924L485.853 46.5207C485.741 46.5207 485.685 46.5767 485.685 46.6886C485.415 46.6886 484.637 46.5792 483.349 46.3604ZM272.114 64.1925C272.73 64.2994 273.175 64.3528 273.45 64.3528C273.572 64.3528 273.74 64.2994 273.954 64.1925C274.066 64.1925 274.122 64.246 274.122 64.3528L275.786 64.1925H276.794C280.351 64.1925 282.129 65.4698 282.129 68.0244V68.5282C281.167 70.3092 280.167 71.1998 279.129 71.1998V71.3677C280.727 72.4109 281.951 73.968 282.801 76.0392L283.633 76.2071H284.129L284.297 76.8712L283.801 77.207H282.129C281.92 77.1612 281.31 76.2147 280.297 74.3675C279.351 72.7595 278.236 71.813 276.954 71.528H275.29C275.127 71.528 274.959 71.6959 274.786 72.0318V75.8712C276.231 76.0443 276.954 76.2656 276.954 76.5353V76.8712C276.954 77.0951 276.844 77.207 276.626 77.207H271.954C271.791 77.207 271.623 77.0391 271.45 76.7032V76.5353C271.578 76.2911 272.188 76.0137 273.282 75.7033L273.122 75.0392C273.229 74.7034 273.338 74.5354 273.45 74.5354L273.282 72.8638V69.696C273.282 69.4161 273.394 68.9149 273.618 68.1923C273.506 66.4112 273.285 65.5207 272.954 65.5207C272.715 65.4138 272.214 65.3044 271.45 65.1925V64.6887C271.45 64.5208 271.672 64.3554 272.114 64.1925ZM274.786 66.5283V70.0319C274.959 70.0319 275.183 70.1413 275.458 70.3601H276.954C279.513 70.0548 280.793 69.1668 280.793 67.6961C280.351 67.0244 280.129 66.5792 280.129 66.3604L279.793 66.5283H279.625C279.625 66.0805 279.516 65.8566 279.297 65.8566V66.0245C279.078 65.9125 278.91 65.8566 278.793 65.8566L278.961 65.5207L278.122 65.3604H276.122C275.231 65.3604 274.786 65.7497 274.786 66.5283ZM284.946 64.1925H294.129C294.302 64.1925 294.523 64.4139 294.793 64.8566V67.8564C294.793 68.0804 294.681 68.1923 294.457 68.1923H293.793C293.539 68.1923 293.261 67.2483 292.961 65.3604H289.618C288.061 65.3604 287.282 65.9711 287.282 67.1924V69.3602C287.282 69.523 287.45 69.6909 287.786 69.864H289.618C289.857 69.864 290.081 69.3627 290.29 68.3602H291.122C291.345 68.3959 291.457 68.5078 291.457 68.6961V72.3676C291.457 72.5864 291.345 72.6959 291.122 72.6959H290.954L290.122 72.5356V72.1997L289.954 71.0318C288.173 71.1082 287.282 71.3295 287.282 71.6959V74.7034C287.282 75.2326 287.618 75.6779 288.29 76.0392H288.954C292.18 76.0392 293.793 75.8153 293.793 75.3674C293.793 75.286 293.849 74.9527 293.961 74.3675L293.793 73.3676C293.905 73.1538 293.961 72.9859 293.961 72.8638H294.961C295.185 72.8994 295.297 73.0114 295.297 73.1996V75.5354H295.625V76.2071C295.457 76.8737 294.791 77.207 293.625 77.207H284.946L284.114 77.0391V76.2071C285 76.2071 285.61 75.7058 285.946 74.7034C285.946 74.3319 285.893 74.0545 285.786 73.8714C285.893 72.6501 285.946 71.5916 285.946 70.696V66.6886L285.618 66.1924L285.946 65.6886V65.3604H284.946L284.114 65.1925V64.3528L284.946 64.1925ZM293.457 65.3604C293.681 65.7217 293.793 65.999 293.793 66.1924H293.961V66.0245C293.793 65.5818 293.625 65.3604 293.457 65.3604ZM300.335 64.0246H301.999C302.778 64.0551 303.167 64.1646 303.167 64.3528L303.503 64.1925L304.503 64.3528L304.839 64.1925C305.394 64.335 305.671 64.5004 305.671 64.6887C305.559 65.4825 305.503 65.9278 305.503 66.0245L305.671 67.6961L305.175 68.0244C304.473 68.0244 304.027 67.3577 303.839 66.0245C303.839 65.653 303.004 65.3197 301.335 65.0246C299.33 65.0246 298.328 65.9151 298.328 67.6961C298.216 67.6961 298.16 67.7496 298.16 67.8564C298.16 68.8996 299.664 69.6808 302.671 70.1998C302.824 70.3627 303.714 70.7519 305.343 71.3677C305.897 72.131 306.175 72.8536 306.175 73.5355V73.8714C306.175 75.7898 304.839 77.0111 302.167 77.5353H300.999C299.768 77.5353 298.821 77.2579 298.16 76.7032L297.328 77.207H296.664C296.44 77.207 296.328 77.0951 296.328 76.8712L296.496 75.1995C296.384 74.4413 296.328 73.8306 296.328 73.3676C296.384 73.3676 296.605 73.3116 296.992 73.1996C297.369 73.1996 297.758 73.8663 298.16 75.1995C299.127 76.09 300.241 76.5353 301.503 76.5353C303.391 76.5353 304.447 75.3674 304.671 73.0317C304.559 72.818 304.503 72.6526 304.503 72.5356L304.175 72.6959V72.5356L304.335 72.1997C303.862 71.645 302.195 71.1438 299.335 70.696C299.335 70.5026 298.722 70.2253 297.496 69.864C296.941 68.8971 296.664 68.1185 296.664 67.5282C296.664 65.6759 297.888 64.508 300.335 64.0246ZM299.335 66.0245H299.496V66.1924C299.277 66.4621 299.167 66.6835 299.167 66.8565H298.832V66.6886C299 66.2459 299.167 66.0245 299.335 66.0245ZM307.358 64.1925C307.608 64.1925 307.832 64.246 308.03 64.3528C309.597 64.246 310.931 64.1925 312.03 64.1925C314.691 64.1925 316.472 65.1365 317.373 67.0244V68.6961C316.93 70.9199 315.096 72.0318 311.87 72.0318H310.366C310.366 72.2048 310.254 72.4261 310.03 72.6959V75.7033C310.203 75.7033 310.427 75.8153 310.702 76.0392H312.366C313.185 76.0392 313.63 76.2045 313.702 76.5353V76.8712C313.702 77.0951 313.59 77.207 313.366 77.207H307.03C306.694 77.0951 306.526 76.7618 306.526 76.2071L307.03 75.8712L307.358 76.0392L308.526 75.5354V74.5354C308.526 73.8993 308.47 73.5101 308.358 73.3676C308.582 71.7799 308.694 69.7215 308.694 67.1924C308.694 65.9711 308.305 65.3604 307.526 65.3604C306.972 65.3604 306.694 65.1925 306.694 64.8566V64.6887C306.694 64.5208 306.916 64.3554 307.358 64.1925ZM310.03 68.0244V70.528L311.198 70.8639C314.2 70.8639 315.701 70.3627 315.701 69.3602C315.813 69.3602 315.925 68.8589 316.037 67.8564C315.559 66.2993 314.668 65.5207 313.366 65.5207C312.954 65.4138 312.455 65.3604 311.87 65.3604H310.862C310.379 65.3604 310.101 66.2484 310.03 68.0244ZM322.48 63.8567H323.984C326.06 63.8567 327.673 65.3579 328.823 68.3602C329.042 69.2508 329.152 69.9734 329.152 70.528C328.902 73.0877 328.513 74.3675 327.984 74.3675C327.144 76.3725 325.643 77.375 323.48 77.375H323.144C321.72 77.375 320.496 76.8177 319.473 75.7033C318.14 74.5482 317.473 73.047 317.473 71.1998V70.3601C317.473 67.5308 318.753 65.4189 321.312 64.0246L322.48 63.8567ZM318.809 70.3601C318.895 72.3091 319.229 73.3676 319.809 73.5355C319.809 74.7721 320.921 75.716 323.144 76.3674C325.338 76.3674 326.785 74.8102 327.488 71.6959V70.0319C327.03 66.5817 325.638 64.8566 323.312 64.8566C321.531 64.8566 320.142 66.0805 319.145 68.5282C318.921 69.4747 318.809 70.0853 318.809 70.3601ZM338.411 64.0246C338.818 64.2434 339.264 64.3528 339.747 64.3528H341.747C341.971 64.3885 342.083 64.5004 342.083 64.6887V65.0246C342.083 65.2485 341.971 65.3604 341.747 65.3604H340.915C340.803 66.3476 340.691 66.9583 340.579 67.1924C340.691 68.7597 340.747 70.0955 340.747 71.1998V76.7032C340.747 76.8661 340.579 77.034 340.243 77.207H340.075C339.103 77.207 337.823 75.5939 336.236 72.3676C334.068 68.6935 332.9 66.8565 332.732 66.8565V70.8639C332.732 71.327 332.788 71.9376 332.9 72.6959C332.788 72.8078 332.732 73.2531 332.732 74.0316V74.3675H333.068L332.9 74.7034C332.9 75.5939 333.233 76.0392 333.9 76.0392C334.612 76.0392 335.002 76.2045 335.068 76.5353V77.0391L334.236 77.207H330.396C330.239 77.207 330.073 77.0391 329.9 76.7032V76.5353C329.9 76.2809 330.178 76.1155 330.732 76.0392C330.946 76.1511 331.114 76.2071 331.236 76.2071C331.455 75.8 331.564 75.3547 331.564 74.8713C331.564 74.6169 331.508 74.393 331.396 74.1996C331.396 74.0876 331.452 74.0316 331.564 74.0316L331.396 72.3676V71.1998C331.396 70.4212 331.343 69.1973 331.236 67.5282H331.396C331.249 66.083 330.86 65.3604 330.229 65.3604L329.564 65.1925V64.3528C329.788 64.3528 329.9 64.2994 329.9 64.1925L331.564 64.3528H332.9C333.343 64.5309 334.233 66.0347 335.572 68.864C337.567 71.8562 338.678 73.4134 338.907 73.5355H339.075L339.243 72.3676V65.6886C337.686 65.3986 336.908 65.1212 336.908 64.8566V64.6887C336.908 64.4546 337.409 64.2333 338.411 64.0246ZM346.732 64.0246H348.396C349.175 64.0551 349.564 64.1646 349.564 64.3528L349.9 64.1925L350.9 64.3528L351.236 64.1925C351.79 64.335 352.068 64.5004 352.068 64.6887C351.956 65.4825 351.9 65.9278 351.9 66.0245L352.068 67.6961L351.571 68.0244C350.869 68.0244 350.424 67.3577 350.236 66.0245C350.236 65.653 349.401 65.3197 347.732 65.0246C345.727 65.0246 344.724 65.9151 344.724 67.6961C344.612 67.6961 344.557 67.7496 344.557 67.8564C344.557 68.8996 346.06 69.6808 349.068 70.1998C349.22 70.3627 350.111 70.7519 351.739 71.3677C352.294 72.131 352.571 72.8536 352.571 73.5355V73.8714C352.571 75.7898 351.236 77.0111 348.564 77.5353H347.396C346.165 77.5353 345.218 77.2579 344.557 76.7032L343.725 77.207H343.06C342.837 77.207 342.725 77.0951 342.725 76.8712L342.892 75.1995C342.781 74.4413 342.725 73.8306 342.725 73.3676C342.781 73.3676 343.002 73.3116 343.389 73.1996C343.765 73.1996 344.155 73.8663 344.557 75.1995C345.523 76.09 346.638 76.5353 347.9 76.5353C349.788 76.5353 350.844 75.3674 351.068 73.0317C350.956 72.818 350.9 72.6526 350.9 72.5356L350.571 72.6959V72.5356L350.732 72.1997C350.258 71.645 348.592 71.1438 345.732 70.696C345.732 70.5026 345.119 70.2253 343.892 69.864C343.338 68.8971 343.06 68.1185 343.06 67.5282C343.06 65.6759 344.284 64.508 346.732 64.0246ZM345.732 66.0245H345.892V66.1924C345.673 66.4621 345.564 66.6835 345.564 66.8565H345.228V66.6886C345.396 66.2459 345.564 66.0245 345.732 66.0245ZM353.747 64.1925C354.46 64.4114 354.849 64.5208 354.915 64.5208C355.282 64.302 355.618 64.1925 355.923 64.1925H360.594C361.414 64.1925 361.859 64.3579 361.93 64.6887V65.1925L361.09 65.3604H358.923C358.643 65.5792 358.365 65.6886 358.091 65.6886L358.259 66.8565C358.259 66.9685 358.203 67.0244 358.091 67.0244C358.091 67.1364 358.147 67.1924 358.259 67.1924C358.259 67.3094 358.203 67.4773 358.091 67.6961C358.203 68.8309 358.259 69.7189 358.259 70.3601V70.528C358.259 71.1183 358.203 71.6196 358.091 72.0318C358.203 72.617 358.259 73.1742 358.259 73.7034V74.3675L358.091 75.3674C358.259 75.8153 358.424 76.0392 358.587 76.0392L359.426 75.8712C359.426 76.0392 359.648 76.2045 360.091 76.3674C360.549 76.1486 360.882 76.0392 361.09 76.0392C361.65 76.1816 361.93 76.347 361.93 76.5353V77.0391L361.09 77.207H359.091C358.281 77.207 357.058 77.0951 355.419 76.8712C355.053 77.0951 354.719 77.207 354.419 77.207H353.419C353.256 77.207 353.088 77.0391 352.915 76.7032C352.915 76.3114 353.526 76.0341 354.747 75.8712L355.923 76.0392L356.755 75.8712V73.8714L356.419 74.0316V73.5355C356.643 73.2607 356.755 73.0368 356.755 72.8638C356.755 72.1056 356.811 71.4389 356.923 70.8639C356.923 67.1949 356.589 65.3604 355.923 65.3604H353.419C353.256 65.3604 353.088 65.1925 352.915 64.8566C353.027 64.4139 353.305 64.1925 353.747 64.1925ZM362.9 64.3528H367.572C371.022 64.3528 372.747 65.5767 372.747 68.0244C372.747 68.9403 372.19 69.7189 371.075 70.3601C372.856 71.4288 373.747 72.5992 373.747 73.8714C373.747 75.6829 372.523 76.8508 370.075 77.375H362.404C362.241 77.375 362.073 77.207 361.9 76.8712V76.7032C361.936 76.4793 362.048 76.3674 362.236 76.3674L362.732 76.7032C362.732 76.3725 363.066 76.2071 363.732 76.2071V75.1995C363.732 74.8687 363.679 74.7034 363.572 74.7034L363.732 73.8714V66.5283C363.732 65.8566 363.343 65.5207 362.564 65.5207C362.122 65.5207 361.9 65.3553 361.9 65.0246V64.8566C362.012 64.5208 362.345 64.3528 362.9 64.3528ZM365.572 65.5207L365.236 67.5282V68.864L365.572 70.0319H369.075C369.213 70.0319 369.602 69.6426 370.243 68.864H370.411V69.3602C370.564 69.3551 370.785 69.0777 371.075 68.5282V67.5282C371.075 67.0702 370.633 66.513 369.747 65.8566C369.747 65.6632 369.467 65.5512 368.907 65.5207H365.572ZM365.068 72.0318L365.236 73.1996V75.0392C365.236 75.8178 365.958 76.2071 367.404 76.2071H369.907C370.905 76.2071 371.683 75.4819 372.243 74.0316L371.915 74.1996H371.747V73.7034H372.243C372.243 72.2837 371.075 71.4491 368.739 71.1998H368.075C367.892 71.4186 366.89 71.6959 365.068 72.0318ZM374.801 64.1925C375.513 64.4114 375.903 64.5208 375.969 64.5208C376.335 64.302 376.671 64.1925 376.976 64.1925H381.648C382.467 64.1925 382.912 64.3579 382.984 64.6887V65.1925L382.144 65.3604H379.976C379.696 65.5792 379.419 65.6886 379.144 65.6886L379.312 66.8565C379.312 66.9685 379.256 67.0244 379.144 67.0244C379.144 67.1364 379.2 67.1924 379.312 67.1924C379.312 67.3094 379.256 67.4773 379.144 67.6961C379.256 68.8309 379.312 69.7189 379.312 70.3601V70.528C379.312 71.1183 379.256 71.6196 379.144 72.0318C379.256 72.617 379.312 73.1742 379.312 73.7034V74.3675L379.144 75.3674C379.312 75.8153 379.477 76.0392 379.64 76.0392L380.48 75.8712C380.48 76.0392 380.701 76.2045 381.144 76.3674C381.602 76.1486 381.935 76.0392 382.144 76.0392C382.704 76.1816 382.984 76.347 382.984 76.5353V77.0391L382.144 77.207H380.144C379.335 77.207 378.111 77.0951 376.472 76.8712C376.106 77.0951 375.773 77.207 375.473 77.207H374.473C374.31 77.207 374.142 77.0391 373.969 76.7032C373.969 76.3114 374.579 76.0341 375.801 75.8712L376.976 76.0392L377.808 75.8712V73.8714L377.472 74.0316V73.5355C377.696 73.2607 377.808 73.0368 377.808 72.8638C377.808 72.1056 377.864 71.4389 377.976 70.8639C377.976 67.1949 377.643 65.3604 376.976 65.3604H374.473C374.31 65.3604 374.142 65.1925 373.969 64.8566C374.081 64.4139 374.358 64.1925 374.801 64.1925ZM383.503 64.3528C384.933 64.5767 385.768 64.6887 386.007 64.6887C386.373 64.4648 386.709 64.3528 387.014 64.3528H388.511C389.335 64.3528 389.78 64.5208 389.846 64.8566V65.1925C389.846 65.4113 389.734 65.5207 389.51 65.5207H387.846C387.399 65.5207 387.175 67.2458 387.175 70.696V75.5354C387.175 75.8254 387.62 76.0493 388.511 76.2071H392.518L393.022 73.3676H392.686V72.3676C392.721 72.1437 392.833 72.0318 393.022 72.0318H393.686C394.022 72.1437 394.19 72.477 394.19 73.0317V73.8714H393.854V74.0316H394.19V76.2071C394.19 76.8025 393.966 77.1918 393.518 77.375H383.343C383.18 77.375 383.012 77.207 382.839 76.8712V76.7032C382.839 76.4539 383.228 76.2325 384.007 76.0392L384.839 76.2071C385.2 76.2071 385.48 75.6499 385.679 74.5354V66.6886C385.679 65.91 385.289 65.5207 384.511 65.5207H383.343C383.18 65.5207 383.012 65.3553 382.839 65.0246V64.8566C382.839 64.6887 383.06 64.5208 383.503 64.3528ZM387.511 72.5356H387.846V73.1996H387.511V72.5356ZM387.846 73.5355V74.1996H387.511V73.8714C387.546 73.6474 387.658 73.5355 387.846 73.5355ZM395.289 64.1925C396.002 64.4114 396.391 64.5208 396.457 64.5208C396.824 64.302 397.159 64.1925 397.465 64.1925H402.136C402.956 64.1925 403.401 64.3579 403.472 64.6887V65.1925L402.632 65.3604H400.465C400.185 65.5792 399.907 65.6886 399.633 65.6886L399.801 66.8565C399.801 66.9685 399.745 67.0244 399.633 67.0244C399.633 67.1364 399.689 67.1924 399.801 67.1924C399.801 67.3094 399.745 67.4773 399.633 67.6961C399.745 68.8309 399.801 69.7189 399.801 70.3601V70.528C399.801 71.1183 399.745 71.6196 399.633 72.0318C399.745 72.617 399.801 73.1742 399.801 73.7034V74.3675L399.633 75.3674C399.801 75.8153 399.966 76.0392 400.129 76.0392L400.968 75.8712C400.968 76.0392 401.19 76.2045 401.632 76.3674C402.09 76.1486 402.424 76.0392 402.632 76.0392C403.192 76.1816 403.472 76.347 403.472 76.5353V77.0391L402.632 77.207H400.633C399.823 77.207 398.6 77.0951 396.961 76.8712C396.595 77.0951 396.261 77.207 395.961 77.207H394.961C394.798 77.207 394.63 77.0391 394.457 76.7032C394.457 76.3114 395.068 76.0341 396.289 75.8712L397.465 76.0392L398.297 75.8712V73.8714L397.961 74.0316V73.5355C398.185 73.2607 398.297 73.0368 398.297 72.8638C398.297 72.1056 398.353 71.4389 398.465 70.8639C398.465 67.1949 398.131 65.3604 397.465 65.3604H394.961C394.798 65.3604 394.63 65.1925 394.457 64.8566C394.569 64.4139 394.847 64.1925 395.289 64.1925ZM405.404 64.1925C405.516 64.1925 405.572 64.246 405.572 64.3528L406.411 64.1925H410.579C413.139 64.1925 414.419 64.3579 414.419 64.6887C414.419 64.9686 414.363 65.4138 414.251 66.0245C414.363 66.8794 414.419 67.8259 414.419 68.864C414.195 68.8946 414.083 69.004 414.083 69.1922L413.083 69.0319L413.251 67.8564V67.6961L412.915 67.1924V65.8566C412.538 65.8566 412.093 65.6912 411.579 65.3604H410.915C410.666 65.3604 410.276 66.2484 409.747 68.0244V71.6959L410.083 71.528H410.243V72.3676C410.243 72.5864 410.134 72.6959 409.915 72.6959V71.8638H409.747V75.5354L412.587 76.3674C412.694 76.3674 412.747 76.4234 412.747 76.5353V76.7032C412.747 76.8661 412.582 77.034 412.251 77.207H411.251C410.849 77.207 410.348 77.1511 409.747 77.0391L409.411 77.207C408.826 77.0951 408.493 77.0391 408.411 77.0391C407.104 77.1511 406.157 77.207 405.572 77.207L405.244 76.7032C405.244 76.2605 406.188 75.9832 408.075 75.8712L408.243 75.5354V66.8565C408.101 65.8591 407.6 65.3604 406.74 65.3604H405.404L405.076 66.5283V68.6961L404.74 69.1922C403.961 69.1922 403.572 68.8589 403.572 68.1923V65.0246C403.572 64.6378 404.183 64.3605 405.404 64.1925ZM416.335 64.0246H416.839C417.658 64.0246 418.103 64.19 418.175 64.5208V64.8566C418.175 65.0805 417.839 65.1925 417.167 65.1925V65.8566C417.971 67.1033 418.862 68.2712 419.839 69.3602H420.007C420.129 69.3602 420.963 68.1363 422.51 65.6886V65.1925C421.732 65.1925 421.342 65.0246 421.342 64.6887C421.454 64.246 421.732 64.0246 422.174 64.0246L423.342 64.3528C423.378 64.134 423.49 64.0246 423.678 64.0246H424.342C425.167 64.0246 425.612 64.19 425.678 64.5208V65.0246C425.195 65.0246 424.696 65.3019 424.182 65.8566C421.734 68.9454 420.51 71.3931 420.51 73.1996V74.0316C420.541 74.2556 420.65 74.3675 420.839 74.3675C420.727 74.5812 420.671 74.7492 420.671 74.8713V75.3674H420.51C420.617 75.5863 420.671 75.7542 420.671 75.8712H422.51C423.177 75.9425 423.51 76.1079 423.51 76.3674V76.7032C423.51 76.9271 423.398 77.0391 423.174 77.0391H417.007L416.167 76.8712V76.0392C416.417 76.0392 416.64 75.9832 416.839 75.8712C417.439 75.9832 417.938 76.0392 418.335 76.0392H418.839L419.343 74.1996C419.343 71.8638 419.063 70.696 418.503 70.696C418.284 70.696 418.175 70.584 418.175 70.3601V70.1998L418.503 70.3601C417.928 69.1185 416.76 67.3959 414.999 65.1925L413.999 65.0246V64.1925H414.663V64.5208H414.831C415.412 64.5208 415.913 64.3554 416.335 64.0246Z" fill="#E50914"/>
</g>
<defs>
<filter id="filter0_n_2858_540" x="273" y="0" width="216" height="32.7266" filterUnits="userSpaceOnUse" color-interpolation-filters="sRGB">
<feFlood flood-opacity="0" result="BackgroundImageFix"/>
<feBlend mode="normal" in="SourceGraphic" in2="BackgroundImageFix" result="shape"/>
<feTurbulence type="fractalNoise" baseFrequency="2 2" stitchTiles="stitch" numOctaves="3" result="noise" seed="1499" />
<feColorMatrix in="noise" type="luminanceToAlpha" result="alphaNoise" />
<feComponentTransfer in="alphaNoise" result="coloredNoise1">
<feFuncA type="discrete" tableValues="1 1 1 1 1 1 1 1 1 1 1 1 1 1 1 1 1 1 1 1 1 1 1 1 1 1 1 1 1 1 1 1 1 1 1 1 1 1 1 1 1 1 1 1 1 1 1 1 1 1 1 0 0 0 0 0 0 0 0 0 0 0 0 0 0 0 0 0 0 0 0 0 0 0 0 0 0 0 0 0 0 0 0 0 0 0 0 0 0 0 0 0 0 0 0 0 0 0 0 0 "/>
</feComponentTransfer>
<feComposite operator="in" in2="shape" in="coloredNoise1" result="noise1Clipped" />
<feFlood flood-color="rgba(227, 227, 227, 0.25)" result="color1Flood" />
<feComposite operator="in" in2="noise1Clipped" in="color1Flood" result="color1" />
<feMerge result="effect1_noise_2858_540">
<feMergeNode in="shape" />
<feMergeNode in="color1" />
</feMerge>
</filter>
<filter id="filter1_n_2858_540" x="3.47461" y="31.5527" width="260.201" height="46.3496" filterUnits="userSpaceOnUse" color-interpolation-filters="sRGB">
<feFlood flood-opacity="0" result="BackgroundImageFix"/>
<feBlend mode="normal" in="SourceGraphic" in2="BackgroundImageFix" result="shape"/>
<feTurbulence type="fractalNoise" baseFrequency="2 2" stitchTiles="stitch" numOctaves="3" result="noise" seed="1499" />
<feColorMatrix in="noise" type="luminanceToAlpha" result="alphaNoise" />
<feComponentTransfer in="alphaNoise" result="coloredNoise1">
<feFuncA type="discrete" tableValues="1 1 1 1 1 1 1 1 1 1 1 1 1 1 1 1 1 1 1 1 1 1 1 1 1 1 1 1 1 1 1 1 1 1 1 1 1 1 1 1 1 1 1 1 1 1 1 1 1 1 1 0 0 0 0 0 0 0 0 0 0 0 0 0 0 0 0 0 0 0 0 0 0 0 0 0 0 0 0 0 0 0 0 0 0 0 0 0 0 0 0 0 0 0 0 0 0 0 0 0 "/>
</feComponentTransfer>
<feComposite operator="in" in2="shape" in="coloredNoise1" result="noise1Clipped" />
<feFlood flood-color="rgba(227, 227, 227, 0.25)" result="color1Flood" />
<feComposite operator="in" in2="noise1Clipped" in="color1Flood" result="color1" />
<feMerge result="effect1_noise_2858_540">
<feMergeNode in="shape" />
<feMergeNode in="color1" />
</feMerge>
</filter>
<filter id="filter2_n_2858_540" x="271.451" y="44.8574" width="218.746" height="32.6777" filterUnits="userSpaceOnUse" color-interpolation-filters="sRGB">
<feFlood flood-opacity="0" result="BackgroundImageFix"/>
<feBlend mode="normal" in="SourceGraphic" in2="BackgroundImageFix" result="shape"/>
<feTurbulence type="fractalNoise" baseFrequency="2 2" stitchTiles="stitch" numOctaves="3" result="noise" seed="1499" />
<feColorMatrix in="noise" type="luminanceToAlpha" result="alphaNoise" />
<feComponentTransfer in="alphaNoise" result="coloredNoise1">
<feFuncA type="discrete" tableValues="1 1 1 1 1 1 1 1 1 1 1 1 1 1 1 1 1 1 1 1 1 1 1 1 1 1 1 1 1 1 1 1 1 1 1 1 1 1 1 1 1 1 1 1 1 1 1 1 1 1 1 0 0 0 0 0 0 0 0 0 0 0 0 0 0 0 0 0 0 0 0 0 0 0 0 0 0 0 0 0 0 0 0 0 0 0 0 0 0 0 0 0 0 0 0 0 0 0 0 0 "/>
</feComponentTransfer>
<feComposite operator="in" in2="shape" in="coloredNoise1" result="noise1Clipped" />
<feFlood flood-color="rgba(227, 227, 227, 0.25)" result="color1Flood" />
<feComposite operator="in" in2="noise1Clipped" in="color1Flood" result="color1" />
<feMerge result="effect1_noise_2858_540">
<feMergeNode in="shape" />
<feMergeNode in="color1" />
</feMerge>
</filter>
</defs>
</svg>
