<svg width="515" height="170" viewBox="0 0 515 170" fill="none" xmlns="http://www.w3.org/2000/svg">
<g filter="url(#filter0_n_2858_536)">
<path d="M13.2927 130L8.36949 118.086H8.27103V130H0V93.3712H11.1265H11.1757C13.2763 93.3712 15.0158 93.6994 16.3944 94.3558C17.8057 94.9794 18.9216 95.8328 19.7422 96.9159C20.5955 97.9662 21.2027 99.2134 21.5637 100.658C21.9248 102.069 22.1053 103.562 22.1053 105.138C22.1053 106.779 21.8263 108.239 21.2684 109.519C20.7432 110.799 20.1032 111.883 19.3483 112.769C18.6262 113.622 17.8877 114.278 17.1328 114.738C16.3779 115.165 15.7872 115.378 15.3605 115.378L22.7946 130H13.2927ZM44.0856 120.35H36.9469L33.6976 130H24.2942L35.0269 93.3712H46.0549L56.7875 130H47.3842L44.0856 120.35ZM83.5134 111.686C83.5134 114.147 83.2344 116.494 82.6764 118.726C82.1184 120.925 81.1994 122.861 79.9194 124.535C78.6394 126.209 76.9655 127.538 74.8977 128.523C72.8299 129.508 70.3027 130 67.3159 130H66.2328H58.848V93.3712H66.2328C69.0883 93.3712 71.5991 93.8471 73.7654 94.7989C75.9316 95.7179 77.7368 96.998 79.1809 98.639C80.6251 100.247 81.7082 102.184 82.4302 104.448C83.1523 106.68 83.5134 109.093 83.5134 111.686ZM95.7257 93.3712V130H87.4546V93.3712H95.7257ZM112.923 121.877C114.334 121.975 115.499 121.614 116.418 120.794C117.37 119.973 118.092 118.988 118.584 117.84L125.723 121.827C125.428 122.418 125.001 123.173 124.443 124.092C123.918 125.011 123.163 125.914 122.178 126.8C121.194 127.686 119.93 128.457 118.388 129.114C116.878 129.737 115.007 130.049 112.775 130.049H112.726C110.231 130.049 108.131 129.655 106.424 128.868C104.75 128.08 103.372 127.03 102.289 125.717C101.238 124.371 100.467 122.828 99.9746 121.089C99.4823 119.317 99.1869 117.479 99.0884 115.575V107.993C99.1213 106.188 99.4167 104.416 99.9746 102.676C100.565 100.904 101.419 99.3283 102.535 97.9498C103.683 96.5713 105.111 95.4718 106.818 94.6512C108.525 93.7979 110.51 93.3712 112.775 93.3712H112.824C114.826 93.3712 116.55 93.6502 117.994 94.2081C119.438 94.7661 120.669 95.4882 121.686 96.3743C122.736 97.2605 123.573 98.2616 124.197 99.3775C124.853 100.493 125.362 101.609 125.723 102.725L118.584 106.713C118.388 106.122 118.109 105.515 117.747 104.892C117.419 104.268 117.009 103.71 116.517 103.218C116.024 102.725 115.466 102.331 114.843 102.036C114.219 101.741 113.563 101.609 112.873 101.642C111.2 101.773 109.854 102.446 108.836 103.661C107.852 104.842 107.359 106.336 107.359 108.141V115.28C107.359 117.085 107.868 118.611 108.886 119.858C109.903 121.073 111.249 121.745 112.923 121.877ZM146.3 120.35H139.162L135.912 130H126.509L137.242 93.3712H148.27L159.002 130H149.599L146.3 120.35ZM169.334 121.729H179.131V130H161.063V93.3712H169.334V121.729ZM210.089 121.877C211.501 121.975 212.666 121.614 213.585 120.794C214.537 119.973 215.259 118.988 215.751 117.84L222.89 121.827C222.594 122.418 222.168 123.173 221.61 124.092C221.084 125.011 220.33 125.914 219.345 126.8C218.36 127.686 217.097 128.457 215.554 129.114C214.044 129.737 212.173 130.049 209.941 130.049H209.892C207.398 130.049 205.297 129.655 203.591 128.868C201.917 128.08 200.538 127.03 199.455 125.717C198.405 124.371 197.633 122.828 197.141 121.089C196.649 119.317 196.353 117.479 196.255 115.575V107.993C196.288 106.188 196.583 104.416 197.141 102.676C197.732 100.904 198.585 99.3283 199.701 97.9498C200.85 96.5713 202.278 95.4718 203.984 94.6512C205.691 93.7979 207.677 93.3712 209.941 93.3712H209.991C211.993 93.3712 213.716 93.6502 215.16 94.2081C216.604 94.7661 217.835 95.4882 218.853 96.3743C219.903 97.2605 220.74 98.2616 221.363 99.3775C222.02 100.493 222.529 101.609 222.89 102.725L215.751 106.713C215.554 106.122 215.275 105.515 214.914 104.892C214.586 104.268 214.175 103.71 213.683 103.218C213.191 102.725 212.633 102.331 212.009 102.036C211.386 101.741 210.729 101.609 210.04 101.642C208.366 101.773 207.02 102.446 206.003 103.661C205.018 104.842 204.526 106.336 204.526 108.141V115.28C204.526 117.085 205.035 118.611 206.052 119.858C207.07 121.073 208.415 121.745 210.089 121.877ZM243.467 120.35H236.328L233.079 130H223.675L234.408 93.3712H245.436L256.169 130H246.765L243.467 120.35ZM276.494 93.3712H285.258V130H276.888L267.042 111.981V130H258.278V93.3712H266.697L276.494 111.341V93.3712ZM312.607 111.686C312.607 114.147 312.328 116.494 311.77 118.726C311.212 120.925 310.293 122.861 309.013 124.535C307.733 126.209 306.059 127.538 303.991 128.523C301.924 129.508 299.396 130 296.41 130H295.326H287.942V93.3712H295.326C298.182 93.3712 300.693 93.8471 302.859 94.7989C305.025 95.7179 306.83 96.998 308.275 98.639C309.719 100.247 310.802 102.184 311.524 104.448C312.246 106.68 312.607 109.093 312.607 111.686ZM342.675 115.427C342.675 117.2 342.396 119.005 341.838 120.843C341.313 122.648 340.394 124.24 339.081 125.618C337.735 127.062 336.193 128.162 334.453 128.917C332.746 129.672 330.925 130.049 328.988 130.049H328.939C327.035 130.049 325.214 129.672 323.474 128.917C321.768 128.162 320.225 127.079 318.846 125.668C317.566 124.289 316.647 122.73 316.089 120.99C315.564 119.251 315.285 117.397 315.252 115.427V106.861C315.252 105.285 315.564 103.694 316.188 102.085C316.811 100.444 317.698 99.0001 318.846 97.7528C320.225 96.3415 321.768 95.2584 323.474 94.5035C325.181 93.7486 327.003 93.3712 328.939 93.3712H328.988C330.925 93.3712 332.746 93.7486 334.453 94.5035C336.193 95.2584 337.735 96.3415 339.081 97.7528C340.262 99.0001 341.149 100.411 341.739 101.987C342.33 103.562 342.642 105.187 342.675 106.861V115.427ZM358.496 130L353.572 118.086H353.474V130H345.203V93.3712H356.329H356.379C358.479 93.3712 360.219 93.6994 361.597 94.3558C363.009 94.9794 364.125 95.8328 364.945 96.9159C365.798 97.9662 366.406 99.2134 366.767 100.658C367.128 102.069 367.308 103.562 367.308 105.138C367.308 106.779 367.029 108.239 366.471 109.519C365.946 110.799 365.306 111.883 364.551 112.769C363.829 113.622 363.091 114.278 362.336 114.738C361.581 115.165 360.99 115.378 360.563 115.378L367.998 130H358.496ZM18.2652 132.371H27.0285V169H18.659L8.81258 150.981V169H0.0492323V132.371H8.46795L18.2652 150.341V132.371ZM48.0761 159.35H40.9374L37.6881 169H28.2847L39.0174 132.371H50.0454L60.778 169H51.3747L48.0761 159.35ZM87.3069 132.371L73.6696 150.735L87.2577 169H77.0174L71.1095 161.074V169H62.8385V132.371H71.1095V140.888L77.0666 132.371H87.3069ZM112.885 140.642H98.7065V146.55H109.144V154.821H98.7065V160.729H112.885V169H90.4355V132.371H112.885V140.642ZM140.823 150.686C140.823 153.147 140.544 155.494 139.986 157.726C139.428 159.925 138.509 161.861 137.229 163.535C135.949 165.209 134.275 166.538 132.207 167.523C130.139 168.508 127.612 169 124.625 169H123.542H116.157V132.371H123.542C126.398 132.371 128.909 132.847 131.075 133.799C133.241 134.718 135.046 135.998 136.49 137.639C137.935 139.247 139.018 141.184 139.74 143.448C140.462 145.68 140.823 148.093 140.823 150.686ZM183.271 132.371V140.642H174.951V169H166.68V140.642H158.36V132.371H183.271ZM199.212 169L194.289 157.086H194.19V169H185.919V132.371H197.046H197.095C199.196 132.371 200.935 132.699 202.314 133.356C203.725 133.979 204.841 134.833 205.661 135.916C206.515 136.966 207.122 138.213 207.483 139.658C207.844 141.069 208.025 142.562 208.025 144.138C208.025 145.779 207.746 147.239 207.188 148.519C206.662 149.799 206.022 150.883 205.268 151.769C204.545 152.622 203.807 153.278 203.052 153.738C202.297 154.165 201.706 154.378 201.28 154.378L208.714 169H199.212ZM238.128 154.378C238.128 156.544 237.833 158.53 237.242 160.335C236.684 162.14 235.847 163.699 234.731 165.012C233.648 166.292 232.286 167.293 230.645 168.015C229.004 168.705 227.1 169.033 224.934 169H224.885C222.489 169.033 220.454 168.655 218.78 167.868C217.106 167.08 215.744 166.013 214.694 164.668C213.643 163.289 212.872 161.714 212.38 159.941C211.92 158.169 211.69 156.314 211.69 154.378V132.322H220.208V153.738C220.208 154.624 220.29 155.461 220.454 156.249C220.651 157.037 220.946 157.726 221.34 158.317C221.734 158.907 222.226 159.383 222.817 159.744C223.408 160.073 224.113 160.237 224.934 160.237C225.754 160.237 226.46 160.073 227.051 159.744C227.642 159.383 228.118 158.907 228.479 158.317C228.872 157.726 229.151 157.037 229.316 156.249C229.512 155.461 229.611 154.624 229.611 153.738V132.322H238.128V154.378ZM265.822 132.371V140.642H257.502V169H249.231V140.642H240.911V132.371H265.822ZM286.538 132.371H294.809V169H286.538V154.821H276.741V169H268.47V132.371H276.741V146.55H286.538V132.371Z" fill="#E50914"/>
</g>
<g filter="url(#filter1_n_2858_536)">
<path d="M0 0H4.61915V18.4766H9.2383V32.3341H13.8575V46.1915H9.2383V60.049H4.61915V69.2873H0V0Z" fill="#E50914"/>
<path d="M0 73.9064H4.61915V78.5256H0V73.9064Z" fill="#E50914"/>
<path d="M41.5724 0H36.9532V4.61915H41.5724V0Z" fill="#E50914"/>
<path d="M41.5724 9.2383H36.9532V78.5256H41.5724V60.049H46.1915V46.1915H50.8107V32.3341H46.1915V18.4766H41.5724V9.2383Z" fill="#E50914"/>
<path d="M55.4298 0H60.049V4.61915H55.4298V0Z" fill="#E50914"/>
<path d="M55.4298 9.2383H60.049V18.4766H64.6681V32.3341H69.2873V46.1915H64.6681V60.049H60.049V78.5256H55.4298V9.2383Z" fill="#E50914"/>
<path d="M78.5256 0H73.9064V69.2873H78.5256V60.049H83.1447V46.1915H87.7639V32.3341H83.1447V18.4766H78.5256V0Z" fill="#E50914"/>
<path d="M78.5256 73.9064H73.9064V78.5256H78.5256V73.9064Z" fill="#E50914"/>
<path d="M92.383 0H97.0022V18.4766H101.621V32.3341H106.24V46.1915H101.621V60.049H97.0022V69.2873H92.383V0Z" fill="#E50914"/>
<path d="M92.383 73.9064H97.0022V78.5256H92.383V73.9064Z" fill="#E50914"/>
<path d="M115.479 0H110.86V4.61915H115.479V0Z" fill="#E50914"/>
<path d="M115.479 9.2383H110.86V78.5256H115.479V60.049H120.098V46.1915H124.717V32.3341H120.098V18.4766H115.479V9.2383Z" fill="#E50914"/>
<path d="M129.336 0H133.955V4.61915H129.336V0Z" fill="#E50914"/>
<path d="M129.336 9.2383H133.955V18.4766H138.575V32.3341H143.194V46.1915H138.575V60.049H133.955V78.5256H129.336V9.2383Z" fill="#E50914"/>
<path d="M152.432 0H147.813V69.2873H152.432V60.049H157.051V46.1915H161.67V32.3341H157.051V18.4766H152.432V0Z" fill="#E50914"/>
<path d="M152.432 73.9064H147.813V78.5256H152.432V73.9064Z" fill="#E50914"/>
<path d="M166.289 0H170.909V18.4766H175.528V32.3341H180.147V46.1915H175.528V60.049H170.909V69.2873H166.289V0Z" fill="#E50914"/>
<path d="M166.289 73.9064H170.909V78.5256H166.289V73.9064Z" fill="#E50914"/>
<path d="M23.0958 0H18.4766V4.61915H23.0958V0Z" fill="#E50914"/>
<path d="M23.0958 9.2383H18.4766V69.2873H23.0958V60.049H27.7149V46.1915H32.3341V32.3341H27.7149V18.4766H23.0958V9.2383Z" fill="#E50914"/>
<path d="M18.4766 73.9064H23.0958V78.5256H18.4766V73.9064Z" fill="#E50914"/>
</g>
<defs>
<filter id="filter0_n_2858_536" x="0" y="93.3711" width="367.998" height="75.6777" filterUnits="userSpaceOnUse" color-interpolation-filters="sRGB">
<feFlood flood-opacity="0" result="BackgroundImageFix"/>
<feBlend mode="normal" in="SourceGraphic" in2="BackgroundImageFix" result="shape"/>
<feTurbulence type="fractalNoise" baseFrequency="2 2" stitchTiles="stitch" numOctaves="3" result="noise" seed="1499" />
<feColorMatrix in="noise" type="luminanceToAlpha" result="alphaNoise" />
<feComponentTransfer in="alphaNoise" result="coloredNoise1">
<feFuncA type="discrete" tableValues="1 1 1 1 1 1 1 1 1 1 1 1 1 1 1 1 1 1 1 1 1 1 1 1 1 1 1 1 1 1 1 1 1 1 1 1 1 1 1 1 1 1 1 1 1 1 1 1 1 1 1 0 0 0 0 0 0 0 0 0 0 0 0 0 0 0 0 0 0 0 0 0 0 0 0 0 0 0 0 0 0 0 0 0 0 0 0 0 0 0 0 0 0 0 0 0 0 0 0 0 "/>
</feComponentTransfer>
<feComposite operator="in" in2="shape" in="coloredNoise1" result="noise1Clipped" />
<feFlood flood-color="rgba(227, 227, 227, 0.25)" result="color1Flood" />
<feComposite operator="in" in2="noise1Clipped" in="color1Flood" result="color1" />
<feMerge result="effect1_noise_2858_536">
<feMergeNode in="shape" />
<feMergeNode in="color1" />
</feMerge>
</filter>
<filter id="filter1_n_2858_536" x="0" y="0" width="180.146" height="78.5254" filterUnits="userSpaceOnUse" color-interpolation-filters="sRGB">
<feFlood flood-opacity="0" result="BackgroundImageFix"/>
<feBlend mode="normal" in="SourceGraphic" in2="BackgroundImageFix" result="shape"/>
<feTurbulence type="fractalNoise" baseFrequency="2 2" stitchTiles="stitch" numOctaves="3" result="noise" seed="1499" />
<feColorMatrix in="noise" type="luminanceToAlpha" result="alphaNoise" />
<feComponentTransfer in="alphaNoise" result="coloredNoise1">
<feFuncA type="discrete" tableValues="1 1 1 1 1 1 1 1 1 1 1 1 1 1 1 1 1 1 1 1 1 1 1 1 1 1 1 1 1 1 1 1 1 1 1 1 1 1 1 1 1 1 1 1 1 1 1 1 1 1 1 0 0 0 0 0 0 0 0 0 0 0 0 0 0 0 0 0 0 0 0 0 0 0 0 0 0 0 0 0 0 0 0 0 0 0 0 0 0 0 0 0 0 0 0 0 0 0 0 0 "/>
</feComponentTransfer>
<feComposite operator="in" in2="shape" in="coloredNoise1" result="noise1Clipped" />
<feFlood flood-color="rgba(227, 227, 227, 0.25)" result="color1Flood" />
<feComposite operator="in" in2="noise1Clipped" in="color1Flood" result="color1" />
<feMerge result="effect1_noise_2858_536">
<feMergeNode in="shape" />
<feMergeNode in="color1" />
</feMerge>
</filter>
</defs>
</svg>
