<svg width="454" height="161" viewBox="0 0 454 161" fill="none" xmlns="http://www.w3.org/2000/svg">
<path d="M26.8767 93.8144H35.761L29.4151 146.075H20.5308L20.6055 145.925C20.6055 145.627 18.5151 125.469 18.5151 125.469C18.5151 125.469 16.4247 145.627 16.4993 145.925V146.075H7.61507L1.34384 93.8144H10.2281L12.7664 114.942L14.8569 93.8144H22.1733L24.3384 114.942L26.8767 93.8144ZM37.4332 102.848C37.4332 97.4726 41.7633 93.1424 47.1387 93.1424H51.0955C56.4709 93.1424 60.8757 97.4726 60.8757 102.848V136.966C60.8757 142.342 56.4709 146.747 51.0955 146.747H47.1387C41.7633 146.747 37.4332 142.342 37.4332 136.966V102.848ZM47.1387 135.473C47.1387 136.518 47.9599 137.414 49.0051 137.414H49.2291C50.2743 137.414 51.0955 136.518 51.0955 135.473V104.341C51.0955 103.296 50.2743 102.4 49.2291 102.4H49.0051C47.9599 102.4 47.1387 103.296 47.1387 104.341V135.473ZM81.3009 120.094C84.4365 120.094 87.0496 122.707 87.0496 125.917V146H77.3441V127.709C77.3441 126.066 76.0002 124.797 74.3578 124.797H73.3126V146H63.6071V93.8144H79.3598C83.6153 93.8144 87.0496 97.1739 87.0496 101.429V114.196C87.0496 117.481 84.3619 120.094 81.1516 120.094H81.3009ZM77.3441 105.013C77.3441 103.968 76.4482 103.072 75.403 103.072H73.3126V115.465H75.0297C76.2989 115.465 77.3441 114.42 77.3441 113.151V105.013ZM113.52 146H104.711L99.5594 124.573V146.075H89.8539V93.8144H99.5594V115.241L104.711 93.7397H113.52L107.174 119.945L113.52 146ZM125.223 146.075H115.517V93.8144H125.223V146.075ZM142.095 93.8144H151.278V146.075H142.095L137.093 126.738V146.075H127.985V93.8144H136.421L137.093 96.2034L142.095 115.241V93.8144ZM177.455 102.848V111.434H167.675V104.341C167.675 103.296 166.854 102.4 165.809 102.4H165.585C164.539 102.4 163.718 103.296 163.718 104.341V135.473C163.718 136.518 164.539 137.414 165.585 137.414H165.809C166.854 137.414 167.675 136.518 167.675 135.473V127.56H165.51V118.227H177.455V136.966C177.455 142.342 173.05 146.747 167.675 146.747H163.718C158.343 146.747 154.013 142.342 154.013 136.966V102.848C154.013 97.4726 158.343 93.1424 163.718 93.1424H167.675C173.05 93.1424 177.455 97.4726 177.455 102.848ZM208.439 113.449C208.439 116.66 205.752 119.347 202.541 119.347C205.752 119.347 208.439 121.96 208.439 125.245V137.638C208.439 142.267 204.632 146.075 200.003 146.075H185.071V93.8144H198.659V93.7397H200.003C204.632 93.7397 208.439 97.5472 208.439 102.176V113.449ZM196.793 103.072H194.777V114.644H195.598C197.315 114.644 198.659 113.3 198.659 111.583V105.013C198.659 103.968 197.838 103.072 196.793 103.072ZM198.659 134.801V127.037C198.659 125.32 197.315 123.976 195.598 123.976H194.777V136.742H196.793C197.838 136.742 198.659 135.847 198.659 134.801ZM218.223 146.075H209.787L216.88 93.8144H228.452L235.544 146.075H227.108L226.212 139.281H219.119L218.223 146.075ZM222.628 113.3L220.239 131.218H225.092L222.628 113.3ZM250.571 123.304H260.351V136.966C260.351 142.342 255.947 146.747 250.571 146.747H246.614C241.239 146.747 236.909 142.342 236.909 136.966V102.848C236.909 97.4726 241.239 93.1424 246.614 93.1424H250.571C255.947 93.1424 260.351 97.4726 260.351 102.848V114.047H250.571V104.341C250.571 103.296 249.75 102.4 248.705 102.4H248.481C247.436 102.4 246.614 103.296 246.614 104.341V135.473C246.614 136.518 247.436 137.414 248.481 137.414H248.705C249.75 137.414 250.571 136.518 250.571 135.473V123.304ZM286.822 146H278.013L272.861 124.573V146.075H263.156V93.8144H272.861V115.241L278.013 93.7397H286.822L280.476 119.945L286.822 146ZM314.425 93.8144H323.309L316.963 146.075H308.079L308.154 145.925C308.154 145.627 306.063 125.469 306.063 125.469C306.063 125.469 303.973 145.627 304.048 145.925V146.075H295.163L288.892 93.8144H297.776L300.315 114.942L302.405 93.8144H309.722L311.887 114.942L314.425 93.8144ZM328.168 146.075H319.732L326.825 93.8144H338.397L345.489 146.075H337.053L336.157 139.281H329.064L328.168 146.075ZM332.573 113.3L330.184 131.218H335.037L332.573 113.3ZM365.204 120.094C368.339 120.094 370.952 122.707 370.952 125.917V146H361.247V127.709C361.247 126.066 359.903 124.797 358.261 124.797H357.215V146H347.51V93.8144H363.263C367.518 93.8144 370.952 97.1739 370.952 101.429V114.196C370.952 117.481 368.265 120.094 365.055 120.094H365.204ZM361.247 105.013C361.247 103.968 360.351 103.072 359.306 103.072H357.215V115.465H358.933C360.202 115.465 361.247 114.42 361.247 113.151V105.013ZM373.757 93.8144H386.673C394.288 93.8144 397.199 98.2192 397.199 103.744V136.071C397.199 141.595 394.288 146.075 386.673 146.075H373.757V93.8144ZM383.462 136.742H385.627C386.673 136.742 387.494 135.847 387.494 134.801V105.013C387.494 103.968 386.673 103.072 385.627 103.072H383.462V136.742ZM423.446 110.836H413.741V104.341C413.741 103.296 412.845 102.4 411.799 102.4H411.65C410.53 102.4 409.709 103.296 409.709 104.341V109.642C409.709 111.135 410.306 111.956 410.754 112.404L411.202 112.777L419.564 119.198C419.564 119.198 423.446 121.736 423.446 127.709V136.966C423.446 142.342 419.041 146.747 413.666 146.747H409.709C404.334 146.747 400.004 142.342 400.004 136.966V127.709H409.709V135.473C409.709 136.518 410.53 137.414 411.65 137.414H411.799C412.845 137.414 413.741 136.518 413.741 135.473V128.679C413.666 128.381 413.591 127.112 412.546 126.29L403.363 119.198C399.556 116.286 400.004 112.105 400.004 112.105V102.848C400.004 97.4726 404.334 93.1424 409.709 93.1424H413.666C419.041 93.1424 423.446 97.4726 423.446 102.848V110.836Z" fill="white"/>
<path d="M414.148 0H409.529V18.4766H404.91V32.3341H400.291V46.1915H404.91V60.049H409.529V69.2873H414.148V0Z" fill="white"/>
<path d="M414.148 73.9064H409.529V78.5256H414.148V73.9064Z" fill="white"/>
<path d="M372.576 0H377.195V4.61915H372.576V0Z" fill="white"/>
<path d="M372.576 9.2383H377.195V78.5256H372.576V60.049H367.957V46.1915H363.338V32.3341H367.957V18.4766H372.576V9.2383Z" fill="white"/>
<path d="M358.719 0H354.099V4.61915H358.719V0Z" fill="white"/>
<path d="M358.719 9.2383H354.099V18.4766H349.48V32.3341H344.861V46.1915H349.48V60.049H354.099V78.5256H358.719V9.2383Z" fill="white"/>
<path d="M335.623 0H340.242V69.2873H335.623V60.049H331.004V46.1915H326.385V32.3341H331.004V18.4766H335.623V0Z" fill="white"/>
<path d="M335.623 73.9064H340.242V78.5256H335.623V73.9064Z" fill="white"/>
<path d="M321.765 0H317.146V18.4766H312.527V32.3341H307.908V46.1915H312.527V60.049H317.146V69.2873H321.765V0Z" fill="white"/>
<path d="M321.765 73.9064H317.146V78.5256H321.765V73.9064Z" fill="white"/>
<path d="M298.67 0H303.289V4.61915H298.67V0Z" fill="white"/>
<path d="M298.67 9.2383H303.289V78.5256H298.67V60.049H294.05V46.1915H289.431V32.3341H294.05V18.4766H298.67V9.2383Z" fill="white"/>
<path d="M284.812 0H280.193V4.61915H284.812V0Z" fill="white"/>
<path d="M284.812 9.2383H280.193V18.4766H275.574V32.3341H270.955V46.1915H275.574V60.049H280.193V78.5256H284.812V9.2383Z" fill="white"/>
<path d="M261.716 0H266.336V69.2873H261.716V60.049H257.097V46.1915H252.478V32.3341H257.097V18.4766H261.716V0Z" fill="white"/>
<path d="M261.716 73.9064H266.336V78.5256H261.716V73.9064Z" fill="white"/>
<path d="M247.859 0H243.24V18.4766H238.621V32.3341H234.002V46.1915H238.621V60.049H243.24V69.2873H247.859V0Z" fill="white"/>
<path d="M247.859 73.9064H243.24V78.5256H247.859V73.9064Z" fill="white"/>
<path d="M391.053 0H395.672V4.61915H391.053V0Z" fill="white"/>
<path d="M391.053 9.2383H395.672V69.2873H391.053V60.049H386.434V46.1915H381.814V32.3341H386.434V18.4766H391.053V9.2383Z" fill="white"/>
<path d="M395.672 73.9064H391.053V78.5256H395.672V73.9064Z" fill="white"/>
</svg>
