<svg width="479" height="112" viewBox="0 0 479 112" fill="none" xmlns="http://www.w3.org/2000/svg">
<g filter="url(#filter0_n_2858_539)">
<path d="M225.121 94.6021L225.121 94.6062C224.921 94.6067 224.721 94.6075 224.421 94.6083L224.421 94.6139C224.121 94.6147 223.921 94.6155 223.621 94.6163C223.621 94.631 223.621 94.646 223.621 94.6609C223.621 94.6609 223.621 94.6623 223.321 94.6626C223.121 94.6628 223.021 94.6626 222.821 94.6618C222.621 94.6609 222.321 94.6604 222.121 94.6599C222.121 94.6457 222.121 94.6318 222.121 94.6179C222.321 94.6174 222.521 94.6168 222.721 94.6163C223.021 94.6142 222.721 94.6118 222.921 94.6099C223.221 94.6091 223.321 94.6088 223.521 94.6083C223.821 94.6064 223.521 94.6043 223.721 94.6019C223.821 94.6016 224.021 94.6008 224.321 94.6L224.321 94.5963C224.621 94.5955 224.821 94.5947 225.121 94.5941L225.121 94.5923C225.421 94.5915 225.621 94.5909 225.921 94.5901L225.921 94.5864C226.221 94.5856 226.421 94.5848 226.721 94.584L226.721 94.5802C226.921 94.5797 227.221 94.5786 227.221 94.5786C227.421 94.5773 227.421 94.5754 228.021 94.5746C228.121 94.573 228.221 94.5714 228.821 94.5706C228.821 94.5706 229.121 94.5674 229.621 94.5666L229.621 94.5647C229.921 94.5639 230.121 94.5634 230.321 94.5626L230.321 94.5607C230.621 94.5599 231.021 94.5583 231.021 94.5583C231.021 94.5583 231.321 94.5559 231.621 94.5548C231.821 94.5543 231.821 94.553 231.921 94.5522C232.621 94.5503 233.321 94.5484 234.021 94.5466L234.021 94.545C235.221 94.5417 236.421 94.5388 237.621 94.5356C237.721 94.5356 238.121 94.5359 238.221 94.5353C238.621 94.534 239.221 94.5337 239.721 94.5332C239.921 94.5329 240.121 94.5324 240.221 94.5319C241.321 94.5311 242.421 94.5321 243.421 94.5313C243.521 94.5311 243.621 94.5305 243.621 94.5305C243.621 94.522 243.621 94.5134 243.621 94.5049C243.421 94.5043 243.221 94.5038 243.021 94.5033C242.921 94.503 242.821 94.5025 242.821 94.5025L242.821 94.5006C242.821 94.491 244.501 94.2672 244.501 94.5005C244.501 94.507 242.721 95.0007 242.721 94.9007C241.001 94.5005 242.021 94.6006 241.721 94.6006C208.121 94.6006 174.421 94.6006 140.821 94.6006C134.221 94.6006 127.621 94.6006 121.121 94.6006C120.921 94.6006 120.621 94.6006 120.421 94.6006C120.221 94.6006 119.921 94.1007 120.021 93.7007C120.121 93.5007 120.221 93.2006 120.421 93.1006C121.021 93.0006 121.621 93.1006 122.321 93.1006C207.821 93.1006 293.321 93.1006 378.821 93.1006C379.121 92.9006 379.321 92.6006 379.621 92.3007C379.821 92.3007 380.121 92.3007 380.321 92.3007C380.721 91.9007 381.121 91.6007 381.421 91.2007C381.721 90.7007 382.321 90.8007 382.721 90.7007C383.221 90.2007 383.621 89.8007 384.021 89.4007C384.221 89.4007 384.521 89.4007 384.821 89.3007C385.021 89.1007 385.321 88.8006 385.621 88.6006C385.821 88.6006 386.121 88.6006 386.321 88.6006C386.821 88.1006 387.421 87.6006 387.921 87.1006C388.221 87.1006 388.421 87.0007 388.721 87.0007C389.421 86.5007 389.621 85.4006 390.721 85.6006C391.321 85.2006 391.821 84.6006 392.321 84.1006C392.521 84.1006 392.821 84.1006 393.021 84.1006C393.321 83.8006 393.521 83.6007 393.821 83.4007C394.121 83.4007 394.321 83.4007 394.521 83.4007C394.921 83.0007 395.421 82.5006 395.821 82.1006C396.121 82.0006 396.521 81.9007 396.821 81.8007C397.221 81.4007 397.721 80.9007 398.121 80.5007C398.321 80.5007 398.621 80.5007 398.921 80.4007C399.221 80.2007 399.421 79.9007 399.721 79.7007C399.921 79.7007 400.221 79.7007 400.721 79.7007C401.121 79.2007 401.521 78.7007 401.821 78.2007C402.321 78.1007 402.521 78.1006 402.821 78.1006C403.221 77.7007 403.721 77.2007 404.121 76.8007C404.321 76.8007 404.621 76.7007 405.121 76.7007C405.421 76.3007 405.921 75.7007 406.221 75.2007C406.721 75.2007 406.921 75.2007 407.221 75.2007C407.521 74.9007 407.721 74.7007 408.021 74.5007C408.321 74.5007 408.521 74.5007 408.821 74.5007C409.221 74.1007 409.721 73.6007 410.121 73.2007C410.321 73.2007 410.621 73.2006 410.821 73.1006C411.521 72.8006 411.921 72.1007 412.421 71.7007C412.621 71.7007 412.921 71.7007 413.121 71.7007C413.621 71.2007 414.221 70.7007 414.721 70.2007C415.021 70.2007 415.221 70.2006 415.521 70.1006C415.921 69.6006 416.421 69.3007 417.021 69.3007C417.421 68.9007 417.921 68.4007 418.321 68.0007C418.521 67.9007 418.821 67.9007 419.221 67.9007C419.521 67.5007 420.021 66.9007 420.321 66.4007C420.821 66.4007 421.021 66.4007 421.321 66.4007C421.721 66.0007 422.121 65.4006 422.621 65.1006C423.121 64.8007 423.821 64.9007 424.121 64.3007C424.921 64.3007 425.421 63.8007 425.921 63.2007C426.121 63.0007 426.221 62.8007 426.421 62.7007C426.621 62.7007 426.921 62.7007 427.121 62.7007C427.621 62.2007 428.221 61.7007 428.721 61.2007C429.121 61.2007 429.521 61.2007 429.721 60.9007C430.021 60.4007 430.521 60.5007 431.021 60.4007C431.521 59.9007 431.921 59.5006 432.321 59.1006C432.521 59.1006 432.821 59.1006 433.121 59.0006C433.621 58.5006 434.121 58.0006 434.721 57.5006C434.921 57.5006 435.221 57.5006 435.421 57.5006C435.921 57.0006 436.221 56.5007 436.721 56.2007C437.221 55.9007 437.921 56.0007 438.221 55.4007C439.021 55.4007 439.521 54.9006 440.021 54.3006C440.221 54.1006 440.321 53.9006 440.521 53.8006C440.721 53.8006 441.021 53.8006 441.521 53.8006C441.921 53.3006 442.321 52.8006 442.621 52.3006C443.121 52.2006 443.321 52.2007 443.621 52.2007C444.021 51.8007 444.521 51.3007 444.921 50.9007C445.721 50.7007 445.921 50.7006 446.421 50.1006C446.621 50.1006 446.921 50.1006 447.221 50.0006C447.721 49.5006 448.221 49.0006 448.821 48.5006C449.121 48.5006 449.321 48.5006 449.621 48.5006C450.021 48.1006 450.521 47.6007 450.921 47.2007C451.521 47.1007 452.021 47.0006 452.421 46.5007C452.521 46.4007 452.921 46.4007 453.321 46.4007C453.621 46.0007 454.121 45.4007 454.421 44.9007C454.921 44.9007 455.121 44.9007 455.421 44.9007C455.921 44.4007 456.421 43.8007 457.021 43.4007C457.221 43.4007 457.521 43.3006 457.721 43.3006C458.121 42.9006 458.621 42.4007 459.021 42.0007C459.721 42.0007 460.221 41.7007 460.521 41.2007C460.721 41.2007 461.021 41.2007 461.221 41.2007C461.721 40.7007 462.321 40.2007 462.821 39.7007C463.121 39.7007 463.321 39.7006 463.621 39.6006C464.021 39.2006 464.521 38.7006 464.921 38.3006C465.321 38.1006 465.921 38.3006 466.121 37.8006C466.121 37.3006 466.121 36.8006 466.121 36.3006C465.821 35.9006 465.321 35.7006 465.421 35.1006C465.421 35.0006 465.421 34.9006 465.321 34.8006C464.821 33.8006 464.821 33.8007 465.821 33.7007C466.121 33.4007 466.321 33.2007 466.621 32.9007C467.121 32.9007 467.621 32.9007 468.021 32.9007C468.221 32.7007 468.421 32.5006 468.621 32.3006C469.621 32.0006 470.721 32.3007 471.721 32.2007C471.921 32.0007 472.121 31.8006 472.321 31.6006C472.421 31.6006 472.521 31.5007 472.621 31.5007C473.221 31.5007 473.821 31.5007 474.521 31.5007C474.721 31.3007 475.021 31.1007 475.321 30.8007C476.021 30.8007 476.721 30.8007 477.421 30.8007C477.721 30.5007 478.021 30.3007 478.321 30.0007C478.421 30.3007 478.621 30.6007 478.721 30.9007C478.621 31.1007 478.621 31.2007 478.521 31.3007C477.521 32.3007 476.621 33.2006 475.721 34.1006C475.721 34.4006 475.821 34.8007 475.621 34.9007C474.121 36.4007 472.621 37.9006 471.221 39.3006C471.221 39.6006 471.221 39.9007 471.221 39.9007C470.521 40.6007 470.021 41.3007 469.421 41.9007C469.221 41.7007 469.121 41.7006 469.121 41.6006C469.021 41.4006 469.021 41.1007 469.021 40.9007C468.421 40.2007 467.821 39.4007 467.121 39.0007C466.321 38.9007 466.121 39.4007 465.721 39.7007C465.521 39.7007 465.221 39.7007 464.921 39.7007C464.421 40.2007 463.921 40.7007 463.321 41.2007C463.021 41.2007 462.821 41.2007 462.521 41.2007C462.121 41.6007 461.621 42.1006 461.221 42.5007C460.621 42.6006 460.121 42.7007 459.721 43.2007C459.621 43.3007 459.221 43.3006 458.821 43.3006C458.521 43.7006 458.021 44.3006 457.721 44.8006C457.221 44.8006 457.021 44.8006 456.721 44.8006C456.221 45.3006 455.721 45.9006 455.121 46.3006C454.921 46.3006 454.621 46.4007 454.421 46.4007C454.021 46.8007 453.521 47.3007 453.121 47.7007C452.321 47.8007 452.221 47.9007 451.621 48.5006C451.421 48.5006 451.121 48.5006 450.921 48.5006C450.421 49.0006 449.821 49.5006 449.321 50.0006C449.021 50.0006 448.821 50.0006 448.521 50.1006C448.121 50.5006 447.621 51.0007 447.221 51.4007C447.021 51.4007 446.721 51.5006 446.521 51.5006C445.821 51.9007 445.421 52.5006 444.921 53.0006C444.721 53.0006 444.421 53.0006 444.221 53.0006C443.921 53.3006 443.621 53.5006 443.421 53.8006C443.221 53.8006 442.921 53.8006 442.721 53.8006C442.321 54.2006 441.921 54.5007 441.621 54.9007C441.321 55.4007 440.721 55.3007 440.321 55.4007C439.821 55.9007 439.421 56.3007 439.021 56.7007C438.821 56.7007 438.521 56.7006 438.221 56.8006C438.021 57.0006 437.721 57.3006 437.421 57.5006C437.221 57.5006 436.921 57.5006 436.721 57.5006C436.221 58.0006 435.621 58.5006 435.121 59.0006C434.821 59.0006 434.621 59.1006 434.321 59.1006C433.921 59.5006 433.421 60.0007 433.021 60.4007C432.621 60.5007 432.121 60.5007 431.721 60.9007C431.421 61.3007 431.021 61.6006 430.721 62.0006C430.521 62.0006 430.221 62.0006 430.021 62.0006C429.721 62.3006 429.521 62.5006 429.221 62.8006C429.021 62.8006 428.721 62.8006 428.521 62.8006C428.021 63.3006 427.621 63.7007 427.221 64.1007C426.921 64.2007 426.521 64.3007 426.221 64.4007C425.821 64.8007 425.321 65.3007 424.921 65.7007C424.721 65.7007 424.421 65.7007 424.121 65.8007C423.621 66.3007 423.121 66.8007 422.521 67.3007C422.221 67.3007 422.021 67.3007 421.821 67.3007C421.421 67.8007 420.921 68.1006 420.321 68.1006C419.921 68.5006 419.421 69.0007 419.021 69.4007C418.821 69.4007 418.521 69.5007 418.021 69.5007C417.721 69.9007 417.221 70.5007 416.921 71.0007C416.421 71.0007 416.221 71.0007 415.921 71.0007C415.621 71.3007 415.421 71.5007 415.121 71.7007C414.821 71.7007 414.621 71.7007 414.321 71.7007C413.921 72.1007 413.421 72.6007 413.021 73.0007C412.721 73.1007 412.321 73.2007 412.021 73.3007C411.621 73.7007 411.121 74.2007 410.721 74.6007C410.521 74.6007 410.221 74.6007 410.021 74.6007C409.721 74.8007 409.521 75.1007 409.221 75.3007C409.021 75.3007 408.721 75.3007 408.521 75.3007C408.021 75.8007 407.521 76.4007 406.921 76.8007C406.721 76.8007 406.421 76.9007 406.221 76.9007C405.821 77.3007 405.321 77.8007 404.921 78.2007C404.721 78.2007 404.421 78.3007 403.921 78.3007C403.621 78.7007 403.121 79.3007 402.821 79.8007C402.321 79.8007 402.121 79.8007 401.821 79.8007C401.421 80.2007 401.021 80.8006 400.521 81.1006C400.021 81.4006 399.321 81.3007 399.021 81.9007C398.221 81.9007 397.721 82.4007 397.221 83.0007C397.021 83.2007 396.921 83.4007 396.721 83.5007C396.521 83.5007 396.221 83.5007 396.021 83.5007C395.521 84.0007 394.921 84.5007 394.421 85.0007C394.121 85.0007 393.921 85.0006 393.621 85.1006C393.221 85.5006 392.721 86.0007 392.321 86.4007C391.921 86.6007 391.321 86.4007 391.021 86.9007C390.821 87.3007 390.421 87.2007 390.021 87.2007C389.521 87.7007 389.021 88.2007 388.421 88.7007C388.221 88.7007 387.921 88.7007 387.721 88.7007C387.221 89.2007 386.921 89.7007 386.421 90.0007C385.921 90.3007 385.221 90.2007 384.921 90.8007C384.121 90.8007 383.621 91.3007 383.121 91.9007C382.921 92.1007 382.821 92.3007 382.621 92.4007C382.421 92.4007 382.121 92.4007 381.621 92.4007C381.221 92.9007 380.821 93.4007 380.421 93.9007C379.621 93.7007 379.321 94.1007 379.021 94.4007C378.921 94.5007 378.821 94.5007 378.721 94.5007C378.621 94.5007 378.521 94.5007 378.321 94.5007C335.021 94.5007 291.721 94.5007 248.421 94.5007C247.321 94.5007 246.221 94.5007 245.021 94.5007C244.921 94.5007 238.101 94.5005 238.001 94.5005C237.901 94.6005 232.501 94.5005 236.501 92.0005C236.501 97.7005 223.175 93.3272 220.501 92.0005C221.055 93.7421 244.921 94.518 245.221 94.5188C245.221 94.5233 245.221 94.5281 245.221 94.5327C245.621 94.5345 246.921 94.5324 246.821 94.5356C247.221 94.5356 247.521 94.5356 247.721 94.5356C248.521 94.5377 249.321 94.5396 250.021 94.5415C250.421 94.5417 250.621 94.5417 250.621 94.5417C251.121 94.5428 251.521 94.5436 251.821 94.5444C251.821 94.5444 251.821 94.546 251.921 94.5466C252.921 94.5492 253.821 94.5516 254.821 94.5543L254.821 94.5562C255.321 94.5575 255.821 94.5591 256.321 94.5605C256.321 94.5605 256.321 94.5618 256.421 94.5626C256.921 94.5637 257.221 94.5666 257.221 94.5666C257.621 94.5677 258.121 94.569 258.521 94.5701C258.721 94.5719 258.621 94.573 259.321 94.5741L259.321 94.576C259.521 94.5768 259.821 94.5773 260.121 94.5781L260.121 94.58C260.621 94.581 260.921 94.584 260.921 94.584C261.621 94.585 261.421 94.5874 262.021 94.5888C262.521 94.5901 262.321 94.5925 263.121 94.5936C263.121 94.5936 263.321 94.5968 263.921 94.5976L263.921 94.6016C264.221 94.6024 264.421 94.6032 264.721 94.6038L264.721 94.6056C265.021 94.6064 265.221 94.6072 265.421 94.6078C265.421 94.6078 265.421 94.6091 265.521 94.6099C265.721 94.6104 265.921 94.611 266.121 94.6115C266.221 94.6128 266.221 94.6144 266.321 94.616C266.521 94.6166 266.721 94.6171 266.821 94.6174L266.921 94.6193C266.921 94.6332 266.921 94.6471 266.921 94.6609C266.921 94.6609 266.821 94.6615 266.721 94.662C266.421 94.662 266.121 94.6623 265.821 94.6623C265.721 94.662 265.521 94.6615 265.521 94.6615C265.421 94.6604 265.421 94.6585 265.421 94.6585C265.421 94.6444 265.421 94.6299 265.421 94.6158C265.221 94.6152 264.921 94.6144 264.721 94.6136L264.721 94.6118C264.421 94.611 264.221 94.6102 263.921 94.6096L263.921 94.6056C263.621 94.6046 263.121 94.604 263.221 94.6024C263.321 94.6008 262.521 94.5992 262.521 94.5992C262.521 94.5992 262.121 94.5971 261.921 94.596C261.621 94.5949 261.821 94.5933 261.421 94.5925C261.221 94.5923 261.021 94.5915 261.121 94.5909C261.221 94.5893 260.721 94.5888 260.421 94.5877L260.421 94.5858C260.121 94.585 259.921 94.5845 259.621 94.5837L259.621 94.5818C259.321 94.5808 258.821 94.5802 258.921 94.5786C259.021 94.5773 258.221 94.5754 258.221 94.5754C258.221 94.5754 257.821 94.5733 257.621 94.5722C257.421 94.5711 257.521 94.5695 257.121 94.5687C256.721 94.5682 256.821 94.5661 256.821 94.5661C256.321 94.5647 255.821 94.5634 255.321 94.5618L255.321 94.5599C254.921 94.5589 254.421 94.5575 254.021 94.5564C253.921 94.5556 253.821 94.5543 253.821 94.5543C251.821 94.549 250.021 94.5442 248.121 94.5391C248.021 94.5391 247.721 94.5391 247.521 94.5388C247.121 94.5377 246.621 94.5364 246.221 94.5353C246.021 94.5353 245.821 94.5356 245.721 94.5361C245.621 94.538 245.721 94.5417 245.721 94.5417C245.521 94.5425 245.321 94.5428 245.021 94.5428C244.621 94.5428 244.221 94.5415 244.221 94.5415L244.221 94.5359C244.021 94.5353 243.921 94.5351 243.821 94.5351C242.821 94.5351 241.821 94.5351 240.821 94.5351C240.521 94.5356 240.321 94.5364 240.021 94.5369C239.821 94.5369 239.521 94.5369 239.321 94.5369C238.921 94.5383 238.421 94.5393 237.921 94.5391C237.221 94.5407 236.521 94.5423 236.021 94.5436C236.021 94.5436 236.021 94.5452 235.921 94.546C235.521 94.5471 235.021 94.5484 234.621 94.5495C234.521 94.5503 234.421 94.5514 234.321 94.5522C233.921 94.5532 233.421 94.5546 233.021 94.5556L233.021 94.5575C232.721 94.5583 232.521 94.5591 232.221 94.5597L232.221 94.5615C231.821 94.5626 231.321 94.5639 230.821 94.5653C230.721 94.5666 230.721 94.5682 230.621 94.5698C229.721 94.5709 230.221 94.5744 229.321 94.5754C229.221 94.5762 229.321 94.5773 229.021 94.5781C228.821 94.5786 228.621 94.5789 228.521 94.5794L228.521 94.5834C228.221 94.5842 228.021 94.585 227.721 94.5856L227.721 94.5874C227.421 94.5883 227.221 94.5891 226.921 94.5896L226.921 94.5933C226.721 94.5939 226.521 94.5944 226.321 94.5949L226.221 94.5976C225.921 94.6003 225.621 94.6013 225.121 94.6021Z" fill="#E50914"/>
</g>
<g filter="url(#filter1_n_2858_539)">
<path d="M9.68235 30.3939C8.01939 30.3939 6.57525 29.9562 5.34991 29.081C4.14645 28.1839 3.21651 26.9148 2.56008 25.2737C1.92553 23.6107 1.60826 21.6305 1.60826 19.333C1.60826 15.7445 2.36315 13.0094 3.87294 11.1276C5.38273 9.22397 7.57083 8.27215 10.4372 8.27215C11.6407 8.27215 12.7348 8.45813 13.7194 8.83011C14.704 9.18021 15.6449 9.74912 16.5421 10.5368L14.7369 13.261C14.0804 12.6702 13.4021 12.2436 12.7019 11.981C12.0017 11.6965 11.2578 11.5543 10.4701 11.5543C6.92534 11.5543 5.15298 14.1472 5.15298 19.333C5.15298 24.5188 6.88158 27.1117 10.3388 27.1117C11.586 27.1117 12.6801 26.7288 13.6209 25.963V20.9741H9.84646V17.7576H17.1V30H14.8025L14.4743 28.4902C13.7741 29.1466 13.0301 29.628 12.2424 29.9344C11.4766 30.2407 10.6232 30.3939 9.68235 30.3939ZM26.8178 30V11.9153H20.0893V8.666H37.0253V11.9153H30.2968V30H26.8178ZM39.9818 30V8.666H44.2157L47.5307 20.1864L50.8457 8.666H55.2109V30H52.0273V13.5892L48.4825 25.7988H46.5461L43.0013 13.5892V30H39.9818ZM79.504 30V8.666H82.9831V26.7835H93.289V30H79.504ZM104.713 30.3939C102.022 30.3939 99.9872 29.4639 98.6087 27.604C97.2302 25.7223 96.5409 22.9653 96.5409 19.333C96.5409 15.6789 97.2302 12.9219 98.6087 11.062C99.9872 9.20209 102.022 8.27215 104.713 8.27215C107.405 8.27215 109.44 9.20209 110.818 11.062C112.197 12.9219 112.886 15.6789 112.886 19.333C112.886 22.9653 112.197 25.7223 110.818 27.604C109.44 29.4639 107.405 30.3939 104.713 30.3939ZM104.713 27.1117C107.799 27.1117 109.341 24.5188 109.341 19.333C109.341 14.1472 107.799 11.5543 104.713 11.5543C101.628 11.5543 100.086 14.1472 100.086 19.333C100.086 24.5188 101.628 27.1117 104.713 27.1117ZM123.753 30.3939C121.061 30.3939 119.026 29.4639 117.648 27.604C116.269 25.7223 115.58 22.9653 115.58 19.333C115.58 15.6789 116.269 12.9219 117.648 11.062C119.026 9.20209 121.061 8.27215 123.753 8.27215C126.444 8.27215 128.479 9.20209 129.857 11.062C131.236 12.9219 131.925 15.6789 131.925 19.333C131.925 22.9653 131.236 25.7223 129.857 27.604C128.479 29.4639 126.444 30.3939 123.753 30.3939ZM123.753 27.1117C126.838 27.1117 128.38 24.5188 128.38 19.333C128.38 14.1472 126.838 11.5543 123.753 11.5543C120.667 11.5543 119.125 14.1472 119.125 19.333C119.125 24.5188 120.667 27.1117 123.753 27.1117ZM135.965 30V8.666H143.94C146.194 8.666 147.901 9.21303 149.061 10.3071C150.242 11.3793 150.833 12.9437 150.833 15.0006C150.833 17.0574 150.242 18.6328 149.061 19.7269C147.901 20.799 146.194 21.3351 143.94 21.3351H139.477V30H135.965ZM139.477 18.1186H143.612C144.925 18.1186 145.866 17.8779 146.435 17.3965C147.004 16.9151 147.288 16.1165 147.288 15.0006C147.288 13.8846 147.004 13.086 146.435 12.6046C145.866 12.1232 144.925 11.8825 143.612 11.8825H139.477V18.1186ZM171.975 30L178.999 8.666H182.741L189.764 30H186.121L184.48 24.9127H177.095L175.454 30H171.975ZM178.08 21.6962H183.463L180.771 13.0969L178.08 21.6962ZM201.189 30.3939C198.322 30.3939 196.134 29.453 194.624 27.5712C193.115 25.6676 192.36 22.9215 192.36 19.333C192.36 15.7445 193.115 13.0094 194.624 11.1276C196.134 9.22397 198.322 8.27215 201.189 8.27215C202.392 8.27215 203.486 8.45813 204.471 8.83011C205.456 9.18021 206.396 9.74912 207.294 10.5368L205.488 13.261C204.832 12.6702 204.154 12.2436 203.453 11.981C202.753 11.6965 202.009 11.5543 201.222 11.5543C197.677 11.5543 195.905 14.1472 195.905 19.333C195.905 24.5188 197.677 27.1117 201.222 27.1117C202.119 27.1117 202.939 26.9476 203.683 26.6194C204.449 26.2693 205.215 25.7113 205.981 24.9455L207.95 27.5056C206.943 28.5121 205.904 29.2451 204.832 29.7046C203.76 30.1641 202.545 30.3939 201.189 30.3939ZM217.208 30V11.9153H210.48V8.666H227.416V11.9153H220.687V30H217.208ZM230.963 30V26.7835H236.247V11.8825H230.963V8.666H245.011V11.8825H239.726V26.7835H245.011V30H230.963ZM255.155 30L248.427 8.666H252.07L257.124 25.0111L262.146 8.666H265.625L258.897 30H255.155ZM269.73 30V8.666H283.483V11.8825H273.209V17.5278H281.907V20.7443H273.209V26.7835H283.483V30H269.73ZM7.7787 69V50.9153H1.05029V47.666H17.9862V50.9153H11.2578V69H7.7787ZM22.2227 69V47.666H35.975V50.8825H25.7018V56.5278H34.3995V59.7443H25.7018V65.7835H35.975V69H22.2227ZM47.3666 69.3939C45.8568 69.3939 44.4564 69.175 43.1654 68.7374C41.8745 68.2998 40.6929 67.6215 39.6207 66.7025L41.4259 63.9127C42.2793 64.6566 43.2092 65.2146 44.2157 65.5866C45.2223 65.9367 46.3054 66.1117 47.4651 66.1117C48.8436 66.1117 49.8829 65.8491 50.5831 65.324C51.3052 64.777 51.6662 64.0002 51.6662 62.9937C51.6662 62.1841 51.4583 61.5823 51.0426 61.1885C50.6487 60.7727 49.9814 60.4445 49.0405 60.2038L45.5942 59.3833C43.8438 58.9676 42.5528 58.2892 41.7213 57.3484C40.8898 56.4075 40.4741 55.1603 40.4741 53.6067C40.4741 51.6374 41.1305 50.0948 42.4434 48.9789C43.7562 47.8411 45.5942 47.2721 47.9574 47.2721C50.5175 47.2721 52.7931 47.9942 54.7843 49.4384L53.0775 52.2938C51.6334 51.1341 49.9157 50.5543 47.9246 50.5543C46.6336 50.5543 45.6489 50.8059 44.9706 51.3092C44.3142 51.7906 43.986 52.5017 43.986 53.4426C43.986 54.1428 44.1829 54.7008 44.5768 55.1165C44.9925 55.5104 45.6708 55.8167 46.6117 56.0355L50.058 56.8889C51.8084 57.3046 53.0994 57.9829 53.9309 58.9238C54.7624 59.8428 55.1781 61.1447 55.1781 62.8296C55.1781 64.8645 54.4998 66.4727 53.1432 67.6543C51.7866 68.814 49.861 69.3939 47.3666 69.3939ZM64.8959 69V50.9153H58.1674V47.666H75.1034V50.9153H68.3749V69H64.8959ZM106.059 67.4574L104.221 65.6522L108.751 61.09H95.9501V58.4315H108.751L104.221 53.8693L106.059 52.0641L113.739 59.7771L106.059 67.4574ZM136.621 69V47.666H140.1V65.7835H150.406V69H136.621ZM155.496 69V47.666H169.248V50.8825H158.975V56.5278H167.673V59.7443H158.975V65.7835H169.248V69H155.496ZM171.975 69L178.999 47.666H182.741L189.764 69H186.121L184.48 63.9127H177.095L175.454 69H171.975ZM178.08 60.6962H183.463L180.771 52.0969L178.08 60.6962ZM192.885 69V47.666H200.565C202.797 47.666 204.482 48.2021 205.62 49.2743C206.779 50.3245 207.359 51.8781 207.359 53.9349C207.359 57.1952 205.915 59.1864 203.027 59.9084L208.377 69H204.307L199.219 60.171H196.397V69H192.885ZM196.397 56.9873H200.27C201.539 56.9873 202.447 56.7466 202.994 56.2652C203.541 55.7839 203.815 55.0071 203.815 53.9349C203.815 52.8409 203.541 52.0641 202.994 51.6046C202.447 51.1232 201.539 50.8825 200.27 50.8825H196.397V56.9873ZM211.661 69V47.666H215.666L223.083 62.5342V47.666H226.234V69H222.886L214.812 52.7533V69H211.661ZM258.372 67.4574L256.534 65.6522L261.063 61.09H248.263V58.4315H261.063L256.534 53.8693L258.372 52.0641L266.052 59.7771L258.372 67.4574ZM294.874 69.3939C293.364 69.3939 291.964 69.175 290.673 68.7374C289.382 68.2998 288.201 67.6215 287.128 66.7025L288.934 63.9127C289.787 64.6566 290.717 65.2146 291.723 65.5866C292.73 65.9367 293.813 66.1117 294.973 66.1117C296.351 66.1117 297.391 65.8491 298.091 65.324C298.813 64.777 299.174 64.0002 299.174 62.9937C299.174 62.1841 298.966 61.5823 298.55 61.1885C298.156 60.7727 297.489 60.4445 296.548 60.2038L293.102 59.3833C291.351 58.9676 290.06 58.2892 289.229 57.3484C288.397 56.4075 287.982 55.1603 287.982 53.6067C287.982 51.6374 288.638 50.0948 289.951 48.9789C291.264 47.8411 293.102 47.2721 295.465 47.2721C298.025 47.2721 300.301 47.9942 302.292 49.4384L300.585 52.2938C299.141 51.1341 297.423 50.5543 295.432 50.5543C294.141 50.5543 293.157 50.8059 292.478 51.3092C291.822 51.7906 291.494 52.5017 291.494 53.4426C291.494 54.1428 291.691 54.7008 292.084 55.1165C292.5 55.5104 293.178 55.8167 294.119 56.0355L297.566 56.8889C299.316 57.3046 300.607 57.9829 301.439 58.9238C302.27 59.8428 302.686 61.1447 302.686 62.8296C302.686 64.8645 302.007 66.4727 300.651 67.6543C299.294 68.814 297.369 69.3939 294.874 69.3939ZM315.423 69.3939C312.557 69.3939 310.369 68.453 308.859 66.5712C307.349 64.6676 306.594 61.9215 306.594 58.333C306.594 54.7445 307.349 52.0094 308.859 50.1276C310.369 48.224 312.557 47.2721 315.423 47.2721C316.627 47.2721 317.721 47.4581 318.705 47.8301C319.69 48.1802 320.631 48.7491 321.528 49.5368L319.723 52.261C319.066 51.6702 318.388 51.2436 317.688 50.981C316.988 50.6965 316.244 50.5543 315.456 50.5543C311.911 50.5543 310.139 53.1472 310.139 58.333C310.139 63.5188 311.911 66.1117 315.456 66.1117C316.353 66.1117 317.174 65.9476 317.918 65.6194C318.683 65.2693 319.449 64.7113 320.215 63.9455L322.184 66.5056C321.178 67.5121 320.138 68.2451 319.066 68.7046C317.994 69.1641 316.78 69.3939 315.423 69.3939ZM324.287 69L331.311 47.666H335.053L342.077 69H338.434L336.792 63.9127H329.408L327.767 69H324.287ZM330.392 60.6962H335.775L333.084 52.0969L330.392 60.6962ZM346.051 69V47.666H349.53V65.7835H359.836V69H346.051ZM364.926 69V47.666H378.678V50.8825H368.405V56.5278H377.102V59.7443H368.405V65.7835H378.678V69H364.926Z" fill="#E50914"/>
</g>
<g filter="url(#filter2_n_2858_539)">
<path d="M87 79.2096C87 76.8847 88.896 75 91.2349 75H119.765C122.104 75 124 76.8847 124 79.2096V107.79C124 110.115 122.104 112 119.765 112H91.2349C88.896 112 87 110.115 87 107.79V79.2096Z" fill="#E50914"/>
</g>
<defs>
<filter id="filter0_n_2858_539" x="120" y="30" width="358.721" height="64.9141" filterUnits="userSpaceOnUse" color-interpolation-filters="sRGB">
<feFlood flood-opacity="0" result="BackgroundImageFix"/>
<feBlend mode="normal" in="SourceGraphic" in2="BackgroundImageFix" result="shape"/>
<feTurbulence type="fractalNoise" baseFrequency="2 2" stitchTiles="stitch" numOctaves="3" result="noise" seed="1499" />
<feColorMatrix in="noise" type="luminanceToAlpha" result="alphaNoise" />
<feComponentTransfer in="alphaNoise" result="coloredNoise1">
<feFuncA type="discrete" tableValues="1 1 1 1 1 1 1 1 1 1 1 1 1 1 1 1 1 1 1 1 1 1 1 1 1 1 1 1 1 1 1 1 1 1 1 1 1 1 1 1 1 1 1 1 1 1 1 1 1 1 1 0 0 0 0 0 0 0 0 0 0 0 0 0 0 0 0 0 0 0 0 0 0 0 0 0 0 0 0 0 0 0 0 0 0 0 0 0 0 0 0 0 0 0 0 0 0 0 0 0 "/>
</feComponentTransfer>
<feComposite operator="in" in2="shape" in="coloredNoise1" result="noise1Clipped" />
<feFlood flood-color="rgba(227, 227, 227, 0.25)" result="color1Flood" />
<feComposite operator="in" in2="noise1Clipped" in="color1Flood" result="color1" />
<feMerge result="effect1_noise_2858_539">
<feMergeNode in="shape" />
<feMergeNode in="color1" />
</feMerge>
</filter>
<filter id="filter1_n_2858_539" x="1.05078" y="8.27148" width="377.627" height="61.123" filterUnits="userSpaceOnUse" color-interpolation-filters="sRGB">
<feFlood flood-opacity="0" result="BackgroundImageFix"/>
<feBlend mode="normal" in="SourceGraphic" in2="BackgroundImageFix" result="shape"/>
<feTurbulence type="fractalNoise" baseFrequency="2 2" stitchTiles="stitch" numOctaves="3" result="noise" seed="1499" />
<feColorMatrix in="noise" type="luminanceToAlpha" result="alphaNoise" />
<feComponentTransfer in="alphaNoise" result="coloredNoise1">
<feFuncA type="discrete" tableValues="1 1 1 1 1 1 1 1 1 1 1 1 1 1 1 1 1 1 1 1 1 1 1 1 1 1 1 1 1 1 1 1 1 1 1 1 1 1 1 1 1 1 1 1 1 1 1 1 1 1 1 0 0 0 0 0 0 0 0 0 0 0 0 0 0 0 0 0 0 0 0 0 0 0 0 0 0 0 0 0 0 0 0 0 0 0 0 0 0 0 0 0 0 0 0 0 0 0 0 0 "/>
</feComponentTransfer>
<feComposite operator="in" in2="shape" in="coloredNoise1" result="noise1Clipped" />
<feFlood flood-color="rgba(227, 227, 227, 0.25)" result="color1Flood" />
<feComposite operator="in" in2="noise1Clipped" in="color1Flood" result="color1" />
<feMerge result="effect1_noise_2858_539">
<feMergeNode in="shape" />
<feMergeNode in="color1" />
</feMerge>
</filter>
<filter id="filter2_n_2858_539" x="87" y="75" width="37" height="37" filterUnits="userSpaceOnUse" color-interpolation-filters="sRGB">
<feFlood flood-opacity="0" result="BackgroundImageFix"/>
<feBlend mode="normal" in="SourceGraphic" in2="BackgroundImageFix" result="shape"/>
<feTurbulence type="fractalNoise" baseFrequency="2 2" stitchTiles="stitch" numOctaves="3" result="noise" seed="1499" />
<feColorMatrix in="noise" type="luminanceToAlpha" result="alphaNoise" />
<feComponentTransfer in="alphaNoise" result="coloredNoise1">
<feFuncA type="discrete" tableValues="1 1 1 1 1 1 1 1 1 1 1 1 1 1 1 1 1 1 1 1 1 1 1 1 1 1 1 1 1 1 1 1 1 1 1 1 1 1 1 1 1 1 1 1 1 1 1 1 1 1 1 0 0 0 0 0 0 0 0 0 0 0 0 0 0 0 0 0 0 0 0 0 0 0 0 0 0 0 0 0 0 0 0 0 0 0 0 0 0 0 0 0 0 0 0 0 0 0 0 0 "/>
</feComponentTransfer>
<feComposite operator="in" in2="shape" in="coloredNoise1" result="noise1Clipped" />
<feFlood flood-color="rgba(227, 227, 227, 0.25)" result="color1Flood" />
<feComposite operator="in" in2="noise1Clipped" in="color1Flood" result="color1" />
<feMerge result="effect1_noise_2858_539">
<feMergeNode in="shape" />
<feMergeNode in="color1" />
</feMerge>
</filter>
</defs>
</svg>
