<svg width="496" height="314" viewBox="0 0 496 314" fill="none" xmlns="http://www.w3.org/2000/svg">
<path d="M342.765 259.837C341.782 260.046 340.795 260.258 339.804 260.471C338.813 260.684 337.82 260.894 336.826 261.102C335.844 261.311 334.857 261.522 333.866 261.736C332.883 261.945 331.896 262.156 330.905 262.369L329.206 258.757C330.197 258.543 331.184 258.332 332.167 258.123C333.158 257.91 334.145 257.698 335.127 257.489C336.121 257.282 337.114 257.072 338.105 256.858C339.096 256.645 340.083 256.434 341.066 256.225L342.765 259.837Z" fill="white"/>
<path d="M3.04639 300.391C2.56636 300.391 2.36326 300.169 2.43712 299.726L7.97601 264.776C8.04987 264.332 8.27142 264.111 8.64068 264.111H13.8472C14.3273 264.111 14.5304 264.332 14.4565 264.776L8.91763 299.726C8.84378 300.169 8.62222 300.391 8.25296 300.391H3.04639ZM14.1653 300.391C13.6853 300.391 13.4822 300.169 13.556 299.726L19.0949 264.776C19.1688 264.332 19.3903 264.111 19.7596 264.111H27.1263C27.3848 264.111 27.5694 264.166 27.6802 264.277C27.791 264.388 27.8648 264.554 27.9018 264.776L33.8838 282.611C34.4746 284.272 35.01 285.934 35.4901 287.596C35.9701 289.257 36.4501 290.845 36.9302 292.359H37.041C37.1887 290.808 37.3548 289.276 37.5395 287.762C37.7241 286.248 37.9456 284.734 38.2041 283.22L41.0843 264.776C41.1582 264.332 41.3982 264.111 41.8044 264.111H46.8448C47.3248 264.111 47.5279 264.332 47.4541 264.776L41.8598 299.726C41.7859 300.169 41.5644 300.391 41.1951 300.391H33.9946C33.5884 300.391 33.3114 300.169 33.1637 299.726L27.4587 282.777C26.8678 280.968 26.2955 279.177 25.7416 277.404C25.1877 275.595 24.6707 273.915 24.1907 272.364H24.0799C23.8584 274.062 23.6368 275.743 23.4153 277.404C23.1937 279.066 22.9352 280.746 22.6398 282.445L19.8704 299.726C19.7965 300.169 19.575 300.391 19.2057 300.391H14.1653ZM47.191 300.391C46.7109 300.391 46.5079 300.169 46.5817 299.726L52.1206 264.776C52.1945 264.332 52.416 264.111 52.7853 264.111H57.9918C58.4719 264.111 58.675 264.332 58.6011 264.776L53.0622 299.726C52.9884 300.169 52.7668 300.391 52.3975 300.391H47.191ZM57.5344 300.391C57.0913 300.391 56.8882 300.169 56.9252 299.726L63.2395 264.776C63.3134 264.332 63.5349 264.111 63.9042 264.111H70.717C70.9386 264.111 71.1047 264.166 71.2155 264.277C71.3263 264.388 71.4002 264.554 71.4371 264.776L77.1975 284.882L89.3277 264.776C89.5862 264.332 89.9001 264.111 90.2693 264.111H97.3037C97.7468 264.111 97.9315 264.332 97.8576 264.776L93.0942 299.726C93.0203 300.169 92.7988 300.391 92.4295 300.391H87.2783C86.8721 300.391 86.6875 300.169 86.7244 299.726L89.1616 281.725C89.3462 280.284 89.5862 278.826 89.8816 277.349C90.177 275.835 90.4724 274.358 90.7678 272.918H90.6017C89.8262 274.321 88.9954 275.761 88.1092 277.238C87.2599 278.678 86.3736 280.118 85.4505 281.558L76.4221 295.96C76.2375 296.255 75.979 296.403 75.6466 296.403H75.4251C75.0558 296.403 74.8343 296.255 74.7604 295.96L70.3847 281.392C69.9416 279.989 69.5169 278.567 69.1107 277.127C68.7046 275.687 68.3353 274.284 68.003 272.918H67.8368C67.6891 274.321 67.5045 275.761 67.2829 277.238C67.0983 278.715 66.8767 280.174 66.6182 281.614L63.3503 299.726C63.2395 300.169 63.018 300.391 62.6856 300.391H57.5344ZM97.6101 300.391C97.1301 300.391 96.927 300.169 97.0008 299.726L102.54 264.776C102.614 264.332 102.835 264.111 103.204 264.111H108.411C108.891 264.111 109.094 264.332 109.02 264.776L103.481 299.726C103.407 300.169 103.186 300.391 102.817 300.391H97.6101ZM120.693 301.055C117.997 301.055 115.726 300.501 113.88 299.394C112.071 298.249 110.778 296.624 110.003 294.519C109.264 292.415 109.117 289.922 109.56 287.042L111.166 276.629C111.831 272.308 113.437 269.04 115.985 266.825C118.57 264.572 122.207 263.446 126.897 263.446C129.961 263.446 132.509 263.926 134.54 264.886C136.608 265.846 138.085 267.25 138.971 269.096C139.858 270.905 140.061 273.065 139.581 275.576C139.544 275.983 139.341 276.186 138.971 276.186H133.765C133.322 276.186 133.137 275.964 133.211 275.521C133.506 273.49 133.063 271.939 131.882 270.868C130.7 269.761 128.835 269.207 126.287 269.207C123.703 269.207 121.708 269.834 120.305 271.09C118.902 272.345 117.997 274.302 117.591 276.961L116.04 286.82C115.597 289.664 115.948 291.787 117.093 293.19C118.237 294.556 120.102 295.239 122.687 295.239C125.235 295.239 127.247 294.63 128.724 293.412C130.238 292.193 131.198 290.402 131.605 288.039L131.882 286.377H124.515C124.072 286.377 123.887 286.174 123.961 285.768L124.515 282.112C124.626 281.669 124.847 281.448 125.18 281.448H138.141C138.584 281.448 138.768 281.669 138.694 282.112L137.088 292.304C136.867 293.781 136.682 295.147 136.534 296.403C136.424 297.621 136.368 298.729 136.368 299.726C136.368 300.169 136.147 300.391 135.703 300.391H131.494C131.051 300.391 130.829 300.169 130.829 299.726C130.829 299.32 130.848 298.803 130.885 298.175C130.958 297.547 131.014 296.957 131.051 296.403H130.995C130.146 297.437 129.204 298.304 128.171 299.006C127.174 299.671 126.047 300.169 124.792 300.501C123.573 300.871 122.207 301.055 120.693 301.055ZM154.617 301.055C149.779 301.055 146.29 299.8 144.148 297.289C142.043 294.778 141.342 291.307 142.043 286.876L143.705 276.573C144.407 272.142 146.05 268.856 148.635 266.714C151.256 264.535 154.894 263.446 159.546 263.446C164.384 263.446 167.873 264.702 170.015 267.213C172.156 269.687 172.858 273.158 172.12 277.626L170.513 287.928C169.812 292.359 168.15 295.664 165.528 297.843C162.943 299.984 159.306 301.055 154.617 301.055ZM155.337 295.239C157.848 295.276 159.823 294.686 161.263 293.467C162.703 292.212 163.645 290.273 164.088 287.651L165.639 277.737C166.119 274.893 165.768 272.77 164.587 271.367C163.405 269.964 161.503 269.262 158.882 269.262C156.334 269.225 154.34 269.816 152.9 271.034C151.459 272.253 150.536 274.192 150.13 276.85L148.579 286.765C148.136 289.608 148.487 291.731 149.632 293.135C150.776 294.538 152.678 295.239 155.337 295.239ZM184.08 301.055C181.199 301.055 178.762 300.668 176.768 299.892C174.774 299.117 173.371 297.917 172.559 296.292C171.746 294.667 171.599 292.581 172.116 290.033C172.226 289.59 172.503 289.368 172.946 289.368H177.821C178.338 289.368 178.541 289.608 178.43 290.088C178.208 291.381 178.319 292.415 178.762 293.19C179.205 293.966 179.944 294.538 180.978 294.907C182.012 295.239 183.23 295.406 184.634 295.406C186.96 295.406 188.695 294.999 189.84 294.187C191.022 293.375 191.613 292.212 191.613 290.698C191.613 289.959 191.465 289.331 191.169 288.814C190.911 288.297 190.486 287.817 189.896 287.374C189.305 286.894 188.511 286.414 187.514 285.934L181.089 282.832C179.685 282.168 178.541 281.429 177.655 280.617C176.768 279.767 176.104 278.807 175.661 277.737C175.217 276.629 174.996 275.373 174.996 273.97C174.996 270.647 176.178 268.08 178.541 266.271C180.904 264.425 184.135 263.502 188.234 263.502C191.003 263.502 193.348 263.889 195.268 264.665C197.225 265.44 198.629 266.622 199.478 268.21C200.327 269.797 200.512 271.81 200.032 274.247C199.921 274.69 199.699 274.912 199.367 274.912H194.271C193.828 274.912 193.643 274.672 193.717 274.192C193.939 272.345 193.496 271.034 192.388 270.259C191.28 269.484 189.748 269.096 187.791 269.096C185.871 269.096 184.357 269.484 183.249 270.259C182.141 270.998 181.587 272.05 181.587 273.416C181.587 274.007 181.716 274.579 181.975 275.133C182.233 275.65 182.621 276.13 183.138 276.573C183.692 276.98 184.412 277.404 185.298 277.847L191.723 280.949C193.237 281.651 194.474 282.445 195.434 283.331C196.431 284.217 197.151 285.214 197.595 286.322C198.038 287.43 198.259 288.722 198.259 290.199C198.259 293.633 197.041 296.31 194.604 298.23C192.166 300.114 188.658 301.055 184.08 301.055ZM208.269 300.391C207.789 300.391 207.586 300.169 207.66 299.726L213.199 264.776C213.273 264.332 213.494 264.111 213.863 264.111H224.11C229.871 264.111 234.006 265.477 236.517 268.21C239.028 270.905 239.841 275.004 238.955 280.506L238.456 283.608C237.865 287.374 236.813 290.513 235.299 293.024C233.785 295.498 231.736 297.344 229.151 298.563C226.566 299.781 223.353 300.391 219.513 300.391H208.269ZM214.971 294.741H219.735C223.427 294.741 226.234 293.873 228.154 292.138C230.074 290.365 231.348 287.559 231.976 283.719L232.529 280.229C233.12 276.684 232.696 274.062 231.256 272.364C229.815 270.628 227.194 269.761 223.39 269.761H218.904L214.971 294.741ZM234.488 300.391C234.266 300.391 234.137 300.335 234.1 300.224C234.026 300.114 234.026 299.948 234.1 299.726L251.326 264.776C251.547 264.332 251.787 264.111 252.046 264.111H259.136C259.468 264.111 259.69 264.332 259.8 264.776L266.059 299.726C266.133 300.169 265.93 300.391 265.45 300.391H259.745C259.376 300.391 259.154 300.169 259.08 299.726L255.868 278.069C255.683 276.74 255.498 275.392 255.314 274.025C255.129 272.622 254.963 271.238 254.815 269.871H254.705C254.151 271.238 253.56 272.604 252.932 273.97C252.341 275.299 251.714 276.666 251.049 278.069L241.023 299.726C240.802 300.169 240.525 300.391 240.193 300.391H234.488ZM243.239 292.802L245.344 287.374H258.582L259.025 292.802H243.239ZM275.162 300.391C274.682 300.391 274.479 300.169 274.553 299.726L280.092 264.776C280.166 264.332 280.387 264.111 280.756 264.111H285.963C286.443 264.111 286.646 264.332 286.572 264.776L281.033 299.726C280.959 300.169 280.738 300.391 280.369 300.391H275.162ZM286.281 300.391C285.801 300.391 285.598 300.169 285.672 299.726L291.211 264.776C291.284 264.332 291.506 264.111 291.875 264.111H299.242C299.501 264.111 299.685 264.166 299.796 264.277C299.907 264.388 299.981 264.554 300.017 264.776L305.999 282.611C306.59 284.272 307.126 285.934 307.606 287.596C308.086 289.257 308.566 290.845 309.046 292.359H309.157C309.304 290.808 309.471 289.276 309.655 287.762C309.84 286.248 310.061 284.734 310.32 283.22L313.2 264.776C313.274 264.332 313.514 264.111 313.92 264.111H318.961C319.441 264.111 319.644 264.332 319.57 264.776L313.976 299.726C313.902 300.169 313.68 300.391 313.311 300.391H306.11C305.704 300.391 305.427 300.169 305.279 299.726L299.574 282.777C298.984 280.968 298.411 279.177 297.857 277.404C297.303 275.595 296.786 273.915 296.306 272.364H296.196C295.974 274.062 295.753 275.743 295.531 277.404C295.309 279.066 295.051 280.746 294.756 282.445L291.986 299.726C291.912 300.169 291.691 300.391 291.321 300.391H286.281ZM319.251 300.391C318.808 300.391 318.624 300.169 318.697 299.726L324.236 264.776C324.31 264.332 324.55 264.111 324.956 264.111H345.672C345.856 264.111 346.004 264.166 346.115 264.277C346.263 264.388 346.3 264.554 346.226 264.776L345.506 269.317C345.432 269.724 345.229 269.927 344.896 269.927H329.886L328.446 279.232H341.961C342.404 279.232 342.589 279.454 342.515 279.897L341.85 284.162C341.776 284.605 341.573 284.826 341.241 284.826H327.56L326.009 294.575H340.798C341.278 294.575 341.481 294.778 341.407 295.184L340.687 299.726C340.613 300.169 340.391 300.391 340.022 300.391H319.251ZM345.245 300.391C344.802 300.391 344.617 300.169 344.691 299.726L350.23 264.776C350.304 264.332 350.544 264.111 350.95 264.111H361.917C366.127 264.111 369.229 264.905 371.223 266.493C373.254 268.043 374.269 270.259 374.269 273.139C374.269 276.167 373.494 278.715 371.943 280.783C370.429 282.814 368.324 284.217 365.628 284.992V285.048L372.109 299.671C372.183 299.818 372.164 299.984 372.053 300.169C371.98 300.317 371.813 300.391 371.555 300.391H365.684C365.314 300.391 365.056 300.206 364.908 299.837L358.982 285.879H353.387L351.172 299.726C351.098 300.169 350.858 300.391 350.452 300.391H345.245ZM354.218 280.672H359.425C362.01 280.672 364.022 280.155 365.462 279.121C366.939 278.087 367.678 276.333 367.678 273.859C367.678 272.345 367.161 271.274 366.127 270.647C365.13 270.019 363.56 269.705 361.419 269.705H355.935L354.218 280.672ZM387.889 301.055C383.125 301.055 379.654 299.8 377.476 297.289C375.334 294.778 374.614 291.27 375.315 286.765L376.977 276.518C377.642 272.161 379.285 268.893 381.907 266.714C384.565 264.535 388.184 263.446 392.763 263.446C395.754 263.446 398.283 263.963 400.351 264.997C402.456 266.031 403.951 267.508 404.838 269.428C405.724 271.348 405.853 273.656 405.225 276.352C405.115 276.795 404.893 277.016 404.561 277.016H399.354C398.948 277.016 398.763 276.795 398.8 276.352C399.206 274.099 398.856 272.364 397.748 271.145C396.677 269.89 394.794 269.262 392.098 269.262C389.587 269.262 387.593 269.871 386.116 271.09C384.676 272.308 383.753 274.21 383.347 276.795L381.796 286.71C381.353 289.59 381.685 291.731 382.793 293.135C383.938 294.538 385.839 295.239 388.498 295.239C391.046 295.239 393.021 294.63 394.425 293.412C395.865 292.193 396.695 290.439 396.917 288.15C396.954 287.707 397.157 287.485 397.526 287.485H402.788C403.231 287.485 403.434 287.707 403.398 288.15C403.287 290.882 402.585 293.209 401.293 295.129C400.037 297.049 398.283 298.526 396.031 299.56C393.778 300.557 391.064 301.055 387.889 301.055ZM406.105 300.391C405.625 300.391 405.422 300.169 405.496 299.726L411.035 264.776C411.109 264.332 411.33 264.111 411.699 264.111H416.906C417.386 264.111 417.589 264.332 417.515 264.776L411.976 299.726C411.902 300.169 411.681 300.391 411.312 300.391H406.105ZM412.959 300.391C412.738 300.391 412.608 300.335 412.571 300.224C412.498 300.114 412.498 299.948 412.571 299.726L429.797 264.776C430.019 264.332 430.259 264.111 430.517 264.111H437.607C437.94 264.111 438.161 264.332 438.272 264.776L444.531 299.726C444.605 300.169 444.402 300.391 443.922 300.391H438.216C437.847 300.391 437.626 300.169 437.552 299.726L434.339 278.069C434.155 276.74 433.97 275.392 433.785 274.025C433.601 272.622 433.435 271.238 433.287 269.871H433.176C432.622 271.238 432.031 272.604 431.404 273.97C430.813 275.299 430.185 276.666 429.52 278.069L419.495 299.726C419.273 300.169 418.996 300.391 418.664 300.391H412.959ZM421.711 292.802L423.815 287.374H437.053L437.496 292.802H421.711Z" fill="white"/>
<path d="M247.418 0C244.09 13.8533 240.762 27.7739 237.434 41.7617C234.106 55.7495 230.731 69.7373 227.308 83.7252C223.98 97.5785 220.652 111.499 217.324 125.487C213.996 139.34 210.668 153.261 207.34 167.249H149.29C152.618 153.261 155.946 139.34 159.274 125.487C162.602 111.499 165.93 97.5785 169.258 83.7252C172.681 69.7373 176.057 55.7495 179.385 41.7617C182.713 27.7739 186.041 13.8533 189.369 0H247.418Z" fill="white"/>
<path d="M308.883 61.672C305.417 76.1 301.951 90.598 298.485 105.166C295.019 119.734 291.503 134.302 287.938 148.87C284.472 163.298 281.006 177.796 277.54 192.365C274.074 206.793 270.608 221.291 267.142 235.859H206.684C210.15 221.291 213.616 206.793 217.082 192.365C220.548 177.796 224.014 163.298 227.48 148.87C231.045 134.302 234.561 119.734 238.027 105.166C241.493 90.598 244.959 76.1 248.425 61.672H308.883Z" fill="white"/>
<path d="M446.838 265.056H445.087V269.575H443.903V265.056H442.176V264.195H446.838V265.056ZM449.05 264.195L450.52 268.081L451.985 264.195H453.533V269.575H452.337V268.081L452.469 265.534L450.921 269.575H450.114L448.572 265.54L448.691 268.081V269.575H447.514V264.195H449.05Z" fill="white"/>
</svg>
