<svg width="228" height="308" viewBox="0 0 228 308" fill="none" xmlns="http://www.w3.org/2000/svg">
<path d="M127.56 0C123.234 18.0402 118.908 36.1679 114.582 54.3832C110.256 72.5985 105.868 90.8138 101.418 109.029C97.0918 127.069 92.7656 145.197 88.4394 163.412C84.1132 181.452 79.7871 199.58 75.4609 217.795H0C4.32618 199.58 8.65235 181.452 12.9785 163.412C17.3047 145.197 21.6309 127.069 25.9571 109.029C30.4068 90.8138 34.7948 72.5985 39.121 54.3832C43.4472 36.1679 47.7734 18.0402 52.0995 0H127.56Z" fill="white"/>
<path d="M207.46 80.3109C202.955 99.0994 198.449 117.979 193.944 136.95C189.438 155.921 184.868 174.892 180.234 193.863C175.728 212.651 171.222 231.531 166.717 250.502C162.211 269.291 157.705 288.17 153.2 307.141H74.6084C79.114 288.17 83.6196 269.291 88.1253 250.502C92.6309 231.531 97.1366 212.651 101.642 193.863C106.277 174.892 110.847 155.921 115.352 136.95C119.858 117.979 124.364 99.0994 128.869 80.3109H207.46Z" fill="white"/>
<path d="M217.916 81.1091H215.981V86.1011H214.673V81.1091H212.765V80.1582H217.916V81.1091ZM220.359 80.1582L221.983 84.4503L223.601 80.1582H225.311V86.1011H223.991V84.4503L224.136 81.6373L222.426 86.1011H221.534L219.831 81.6439L219.963 84.4503V86.1011H218.662V80.1582H220.359Z" fill="white"/>
</svg>
