<svg width="464" height="154" viewBox="0 0 464 154" fill="none" xmlns="http://www.w3.org/2000/svg">
<g filter="url(#filter0_n_2612_2191)">
<path d="M6.76837 22.5605H4.51231V-4.885e-05H6.76837V22.5605ZM0.000197611 29.3287H11.2805V38.3529H2.25625V45.1211H0.000197611V29.3287ZM9.02443 36.0969V31.5848H2.25625V36.0969H9.02443ZM2.25625 22.5605H0.000197611V-4.885e-05H2.25625V22.5605ZM27.1006 22.5605H24.8445V-4.885e-05H27.1006V22.5605ZM22.5885 22.5605H20.3324V-4.885e-05H22.5885V22.5605ZM29.3566 29.3287V36.0969H31.6127V45.1211H29.3566V38.3529H22.5885V45.1211H20.3324V29.3287H29.3566ZM27.1006 36.0969V31.5848H22.5885V36.0969H27.1006ZM33.8688 22.5605H31.6127V-4.885e-05H33.8688V22.5605ZM42.9207 22.5605H40.6646V-4.885e-05H42.9207V22.5605ZM56.457 22.5605H47.4328V-4.885e-05H56.457V22.5605ZM40.6646 45.1211V29.3287H51.9449V45.1211H40.6646ZM42.9207 31.5848V42.865H49.6888V31.5848H42.9207ZM63.2529 22.5605H60.9968V-4.885e-05H63.2529V22.5605ZM74.5332 22.5605H72.2771V-4.885e-05H74.5332V22.5605ZM70.0211 29.3287V36.0969H72.2771V45.1211H60.9968V29.3287H70.0211ZM63.2529 31.5848V36.0969H67.765V31.5848H63.2529ZM70.0211 42.865V38.3529H63.2529V42.865H70.0211ZM83.5851 29.3287V42.865H90.3533V45.1211H81.329V29.3287H83.5851ZM83.5851 22.5605H81.329V-4.885e-05H83.5851V22.5605ZM92.6093 22.5605H88.0972V-4.885e-05H92.6093V22.5605ZM101.661 45.1211V29.3287H110.685V31.5848H103.917V36.0969H108.429V38.3529H103.917V42.865H110.685V45.1211H101.661ZM103.917 22.5605H101.661V-4.885e-05H103.917V22.5605ZM112.942 22.5605H110.685V-4.885e-05H112.942V22.5605ZM117.454 22.5605H115.198V-4.885e-05H117.454V22.5605ZM124.25 22.5605H121.993V-4.885e-05H124.25V22.5605ZM137.786 22.5605H135.53V-4.885e-05H137.786V22.5605ZM133.274 22.5605H128.762V-4.885e-05H133.274V22.5605ZM121.993 45.1211V29.3287H137.786V45.1211H135.53V31.5848H131.018V45.1211H128.762V31.5848H124.25V45.1211H121.993ZM162.658 45.1211V29.3287H171.682V31.5848H164.914V36.0969H169.426V38.3529H164.914V45.1211H162.658ZM164.914 22.5605H162.658V-4.885e-05H164.914V22.5605ZM176.194 22.5605H171.682V-4.885e-05H176.194V22.5605ZM192.014 22.5605H189.758V-4.885e-05H192.014V22.5605ZM185.246 22.5605H182.99V-4.885e-05H185.246V22.5605ZM182.99 31.5848V29.3287H194.27V31.5848H189.758V42.865H194.27V45.1211H182.99V42.865H187.502V31.5848H182.99ZM198.782 22.5605H196.526V-4.885e-05H198.782V22.5605ZM210.09 22.5605H207.834V-4.885e-05H210.09V22.5605ZM205.578 22.5605H203.322V-4.885e-05H205.578V22.5605ZM212.347 29.3287V36.0969H214.603V45.1211H212.347V38.3529H205.578V45.1211H203.322V29.3287H212.347ZM210.09 36.0969V31.5848H205.578V36.0969H210.09ZM216.859 22.5605H214.603V-4.885e-05H216.859V22.5605ZM230.423 22.5605H228.167V-4.885e-05H230.423V22.5605ZM225.911 22.5605H223.655V-4.885e-05H225.911V22.5605ZM239.447 22.5605H234.935V-4.885e-05H239.447V22.5605ZM223.655 38.3529V29.3287H232.679V31.5848H225.911V36.0969H232.679V45.1211H223.655V42.865H230.423V38.3529H223.655ZM246.243 22.5605H243.987V-4.885e-05H246.243V22.5605ZM250.755 22.5605H248.499V-4.885e-05H250.755V22.5605ZM255.267 22.5605H253.011V-4.885e-05H255.267V22.5605ZM243.987 31.5848V29.3287H255.267V31.5848H250.755V45.1211H248.499V31.5848H243.987ZM6.76837 76.5605H4.51231V54H6.76837V76.5605ZM2.25625 76.5605H0.000197611V54H2.25625V76.5605ZM15.7926 76.5605H11.2805V54H15.7926V76.5605ZM0.000197611 92.3529V83.3287H9.02443V85.5848H2.25625V90.0969H9.02443V99.1211H0.000197611V96.865H6.76837V92.3529H0.000197611ZM22.5885 76.5605H20.3324V54H22.5885V76.5605ZM36.1248 76.5605H27.1006V54H36.1248V76.5605ZM20.3324 99.1211V83.3287H31.6127V99.1211H20.3324ZM22.5885 85.5848V96.865H29.3566V85.5848H22.5885ZM42.9207 83.3287V96.865H49.6888V99.1211H40.6646V83.3287H42.9207ZM42.9207 76.5605H40.6646V54H42.9207V76.5605ZM51.9449 76.5605H47.4328V54H51.9449V76.5605ZM76.7892 76.5605H74.5332V54H76.7892V76.5605ZM63.2529 76.5605H60.9968V54H63.2529V76.5605ZM67.765 76.5605H65.5089V54H67.765V76.5605ZM70.0211 96.865V83.3287H72.2771V99.1211H60.9968V83.3287H63.2529V96.865H70.0211ZM72.2771 76.5605H70.0211V54H72.2771V76.5605ZM83.5851 76.5605H81.329V54H83.5851V76.5605ZM88.0972 76.5605H85.8412V54H88.0972V76.5605ZM92.6093 76.5605H90.3533V54H92.6093V76.5605ZM81.329 85.5848V83.3287H92.6093V85.5848H88.0972V99.1211H85.8412V85.5848H81.329ZM110.685 76.5605H108.429V54H110.685V76.5605ZM103.917 76.5605H101.661V54H103.917V76.5605ZM101.661 85.5848V83.3287H112.942V85.5848H108.429V96.865H112.942V99.1211H101.661V96.865H106.173V85.5848H101.661ZM117.454 76.5605H115.198V54H117.454V76.5605ZM124.25 76.5605H121.993V54H124.25V76.5605ZM137.786 76.5605H128.762V54H137.786V76.5605ZM121.993 99.1211V83.3287H133.274V99.1211H121.993ZM124.25 85.5848V96.865H131.018V85.5848H124.25ZM144.582 76.5605H142.326V54H144.582V76.5605ZM155.862 76.5605H149.094V54H155.862V76.5605ZM142.326 99.1211V83.3287H153.606V99.1211H151.35V85.5848H144.582V99.1211H142.326ZM169.426 76.5605H167.17V54H169.426V76.5605ZM164.914 76.5605H162.658V54H164.914V76.5605ZM178.45 76.5605H173.938V54H178.45V76.5605ZM162.658 92.3529V83.3287H171.682V85.5848H164.914V90.0969H171.682V99.1211H162.658V96.865H169.426V92.3529H162.658ZM205.578 76.5605H203.322V54H205.578V76.5605ZM219.115 76.5605H216.859V54H219.115V76.5605ZM203.322 99.1211V83.3287H214.603V99.1211H212.347V92.3529H205.578V99.1211H203.322ZM205.578 85.5848V90.0969H212.347V85.5848H205.578ZM230.423 76.5605H228.167V54H230.423V76.5605ZM225.911 76.5605H223.655V54H225.911V76.5605ZM232.679 83.3287V90.0969H234.935V99.1211H232.679V92.3529H225.911V99.1211H223.655V83.3287H232.679ZM230.423 90.0969V85.5848H225.911V90.0969H230.423ZM237.191 76.5605H234.935V54H237.191V76.5605ZM243.987 99.1211V83.3287H253.011V85.5848H246.243V90.0969H250.755V92.3529H246.243V96.865H253.011V99.1211H243.987ZM246.243 76.5605H243.987V54H246.243V76.5605ZM255.267 76.5605H253.011V54H255.267V76.5605ZM259.779 76.5605H257.523V54H259.779V76.5605ZM286.907 76.5605H284.651V54H286.907V76.5605ZM291.419 76.5605H289.163V54H291.419V76.5605ZM295.931 76.5605H293.675V54H295.931V76.5605ZM284.651 85.5848V83.3287H295.931V85.5848H291.419V99.1211H289.163V85.5848H284.651ZM304.983 99.1211V83.3287H314.008V85.5848H307.239V90.0969H311.752V92.3529H307.239V96.865H314.008V99.1211H304.983ZM307.239 76.5605H304.983V54H307.239V76.5605ZM316.264 76.5605H314.008V54H316.264V76.5605ZM320.776 76.5605H318.52V54H320.776V76.5605ZM327.572 76.5605H325.316V54H327.572V76.5605ZM341.108 76.5605H338.852V54H341.108V76.5605ZM336.596 76.5605H332.084V54H336.596V76.5605ZM325.316 99.1211V83.3287H341.108V99.1211H338.852V85.5848H334.34V99.1211H332.084V85.5848H327.572V99.1211H325.316ZM352.416 76.5605H350.16V54H352.416V76.5605ZM345.648 83.3287H356.928V92.3529H347.904V99.1211H345.648V83.3287ZM354.672 90.0969V85.5848H347.904V90.0969H354.672ZM347.904 76.5605H345.648V54H347.904V76.5605ZM368.236 76.5605H365.98V54H368.236V76.5605ZM381.772 76.5605H372.748V54H381.772V76.5605ZM365.98 99.1211V83.3287H377.26V99.1211H365.98ZM368.236 85.5848V96.865H375.004V85.5848H368.236ZM393.08 76.5605H390.824V54H393.08V76.5605ZM388.568 76.5605H386.312V54H388.568V76.5605ZM395.336 83.3287V90.0969H397.592V99.1211H395.336V92.3529H388.568V99.1211H386.312V83.3287H395.336ZM393.08 90.0969V85.5848H388.568V90.0969H393.08ZM399.849 76.5605H397.592V54H399.849V76.5605ZM408.9 76.5605H406.644V54H408.9V76.5605ZM422.437 76.5605H420.181V54H422.437V76.5605ZM406.644 99.1211V83.3287H417.925V99.1211H415.669V92.3529H408.9V99.1211H406.644ZM408.9 85.5848V90.0969H415.669V85.5848H408.9ZM433.745 76.5605H431.489V54H433.745V76.5605ZM429.233 76.5605H426.977V54H429.233V76.5605ZM436.001 83.3287V90.0969H438.257V99.1211H436.001V92.3529H429.233V99.1211H426.977V83.3287H436.001ZM433.745 90.0969V85.5848H429.233V90.0969H433.745ZM440.513 76.5605H438.257V54H440.513V76.5605ZM456.333 54V76.5605H451.821V54H456.333ZM449.565 76.5605H447.309V54H449.565V76.5605ZM460.845 54H463.101V76.5605H460.845V54ZM456.333 90.0969V83.3287H458.589V92.3529H454.077V99.1211H451.821V92.3529H447.309V83.3287H449.565V90.0969H456.333ZM2.25625 130.561H0.000197611V108H2.25625V130.561ZM2.25625 144.097H0.000197611V137.329H2.25625V144.097ZM6.76837 130.561H4.51231V108H6.76837V130.561ZM6.76837 153.121H4.51231V148.609H6.76837V153.121ZM11.2805 144.097H9.02443V137.329H11.2805V144.097ZM13.5365 130.561H9.02443V108H13.5365V130.561ZM9.02443 148.609H6.76837V144.097H9.02443V148.609ZM4.51231 148.609H2.25625V144.097H4.51231V148.609ZM22.5885 130.561H20.3324V108H22.5885V130.561ZM36.1248 130.561H33.8688V108H36.1248V130.561ZM20.3324 153.121V137.329H31.6127V153.121H29.3566V146.353H22.5885V153.121H20.3324ZM22.5885 139.585V144.097H29.3566V139.585H22.5885ZM42.9207 137.329V150.865H49.6888V153.121H40.6646V137.329H42.9207ZM42.9207 130.561H40.6646V108H42.9207V130.561ZM51.9449 130.561H47.4328V108H51.9449V130.561ZM76.7892 130.561H74.5332V108H76.7892V130.561ZM63.2529 130.561H60.9968V108H63.2529V130.561ZM67.765 130.561H65.5089V108H67.765V130.561ZM70.0211 150.865V137.329H72.2771V153.121H60.9968V137.329H63.2529V150.865H70.0211ZM72.2771 130.561H70.0211V108H72.2771V130.561ZM81.329 153.121V137.329H90.3533V139.585H83.5851V144.097H88.0972V146.353H83.5851V150.865H90.3533V153.121H81.329ZM83.5851 130.561H81.329V108H83.5851V130.561ZM92.6093 130.561H90.3533V108H92.6093V130.561ZM97.1214 130.561H94.8654V108H97.1214V130.561ZM124.25 130.561H121.993V108H124.25V130.561ZM121.993 153.121V137.329H131.018V139.585H124.25V150.865H131.018V153.121H121.993ZM137.786 130.561H133.274V108H137.786V130.561ZM149.094 130.561H146.838V108H149.094V130.561ZM144.582 130.561H142.326V108H144.582V130.561ZM151.35 137.329V144.097H153.606V153.121H151.35V146.353H144.582V153.121H142.326V137.329H151.35ZM149.094 144.097V139.585H144.582V144.097H149.094ZM155.862 130.561H153.606V108H155.862V130.561ZM162.658 153.121V137.329H171.682V139.585H164.914V144.097H169.426V146.353H164.914V150.865H171.682V153.121H162.658ZM164.914 130.561H162.658V108H164.914V130.561ZM173.938 130.561H171.682V108H173.938V130.561ZM178.45 130.561H176.194V108H178.45V130.561ZM185.246 130.561H182.99V108H185.246V130.561ZM198.782 130.561H196.526V108H198.782V130.561ZM182.99 153.121V137.329H194.27V153.121H192.014V146.353H185.246V153.121H182.99ZM185.246 139.585V144.097H192.014V139.585H185.246ZM205.578 130.561H203.322V108H205.578V130.561ZM210.09 130.561H207.834V108H210.09V130.561ZM214.603 130.561H212.347V108H214.603V130.561ZM203.322 139.585V137.329H214.603V139.585H210.09V153.121H207.834V139.585H203.322ZM232.679 130.561H230.423V108H232.679V130.561ZM225.911 130.561H223.655V108H225.911V130.561ZM223.655 139.585V137.329H234.935V139.585H230.423V150.865H234.935V153.121H223.655V150.865H228.167V139.585H223.655ZM239.447 130.561H237.191V108H239.447V130.561ZM246.243 130.561H243.987V108H246.243V130.561ZM259.779 130.561H250.755V108H259.779V130.561ZM243.987 153.121V137.329H255.267V153.121H243.987ZM246.243 139.585V150.865H253.011V139.585H246.243ZM266.575 130.561H264.319V108H266.575V130.561ZM277.855 130.561H271.087V108H277.855V130.561ZM264.319 153.121V137.329H275.599V153.121H273.343V139.585H266.575V153.121H264.319ZM311.752 130.561H309.495V108H311.752V130.561ZM307.239 130.561H304.983V108H307.239V130.561ZM320.776 130.561H316.264V108H320.776V130.561ZM304.983 146.353V137.329H314.008V139.585H307.239V144.097H314.008V153.121H304.983V150.865H311.752V146.353H304.983ZM334.34 108V130.561H329.828V108H334.34ZM327.572 130.561H325.316V108H327.572V130.561ZM338.852 108H341.108V130.561H338.852V108ZM334.34 144.097V137.329H336.596V146.353H332.084V153.121H329.828V146.353H325.316V137.329H327.572V144.097H334.34ZM352.416 130.561H350.16V108H352.416V130.561ZM347.904 130.561H345.648V108H347.904V130.561ZM361.44 130.561H356.928V108H361.44V130.561ZM345.648 146.353V137.329H354.672V139.585H347.904V144.097H354.672V153.121H345.648V150.865H352.416V146.353H345.648ZM368.236 130.561H365.98V108H368.236V130.561ZM372.748 130.561H370.492V108H372.748V130.561ZM377.26 130.561H375.004V108H377.26V130.561ZM365.98 139.585V137.329H377.26V139.585H372.748V153.121H370.492V139.585H365.98ZM386.312 153.121V137.329H395.336V139.585H388.568V144.097H393.08V146.353H388.568V150.865H395.336V153.121H386.312ZM388.568 130.561H386.312V108H388.568V130.561ZM397.592 130.561H395.336V108H397.592V130.561ZM402.105 130.561H399.849V108H402.105V130.561ZM408.9 130.561H406.644V108H408.9V130.561ZM422.437 130.561H420.181V108H422.437V130.561ZM417.925 130.561H413.413V108H417.925V130.561ZM406.644 153.121V137.329H422.437V153.121H420.181V139.585H415.669V153.121H413.413V139.585H408.9V153.121H406.644Z" fill="#E50914"/>
</g>
<defs>
<filter id="filter0_n_2612_2191" x="0" y="0" width="463.102" height="153.121" filterUnits="userSpaceOnUse" color-interpolation-filters="sRGB">
<feFlood flood-opacity="0" result="BackgroundImageFix"/>
<feBlend mode="normal" in="SourceGraphic" in2="BackgroundImageFix" result="shape"/>
<feTurbulence type="fractalNoise" baseFrequency="2 2" stitchTiles="stitch" numOctaves="3" result="noise" seed="1499" />
<feColorMatrix in="noise" type="luminanceToAlpha" result="alphaNoise" />
<feComponentTransfer in="alphaNoise" result="coloredNoise1">
<feFuncA type="discrete" tableValues="1 1 1 1 1 1 1 1 1 1 1 1 1 1 1 1 1 1 1 1 1 1 1 1 1 1 1 1 1 1 1 1 1 1 1 1 1 1 1 1 1 1 1 1 1 1 1 1 1 1 1 0 0 0 0 0 0 0 0 0 0 0 0 0 0 0 0 0 0 0 0 0 0 0 0 0 0 0 0 0 0 0 0 0 0 0 0 0 0 0 0 0 0 0 0 0 0 0 0 0 "/>
</feComponentTransfer>
<feComposite operator="in" in2="shape" in="coloredNoise1" result="noise1Clipped" />
<feFlood flood-color="rgba(227, 227, 227, 0.25)" result="color1Flood" />
<feComposite operator="in" in2="noise1Clipped" in="color1Flood" result="color1" />
<feMerge result="effect1_noise_2612_2191">
<feMergeNode in="shape" />
<feMergeNode in="color1" />
</feMerge>
</filter>
</defs>
</svg>
