<?xml version="1.0" encoding="utf-8"?>
<!-- Generator: Adobe Illustrator 26.3.1, SVG Export Plug-In . SVG Version: 6.00 Build 0)  -->
<svg version="1.1" id="Camada_1" xmlns="http://www.w3.org/2000/svg" xmlns:xlink="http://www.w3.org/1999/xlink" x="0px" y="0px"
	 viewBox="0 0 400 400" style="enable-background:new 0 0 400 400;" xml:space="preserve">
<style type="text/css">
	.st0{fill:#FFFFFF;}
	.st1{fill:#E70000;}
	.st2{fill:none;stroke:#DD0000;stroke-width:0.25;stroke-miterlimit:10;}
</style>
<g>
	<g>
		<g>
			<path class="st0" d="M396.9,224.2C396.9,224.2,396.9,224.2,396.9,224.2c-18.7,0.1-37.5,0.1-56.1,0.1c-0.2-53-1.1-163.2-0.9-172.5
				c0-1.1,0.2-4.8-2.3-7.5c-1.1-1.3-2.8-1.9-4.4-2.3c-18.5,0-36.8,0-55.3,0C215.8,102.5,92,223.2,91.2,224.1
				c-0.2,0.2-0.4,0.4-0.9,0.9c0,20.6,0,41.4,0,62c-0.2,0.9,0.2,1.7,0.9,2.3c0.6,0.6,1.5,0.9,2.3,0.9c61.6,0,123,0,184.6,0
				c0,20,0,39.9,0,60c20.6,0,41.4,0,62,0c0-20,0-39.9,0-60c19.2-0.2,38.2-0.2,57.1-0.2v-65.8H396.9z M278.4,224.9
				c-32.3,0-64.8,0-97.1,0c32.3-32.3,64.8-64.6,97.1-96.9C278.4,160.3,278.4,192.6,278.4,224.9z"/>
			<path class="st0" d="M194.7,39.9C160,74.2,125.5,108.4,90.8,142.8C90.6,96,90.4,49.5,89.9,2.9c84.8,0,169.7,0,254.5,0V2.8H49
				c-0.2,58.2-0.4,116.5-0.9,174.7C59.1,188.1,70,198.6,81,209.3c57.1-56.4,114.3-112.8,171.3-169.3C233.1,39.9,214,39.9,194.7,39.9
				z"/>
		</g>
		<g>
			<path class="st0" d="M352.7,2.7H49c-0.2,0-0.4,0-0.7,0c-0.1,0-0.2,0-0.2,0C23.1,3.2,2.7,23.5,2.7,48.6v302.8
				c0,25.2,20.6,45.9,46.3,45.9h301.7c12.8,0,24.5-5,32.8-13.3c8.9-8.8,13.7-20.4,13.7-32.5v-61.4V47.3
				C397.3,22.7,377.3,2.7,352.7,2.7z M48.1,177.4C48.6,119.2,48.8,60.9,49,2.8h295.4v0.2c-84.7,0-169.7,0-254.5,0
				c0.5,46.6,0.7,93.1,0.9,139.9c34.7-34.4,69.1-68.5,103.9-102.9c19.3,0,38.5,0,57.6,0C195.3,96.4,138.1,152.9,81,209.3
				C70,198.6,59.1,188.1,48.1,177.4z M397.3,289.9c-18.9,0-37.9,0-57.1,0.2c0,20,0,39.9,0,60c-20.6,0-41.4,0-62,0c0-20,0-39.9,0-60
				c-61.6,0-123,0-184.6,0c-0.8,0-1.7-0.3-2.3-0.9c-0.7-0.6-1.1-1.4-0.9-2.3c0-20.6,0-41.4,0-62c0.5-0.5,0.7-0.7,0.9-0.9
				C92,223.2,215.8,102.5,277.8,42c18.5,0,36.8,0,55.3,0c1.7,0.4,3.4,1,4.4,2.3c2.5,2.7,2.3,6.4,2.3,7.5
				c-0.2,9.3,0.7,119.5,0.9,172.5c18.6,0,37.4,0,56.1,0c0,0,0-0.1,0-0.1h0.4V289.9z"/>
			<path class="st0" d="M278.4,224.9c0-32.3,0-64.6,0-96.9c-32.3,32.3-64.8,64.6-97.1,96.9C213.6,224.9,246.1,224.9,278.4,224.9z"/>
		</g>
	</g>
	<g>
		<g>
			<path class="st0" d="M396.9,224.2C396.9,224.2,396.9,224.2,396.9,224.2c-18.7,0.1-37.5,0.1-56.1,0.1c-0.2-53-1.1-163.2-0.9-172.5
				c0-1.1,0.2-4.8-2.3-7.5c-1.1-1.3-2.8-1.9-4.4-2.3c-18.5,0-36.8,0-55.3,0C215.8,102.5,92,223.2,91.2,224.1
				c-0.2,0.2-0.4,0.4-0.9,0.9c0,20.6,0,41.4,0,62c-0.2,0.9,0.2,1.7,0.9,2.3c0.6,0.6,1.5,0.9,2.3,0.9c61.6,0,123,0,184.6,0
				c0,20,0,39.9,0,60c20.6,0,41.4,0,62,0c0-20,0-39.9,0-60c19.2-0.2,38.2-0.2,57.1-0.2v-65.8H396.9z M278.4,224.9
				c-32.3,0-64.8,0-97.1,0c32.3-32.3,64.8-64.6,97.1-96.9C278.4,160.3,278.4,192.6,278.4,224.9z"/>
			<path class="st0" d="M194.7,39.9C160,74.2,125.5,108.4,90.8,142.8C90.6,96,90.4,49.5,89.9,2.9c84.8,0,169.7,0,254.5,0V2.8H49
				c-0.2,58.2-0.4,116.5-0.9,174.7C59.1,188.1,70,198.6,81,209.3c57.1-56.4,114.3-112.8,171.3-169.3C233.1,39.9,214,39.9,194.7,39.9
				z"/>
		</g>
		<g>
			<path class="st1" d="M352.7,2.7H49c-0.2,0-0.4,0-0.7,0c-0.1,0-0.2,0-0.2,0C23.1,3.2,2.7,23.5,2.7,48.6v302.8
				c0,25.2,20.6,45.9,46.3,45.9h301.7c12.8,0,24.5-5,32.8-13.3c8.9-8.8,13.7-20.4,13.7-32.5v-61.4V47.3
				C397.3,22.7,377.3,2.7,352.7,2.7z M48.1,177.4C48.6,119.2,48.8,60.9,49,2.8h295.4v0.2c-84.7,0-169.7,0-254.5,0
				c0.5,46.6,0.7,93.1,0.9,139.9c34.7-34.4,69.1-68.5,103.9-102.9c19.3,0,38.5,0,57.6,0C195.3,96.4,138.1,152.9,81,209.3
				C70,198.6,59.1,188.1,48.1,177.4z M397.3,289.9c-18.9,0-37.9,0-57.1,0.2c0,20,0,39.9,0,60c-20.6,0-41.4,0-62,0c0-20,0-39.9,0-60
				c-61.6,0-123,0-184.6,0c-0.8,0-1.7-0.3-2.3-0.9c-0.7-0.6-1.1-1.4-0.9-2.3c0-20.6,0-41.4,0-62c0.5-0.5,0.7-0.7,0.9-0.9
				C92,223.2,215.8,102.5,277.8,42c18.5,0,36.8,0,55.3,0c1.7,0.4,3.4,1,4.4,2.3c2.5,2.7,2.3,6.4,2.3,7.5
				c-0.2,9.3,0.7,119.5,0.9,172.5c18.6,0,37.4,0,56.1,0c0,0,0-0.1,0-0.1h0.4V289.9z"/>
			<path class="st1" d="M278.4,224.9c0-32.3,0-64.6,0-96.9c-32.3,32.3-64.8,64.6-97.1,96.9C213.6,224.9,246.1,224.9,278.4,224.9z"/>
		</g>
	</g>
	<g>
		<g>
			<path class="st2" d="M396.9,224.2C396.9,224.2,396.9,224.2,396.9,224.2c-18.7,0.1-37.5,0.1-56.1,0.1c-0.2-53-1.1-163.2-0.9-172.5
				c0-1.1,0.2-4.8-2.3-7.5c-1.1-1.3-2.8-1.9-4.4-2.3c-18.5,0-36.8,0-55.3,0C215.8,102.5,92,223.2,91.2,224.1
				c-0.2,0.2-0.4,0.4-0.9,0.9c0,20.6,0,41.4,0,62c-0.2,0.9,0.2,1.7,0.9,2.3c0.6,0.6,1.5,0.9,2.3,0.9c61.6,0,123,0,184.6,0
				c0,20,0,39.9,0,60c20.6,0,41.4,0,62,0c0-20,0-39.9,0-60c19.2-0.2,38.2-0.2,57.1-0.2v-65.8H396.9z M278.4,224.9
				c-32.3,0-64.8,0-97.1,0c32.3-32.3,64.8-64.6,97.1-96.9C278.4,160.3,278.4,192.6,278.4,224.9z"/>
			<path class="st2" d="M194.7,39.9C160,74.2,125.5,108.4,90.8,142.8C90.6,96,90.4,49.5,89.9,2.9c84.8,0,169.7,0,254.5,0V2.8H49
				c-0.2,58.2-0.4,116.5-0.9,174.7C59.1,188.1,70,198.6,81,209.3c57.1-56.4,114.3-112.8,171.3-169.3C233.1,39.9,214,39.9,194.7,39.9
				z"/>
		</g>
		<g>
			<path class="st2" d="M352.7,2.7H49c-0.2,0-0.4,0-0.7,0c-0.1,0-0.2,0-0.2,0C23.1,3.2,2.7,23.5,2.7,48.6v302.8
				c0,25.2,20.6,45.9,46.3,45.9h301.7c12.8,0,24.5-5,32.8-13.3c8.9-8.8,13.7-20.4,13.7-32.5v-61.4V47.3
				C397.3,22.7,377.3,2.7,352.7,2.7z M48.1,177.4C48.6,119.2,48.8,60.9,49,2.8h295.4v0.2c-84.7,0-169.7,0-254.5,0
				c0.5,46.6,0.7,93.1,0.9,139.9c34.7-34.4,69.1-68.5,103.9-102.9c19.3,0,38.5,0,57.6,0C195.3,96.4,138.1,152.9,81,209.3
				C70,198.6,59.1,188.1,48.1,177.4z M397.3,289.9c-18.9,0-37.9,0-57.1,0.2c0,20,0,39.9,0,60c-20.6,0-41.4,0-62,0c0-20,0-39.9,0-60
				c-61.6,0-123,0-184.6,0c-0.8,0-1.7-0.3-2.3-0.9c-0.7-0.6-1.1-1.4-0.9-2.3c0-20.6,0-41.4,0-62c0.5-0.5,0.7-0.7,0.9-0.9
				C92,223.2,215.8,102.5,277.8,42c18.5,0,36.8,0,55.3,0c1.7,0.4,3.4,1,4.4,2.3c2.5,2.7,2.3,6.4,2.3,7.5
				c-0.2,9.3,0.7,119.5,0.9,172.5c18.6,0,37.4,0,56.1,0c0,0,0-0.1,0-0.1h0.4V289.9z"/>
			<path class="st2" d="M278.4,224.9c0-32.3,0-64.6,0-96.9c-32.3,32.3-64.8,64.6-97.1,96.9C213.6,224.9,246.1,224.9,278.4,224.9z"/>
		</g>
	</g>
</g>
</svg>
