<svg width="394" height="159" viewBox="0 0 394 159" fill="none" xmlns="http://www.w3.org/2000/svg">
<path d="M20.0022 3.8727V6.25313H17.6573V3.8727H20.0022ZM17.0533 0.0355857V2.41602H14.7084V0.0355857H17.0533ZM14.1755 0.0355857V2.41602H11.7595V0.0355857H14.1755ZM11.2266 0.0355857V2.41602H8.81062V0.0355857H11.2266ZM8.27769 0.0355857V2.41602H5.86173V0.0355857H8.27769ZM5.3288 3.8727V6.25313H2.94836V3.8727H5.3288ZM2.3799 7.70982V10.1258H-0.00052904V7.70982H2.3799ZM2.3799 11.5825V13.9274H-0.00052904V11.5825H2.3799ZM2.3799 15.4196V17.8H-0.00052904V15.4196H2.3799ZM5.3288 19.2922V21.6371H2.94836V19.2922H5.3288ZM8.27769 23.0938V25.5098H5.86173V23.0938H8.27769ZM11.2266 23.0938V25.5098H8.81062V23.0938H11.2266ZM14.1755 23.0938V25.5098H11.7595V23.0938H14.1755ZM17.0533 23.0938V25.5098H14.7084V23.0938H17.0533ZM20.0022 19.2922V21.6371H17.6573V19.2922H20.0022ZM24.4337 23.5452C24.4337 22.6478 24.6519 22.0171 25.0885 21.6533C25.5251 21.2895 26.0466 21.1076 26.6529 21.1076C27.2835 21.1076 27.8171 21.2895 28.2537 21.6533C28.7145 22.0171 28.945 22.6478 28.945 23.5452C28.945 24.4183 28.7145 25.0489 28.2537 25.437C27.8171 25.8251 27.2835 26.0191 26.6529 26.0191C26.0466 26.0191 25.5251 25.8251 25.0885 25.437C24.6519 25.0489 24.4337 24.4183 24.4337 23.5452ZM24.4337 7.97387C24.4337 7.0522 24.6519 6.40946 25.0885 6.04564C25.5251 5.68183 26.0466 5.49992 26.6529 5.49992C27.2835 5.49992 27.8171 5.68183 28.2537 6.04564C28.7145 6.40946 28.945 7.0522 28.945 7.97387C28.945 8.84702 28.7145 9.47764 28.2537 9.86571C27.8171 10.2538 27.2835 10.4478 26.6529 10.4478C26.0466 10.4478 25.5251 10.2538 25.0885 9.86571C24.6519 9.47764 24.4337 8.84702 24.4337 7.97387ZM64.0224 3.8727V6.25313H61.6775V3.8727H64.0224ZM61.0735 0.0355857V2.41602H58.7286V0.0355857H61.0735ZM58.1957 0.0355857V2.41602H55.7798V0.0355857H58.1957ZM55.2468 0.0355857V2.41602H52.8309V0.0355857H55.2468ZM52.2979 0.0355857V2.41602H49.882V0.0355857H52.2979ZM49.349 3.8727V6.25313H46.9686V3.8727H49.349ZM46.4001 7.70982V10.1258H44.0197V7.70982H46.4001ZM46.4001 11.5825V13.9274H44.0197V11.5825H46.4001ZM46.4001 15.4196V17.8H44.0197V15.4196H46.4001ZM49.349 19.2922V21.6371H46.9686V19.2922H49.349ZM52.2979 23.0938V25.5098H49.882V23.0938H52.2979ZM55.2468 23.0938V25.5098H52.8309V23.0938H55.2468ZM58.1957 23.0938V25.5098H55.7798V23.0938H58.1957ZM61.0735 23.0938V25.5098H58.7286V23.0938H61.0735ZM64.0224 19.2922V21.6371H61.6775V19.2922H64.0224ZM84.7358 0.0355857V2.41602H82.3553V0.0355857H84.7358ZM81.8224 0.0355857V2.41602H79.442V0.0355857H81.8224ZM78.8735 0.0355857V2.41602H76.4931V0.0355857H78.8735ZM75.9246 0.0355857V2.41602H73.5442V0.0355857H75.9246ZM72.9757 0.0355857V2.41602H70.5953V0.0355857H72.9757ZM70.0268 3.90823V6.25313H67.6464V3.90823H70.0268ZM70.0268 7.74534V10.1258H67.6464V7.74534H70.0268ZM70.0268 11.5825V13.9629H67.6464V11.5825H70.0268ZM70.0268 15.4196V17.8355H67.6464V15.4196H70.0268ZM70.0268 19.2922V21.6371H67.6464V19.2922H70.0268ZM72.9757 23.1293V25.5098H70.5953V23.1293H72.9757ZM75.9246 23.1293V25.5098H73.5442V23.1293H75.9246ZM78.8735 23.1293V25.5098H76.4931V23.1293H78.8735ZM81.8224 23.1293V25.5098H79.442V23.1293H81.8224ZM84.7358 23.1293V25.5098H82.3553V23.1293H84.7358ZM87.6846 19.2922V21.6371H85.3042V19.2922H87.6846ZM87.6846 15.4196V17.8355H85.3042V15.4196H87.6846ZM87.6846 11.5825V13.9629H85.3042V11.5825H87.6846ZM87.6846 7.74534V10.1258H85.3042V7.74534H87.6846ZM87.6846 3.90823V6.25313H85.3042V3.90823H87.6846ZM111.311 0.0355857V2.45155H108.931V0.0355857H111.311ZM111.311 3.90823V6.25313H108.931V3.90823H111.311ZM111.311 7.74534V10.1258H108.931V7.74534H111.311ZM111.311 11.618V13.9629H108.931V11.618H111.311ZM111.311 15.4196V17.8355H108.931V15.4196H111.311ZM111.311 19.2922V21.6727H108.931V19.2922H111.311ZM111.311 23.1293V25.5098H108.931V23.1293H111.311ZM108.362 19.2922V21.6727H105.982V19.2922H108.362ZM105.449 15.4196V17.8355H103.069V15.4196H105.449ZM102.5 11.618V13.9629H100.12V11.618H102.5ZM99.5513 7.74534V10.1258H97.1709V7.74534H99.5513ZM96.6024 3.90823V6.25313H94.222V3.90823H96.6024ZM93.6535 0.0355857V2.45155H91.2731V0.0355857H93.6535ZM93.6535 3.90823V6.25313H91.2731V3.90823H93.6535ZM93.6535 7.74534V10.1258H91.2731V7.74534H93.6535ZM93.6535 11.618V13.9629H91.2731V11.618H93.6535ZM93.6535 15.4196V17.8355H91.2731V15.4196H93.6535ZM93.6535 19.2922V21.6727H91.2731V19.2922H93.6535ZM93.6535 23.1293V25.5098H91.2731V23.1293H93.6535ZM117.28 19.2567V21.6371H114.9V19.2567H117.28ZM120.229 23.0938V25.4742H117.849V23.0938H120.229ZM123.178 23.0938V25.4742H120.798V23.0938H123.178ZM126.127 23.0938V25.4742H123.746V23.0938H126.127ZM129.076 23.0938V25.4742H126.695V23.0938H129.076ZM131.989 23.0938V25.4742H129.609V23.0938H131.989ZM134.938 19.2567V21.6371H132.558V19.2567H134.938ZM134.938 15.4196V17.8H132.558V15.4196H134.938ZM131.989 11.5825V13.9274H129.609V11.5825H131.989ZM129.076 11.5825V13.9274H126.695V11.5825H129.076ZM126.127 11.5825V13.9274H123.746V11.5825H126.127ZM123.178 11.5825V13.9274H120.798V11.5825H123.178ZM120.229 11.5825V13.9274H117.849V11.5825H120.229ZM117.28 7.70982V10.0902H114.9V7.70982H117.28ZM117.28 3.8727V6.25313H114.9V3.8727H117.28ZM120.229 5.68107e-05V2.41602H117.849V5.68107e-05H120.229ZM123.178 5.68107e-05V2.41602H120.798V5.68107e-05H123.178ZM126.127 5.68107e-05V2.41602H123.746V5.68107e-05H126.127ZM129.076 5.68107e-05V2.41602H126.695V5.68107e-05H129.076ZM131.989 5.68107e-05V2.41602H129.609V5.68107e-05H131.989ZM134.938 3.8727V6.25313H132.558V3.8727H134.938ZM140.907 19.2567V21.6371H138.526V19.2567H140.907ZM158.565 19.2567V21.6371H156.184V19.2567H158.565ZM140.907 0.0355857V2.41602H138.526V0.0355857H140.907ZM140.907 3.90823V6.25313H138.526V3.90823H140.907ZM140.907 7.70982V10.1258H138.526V7.70982H140.907ZM140.907 11.5825V13.9629H138.526V11.5825H140.907ZM140.907 15.4196V17.8H138.526V15.4196H140.907ZM143.856 23.1649V25.5098H141.475V23.1649H143.856ZM146.805 23.1293V25.5098H144.424V23.1293H146.805ZM149.754 23.1293V25.5098H147.373V23.1293H149.754ZM152.702 23.1293V25.5098H150.322V23.1293H152.702ZM155.616 23.1649V25.5098H153.235V23.1649H155.616ZM158.565 15.4196V17.8H156.184V15.4196H158.565ZM158.565 11.5825V13.9629H156.184V11.5825H158.565ZM158.565 7.70982V10.1258H156.184V7.70982H158.565ZM158.565 3.90823V6.25313H156.184V3.90823H158.565ZM158.565 0.0355857V2.41602H156.184V0.0355857H158.565ZM182.191 23.1293V25.5098H179.811V23.1293H182.191ZM182.191 19.2922V21.6371H179.811V19.2922H182.191ZM182.191 15.4196V17.8H179.811V15.4196H182.191ZM182.191 11.5825V13.9629H179.811V11.5825H182.191ZM182.191 7.70982V10.1258H179.811V7.70982H182.191ZM182.191 3.90823V6.25313H179.811V3.90823H182.191ZM182.191 0.0355857V2.41602H179.811V0.0355857H182.191ZM179.242 3.90823V6.25313H176.862V3.90823H179.242ZM176.329 7.70982V10.1258H173.949V7.70982H176.329ZM173.38 11.5825V13.9629H171V11.5825H173.38ZM170.431 7.70982V10.1258H168.051V7.70982H170.431ZM167.482 3.90823V6.25313H165.102V3.90823H167.482ZM164.534 0.0355857V2.41602H162.153V0.0355857H164.534ZM164.534 3.90823V6.25313H162.153V3.90823H164.534ZM164.534 7.70982V10.1258H162.153V7.70982H164.534ZM164.534 11.5825V13.9629H162.153V11.5825H164.534ZM164.534 15.4196V17.8H162.153V15.4196H164.534ZM164.534 19.2922V21.6371H162.153V19.2922H164.534ZM164.534 23.1293V25.5098H162.153V23.1293H164.534ZM205.818 0.0355857V2.41602H203.438V0.0355857H205.818ZM202.869 0.0355857V2.41602H200.489V0.0355857H202.869ZM199.956 0.0355857V2.41602H197.575V0.0355857H199.956ZM197.007 0.0355857V2.41602H194.626V0.0355857H197.007ZM194.058 0.0355857V2.41602H191.678V0.0355857H194.058ZM191.109 0.0355857V2.41602H188.729V0.0355857H191.109ZM188.16 0.0355857V2.41602H185.78V0.0355857H188.16ZM188.16 3.90823V6.25313H185.78V3.90823H188.16ZM188.16 7.74534V10.1258H185.78V7.74534H188.16ZM188.16 11.5825V13.9629H185.78V11.5825H188.16ZM191.109 11.5825V13.9629H188.729V11.5825H191.109ZM194.058 11.5825V13.9629H191.678V11.5825H194.058ZM197.007 11.5825V13.9629H194.626V11.5825H197.007ZM199.956 11.5825V13.9629H197.575V11.5825H199.956ZM188.16 15.4196V17.8H185.78V15.4196H188.16ZM188.16 19.2922V21.6371H185.78V19.2922H188.16ZM188.16 23.1293V25.5098H185.78V23.1293H188.16ZM191.109 23.1293V25.5098H188.729V23.1293H191.109ZM194.058 23.1293V25.5098H191.678V23.1293H194.058ZM197.007 23.1293V25.5098H194.626V23.1293H197.007ZM199.956 23.1293V25.5098H197.575V23.1293H199.956ZM202.869 23.1293V25.5098H200.489V23.1293H202.869ZM205.818 23.1293V25.5098H203.438V23.1293H205.818ZM211.787 23.1293V25.5098H209.406V23.1293H211.787ZM211.787 19.2922V21.6371H209.406V19.2922H211.787ZM211.787 15.4196V17.8355H209.406V15.4196H211.787ZM211.787 11.5825V13.9629H209.406V11.5825H211.787ZM211.787 7.74534V10.1258H209.406V7.74534H211.787ZM211.787 3.90823V6.25313H209.406V3.90823H211.787ZM211.787 0.0355857V2.41602H209.406V0.0355857H211.787ZM214.736 0.0355857V2.41602H212.355V0.0355857H214.736ZM217.685 0.0355857V2.41602H215.304V0.0355857H217.685ZM220.634 0.0355857V2.41602H218.253V0.0355857H220.634ZM223.582 0.0355857V2.41602H221.202V0.0355857H223.582ZM226.496 0.0355857V2.41602H224.115V0.0355857H226.496ZM229.445 3.90823V6.25313H227.064V3.90823H229.445ZM229.445 7.74534V10.1258H227.064V7.74534H229.445ZM226.496 11.5825V13.9629H224.115V11.5825H226.496ZM223.582 11.5825V13.9629H221.202V11.5825H223.582ZM220.634 11.5825V13.9629H218.253V11.5825H220.634ZM217.685 11.5825V13.9629H215.304V11.5825H217.685ZM214.736 11.5825V13.9629H212.355V11.5825H214.736ZM229.445 23.1293V25.5098H227.064V23.1293H229.445ZM226.496 19.2922V21.6371H224.115V19.2922H226.496ZM223.582 15.4196V17.8355H221.202V15.4196H223.582ZM2.3799 33.0356V35.4515H-0.00052904V33.0356H2.3799ZM2.3799 36.9082V39.2531H-0.00052904V36.9082H2.3799ZM2.3799 40.7453V43.1258H-0.00052904V40.7453H2.3799ZM2.3799 44.618V46.9629H-0.00052904V44.618H2.3799ZM2.3799 48.4196V50.8355H-0.00052904V48.4196H2.3799ZM2.3799 52.2922V54.6727H-0.00052904V52.2922H2.3799ZM2.3799 56.1293V58.5098H-0.00052904V56.1293H2.3799ZM20.0377 56.1293V58.5098H17.6573V56.1293H20.0377ZM20.0377 52.2922V54.6727H17.6573V52.2922H20.0377ZM20.0377 48.4196V50.8355H17.6573V48.4196H20.0377ZM20.0377 44.618V46.9629H17.6573V44.618H20.0377ZM20.0377 40.7453V43.1258H17.6573V40.7453H20.0377ZM20.0377 36.9082V39.2531H17.6573V36.9082H20.0377ZM20.0377 33.0356V35.4515H17.6573V33.0356H20.0377ZM17.0888 44.618V46.9629H14.7084V44.618H17.0888ZM14.1755 44.618V46.9629H11.795V44.618H14.1755ZM11.2266 44.618V46.9629H8.84615V44.618H11.2266ZM8.27769 44.618V46.9629H5.89726V44.618H8.27769ZM5.3288 44.618V46.9629H2.94836V44.618H5.3288ZM24.4337 56.5452C24.4337 55.6478 24.6519 55.0171 25.0885 54.6533C25.5251 54.2895 26.0466 54.1076 26.6529 54.1076C27.2835 54.1076 27.8171 54.2895 28.2537 54.6533C28.7145 55.0171 28.945 55.6478 28.945 56.5452C28.945 57.4183 28.7145 58.0489 28.2537 58.437C27.8171 58.8251 27.2835 59.0191 26.6529 59.0191C26.0466 59.0191 25.5251 58.8251 25.0885 58.437C24.6519 58.0489 24.4337 57.4183 24.4337 56.5452ZM24.4337 40.9739C24.4337 40.0522 24.6519 39.4095 25.0885 39.0456C25.5251 38.6818 26.0466 38.4999 26.6529 38.4999C27.2835 38.4999 27.8171 38.6818 28.2537 39.0456C28.7145 39.4095 28.945 40.0522 28.945 40.9739C28.945 41.847 28.7145 42.4776 28.2537 42.8657C27.8171 43.2538 27.2835 43.4478 26.6529 43.4478C26.0466 43.4478 25.5251 43.2538 25.0885 42.8657C24.6519 42.4776 24.4337 41.847 24.4337 40.9739ZM46.4001 33.0356V35.4515H44.0197V33.0356H46.4001ZM46.4001 36.9082V39.2531H44.0197V36.9082H46.4001ZM46.4001 40.7453V43.1258H44.0197V40.7453H46.4001ZM46.4001 44.618V46.9629H44.0197V44.618H46.4001ZM46.4001 48.4196V50.8355H44.0197V48.4196H46.4001ZM46.4001 52.2922V54.6727H44.0197V52.2922H46.4001ZM46.4001 56.1293V58.5098H44.0197V56.1293H46.4001ZM64.058 56.1293V58.5098H61.6775V56.1293H64.058ZM64.058 52.2922V54.6727H61.6775V52.2922H64.058ZM64.058 48.4196V50.8355H61.6775V48.4196H64.058ZM64.058 44.618V46.9629H61.6775V44.618H64.058ZM64.058 40.7453V43.1258H61.6775V40.7453H64.058ZM64.058 36.9082V39.2531H61.6775V36.9082H64.058ZM64.058 33.0356V35.4515H61.6775V33.0356H64.058ZM61.1091 44.618V46.9629H58.7286V44.618H61.1091ZM58.1957 44.618V46.9629H55.8153V44.618H58.1957ZM55.2468 44.618V46.9629H52.8664V44.618H55.2468ZM52.2979 44.618V46.9629H49.9175V44.618H52.2979ZM49.349 44.618V46.9629H46.9686V44.618H49.349ZM84.7358 33.0356V35.416H82.3553V33.0356H84.7358ZM81.8224 33.0356V35.416H79.442V33.0356H81.8224ZM78.8735 33.0356V35.416H76.4931V33.0356H78.8735ZM75.9246 33.0356V35.416H73.5442V33.0356H75.9246ZM72.9757 33.0356V35.416H70.5953V33.0356H72.9757ZM70.0268 36.9082V39.2531H67.6464V36.9082H70.0268ZM70.0268 40.7453V43.1258H67.6464V40.7453H70.0268ZM70.0268 44.5825V46.9629H67.6464V44.5825H70.0268ZM70.0268 48.4196V50.8355H67.6464V48.4196H70.0268ZM70.0268 52.2922V54.6371H67.6464V52.2922H70.0268ZM72.9757 56.1293V58.5098H70.5953V56.1293H72.9757ZM75.9246 56.1293V58.5098H73.5442V56.1293H75.9246ZM78.8735 56.1293V58.5098H76.4931V56.1293H78.8735ZM81.8224 56.1293V58.5098H79.442V56.1293H81.8224ZM84.7358 56.1293V58.5098H82.3553V56.1293H84.7358ZM87.6846 52.2922V54.6371H85.3042V52.2922H87.6846ZM87.6846 48.4196V50.8355H85.3042V48.4196H87.6846ZM87.6846 44.5825V46.9629H85.3042V44.5825H87.6846ZM87.6846 40.7453V43.1258H85.3042V40.7453H87.6846ZM87.6846 36.9082V39.2531H85.3042V36.9082H87.6846ZM93.6535 52.2567V54.6371H91.2731V52.2567H93.6535ZM96.6024 56.0938V58.4742H94.222V56.0938H96.6024ZM99.5513 56.0938V58.4742H97.1709V56.0938H99.5513ZM102.5 56.0938V58.4742H100.12V56.0938H102.5ZM105.449 56.0938V58.4742H103.069V56.0938H105.449ZM108.362 56.0938V58.4742H105.982V56.0938H108.362ZM111.311 52.2567V54.6371H108.931V52.2567H111.311ZM111.311 48.4196V50.8H108.931V48.4196H111.311ZM108.362 44.5825V46.9274H105.982V44.5825H108.362ZM105.449 44.5825V46.9274H103.069V44.5825H105.449ZM102.5 44.5825V46.9274H100.12V44.5825H102.5ZM99.5513 44.5825V46.9274H97.1709V44.5825H99.5513ZM96.6024 44.5825V46.9274H94.222V44.5825H96.6024ZM93.6535 40.7098V43.0902H91.2731V40.7098H93.6535ZM93.6535 36.8727V39.2531H91.2731V36.8727H93.6535ZM96.6024 33.0001V35.416H94.222V33.0001H96.6024ZM99.5513 33.0001V35.416H97.1709V33.0001H99.5513ZM102.5 33.0001V35.416H100.12V33.0001H102.5ZM105.449 33.0001V35.416H103.069V33.0001H105.449ZM108.362 33.0001V35.416H105.982V33.0001H108.362ZM111.311 36.8727V39.2531H108.931V36.8727H111.311ZM117.28 33.0356V35.416H114.9V33.0356H117.28ZM120.229 33.0356V35.416H117.849V33.0356H120.229ZM123.178 33.0356V35.416H120.798V33.0356H123.178ZM126.127 33.0356V35.416H123.746V33.0356H126.127ZM129.076 33.0356V35.416H126.695V33.0356H129.076ZM131.989 33.0356V35.416H129.609V33.0356H131.989ZM134.938 33.0356V35.416H132.558V33.0356H134.938ZM126.127 36.8727V39.2531H123.746V36.8727H126.127ZM126.127 40.7098V43.1258H123.746V40.7098H126.127ZM126.127 44.5825V46.9274H123.746V44.5825H126.127ZM126.127 48.4196V50.8H123.746V48.4196H126.127ZM126.127 52.2922V54.6371H123.746V52.2922H126.127ZM126.127 56.0938V58.5098H123.746V56.0938H126.127ZM158.565 33.0356V35.416H156.184V33.0356H158.565ZM155.616 33.0356V35.416H153.235V33.0356H155.616ZM152.702 33.0356V35.416H150.322V33.0356H152.702ZM149.754 33.0356V35.416H147.373V33.0356H149.754ZM146.805 33.0356V35.416H144.424V33.0356H146.805ZM143.856 33.0356V35.416H141.475V33.0356H143.856ZM140.907 33.0356V35.416H138.526V33.0356H140.907ZM140.907 36.9082V39.2531H138.526V36.9082H140.907ZM140.907 40.7453V43.1258H138.526V40.7453H140.907ZM140.907 44.5825V46.9629H138.526V44.5825H140.907ZM143.856 44.5825V46.9629H141.475V44.5825H143.856ZM146.805 44.5825V46.9629H144.424V44.5825H146.805ZM149.754 44.5825V46.9629H147.373V44.5825H149.754ZM152.702 44.5825V46.9629H150.322V44.5825H152.702ZM140.907 48.4196V50.8H138.526V48.4196H140.907ZM140.907 52.2922V54.6371H138.526V52.2922H140.907ZM140.907 56.1293V58.5098H138.526V56.1293H140.907ZM143.856 56.1293V58.5098H141.475V56.1293H143.856ZM146.805 56.1293V58.5098H144.424V56.1293H146.805ZM149.754 56.1293V58.5098H147.373V56.1293H149.754ZM152.702 56.1293V58.5098H150.322V56.1293H152.702ZM155.616 56.1293V58.5098H153.235V56.1293H155.616ZM158.565 56.1293V58.5098H156.184V56.1293H158.565ZM164.534 33.0711V35.4515H162.153V33.0711H164.534ZM164.534 36.9082V39.2887H162.153V36.9082H164.534ZM164.534 40.7453V43.1258H162.153V40.7453H164.534ZM164.534 44.618V46.9629H162.153V44.618H164.534ZM164.534 48.4551V50.8355H162.153V48.4551H164.534ZM164.534 52.2922V54.6727H162.153V52.2922H164.534ZM164.534 56.1293V58.5453H162.153V56.1293H164.534ZM167.482 56.1293V58.5453H165.102V56.1293H167.482ZM170.431 56.1293V58.5453H168.015V56.1293H170.431ZM173.38 56.1293V58.5453H170.964V56.1293H173.38ZM176.329 56.1293V58.5453H173.913V56.1293H176.329ZM179.207 52.2922V54.6727H176.862V52.2922H179.207ZM182.156 48.4551V50.8355H179.811V48.4551H182.156ZM182.156 44.618V46.9629H179.811V44.618H182.156ZM182.156 40.7453V43.1258H179.811V40.7453H182.156ZM179.207 36.9082V39.2887H176.862V36.9082H179.207ZM176.329 33.0711V35.4515H173.913V33.0711H176.329ZM173.38 33.0711V35.4515H170.964V33.0711H173.38ZM170.431 33.0711V35.4515H168.015V33.0711H170.431ZM167.482 33.0711V35.4515H165.102V33.0711H167.482ZM216.441 36.8727V39.2531H214.096V36.8727H216.441ZM213.492 33.0356V35.416H211.147V33.0356H213.492ZM210.614 33.0356V35.416H208.198V33.0356H210.614ZM207.666 33.0356V35.416H205.25V33.0356H207.666ZM204.717 33.0356V35.416H202.301V33.0356H204.717ZM201.768 36.8727V39.2531H199.387V36.8727H201.768ZM198.819 40.7098V43.1258H196.438V40.7098H198.819ZM198.819 44.5825V46.9274H196.438V44.5825H198.819ZM198.819 48.4196V50.8H196.438V48.4196H198.819ZM201.768 52.2922V54.6371H199.387V52.2922H201.768ZM204.717 56.0938V58.5098H202.301V56.0938H204.717ZM207.666 56.0938V58.5098H205.25V56.0938H207.666ZM210.614 56.0938V58.5098H208.198V56.0938H210.614ZM213.492 56.0938V58.5098H211.147V56.0938H213.492ZM216.441 52.2922V54.6371H214.096V52.2922H216.441ZM237.154 33.0356V35.416H234.774V33.0356H237.154ZM234.241 33.0356V35.416H231.861V33.0356H234.241ZM231.292 33.0356V35.416H228.912V33.0356H231.292ZM228.343 33.0356V35.416H225.963V33.0356H228.343ZM225.394 33.0356V35.416H223.014V33.0356H225.394ZM222.446 36.9082V39.2531H220.065V36.9082H222.446ZM222.446 40.7453V43.1258H220.065V40.7453H222.446ZM222.446 44.5825V46.9629H220.065V44.5825H222.446ZM222.446 48.4196V50.8355H220.065V48.4196H222.446ZM222.446 52.2922V54.6371H220.065V52.2922H222.446ZM225.394 56.1293V58.5098H223.014V56.1293H225.394ZM228.343 56.1293V58.5098H225.963V56.1293H228.343ZM231.292 56.1293V58.5098H228.912V56.1293H231.292ZM234.241 56.1293V58.5098H231.861V56.1293H234.241ZM237.154 56.1293V58.5098H234.774V56.1293H237.154ZM240.103 52.2922V54.6371H237.723V52.2922H240.103ZM240.103 48.4196V50.8355H237.723V48.4196H240.103ZM240.103 44.5825V46.9629H237.723V44.5825H240.103ZM240.103 40.7453V43.1258H237.723V40.7453H240.103ZM240.103 36.9082V39.2531H237.723V36.9082H240.103ZM263.73 56.1293V58.5098H261.35V56.1293H263.73ZM263.73 52.2922V54.6371H261.35V52.2922H263.73ZM263.73 48.4196V50.8H261.35V48.4196H263.73ZM263.73 44.5825V46.9629H261.35V44.5825H263.73ZM263.73 40.7098V43.1258H261.35V40.7098H263.73ZM263.73 36.9082V39.2531H261.35V36.9082H263.73ZM263.73 33.0356V35.416H261.35V33.0356H263.73ZM260.781 36.9082V39.2531H258.401V36.9082H260.781ZM257.868 40.7098V43.1258H255.487V40.7098H257.868ZM254.919 44.5825V46.9629H252.538V44.5825H254.919ZM251.97 40.7098V43.1258H249.59V40.7098H251.97ZM249.021 36.9082V39.2531H246.641V36.9082H249.021ZM246.072 33.0356V35.416H243.692V33.0356H246.072ZM246.072 36.9082V39.2531H243.692V36.9082H246.072ZM246.072 40.7098V43.1258H243.692V40.7098H246.072ZM246.072 44.5825V46.9629H243.692V44.5825H246.072ZM246.072 48.4196V50.8H243.692V48.4196H246.072ZM246.072 52.2922V54.6371H243.692V52.2922H246.072ZM246.072 56.1293V58.5098H243.692V56.1293H246.072ZM269.699 56.1293V58.5098H267.318V56.1293H269.699ZM269.699 52.2922V54.6371H267.318V52.2922H269.699ZM269.699 48.4196V50.8355H267.318V48.4196H269.699ZM269.699 44.5825V46.9629H267.318V44.5825H269.699ZM269.699 40.7453V43.1258H267.318V40.7453H269.699ZM269.699 36.9082V39.2531H267.318V36.9082H269.699ZM269.699 33.0356V35.416H267.318V33.0356H269.699ZM272.648 33.0356V35.416H270.267V33.0356H272.648ZM275.597 33.0356V35.416H273.216V33.0356H275.597ZM278.546 33.0356V35.416H276.165V33.0356H278.546ZM281.494 33.0356V35.416H279.114V33.0356H281.494ZM284.408 33.0356V35.416H282.027V33.0356H284.408ZM287.357 36.9082V39.2531H284.976V36.9082H287.357ZM287.357 40.7453V43.1258H284.976V40.7453H287.357ZM284.408 44.5825V46.9629H282.027V44.5825H284.408ZM281.494 44.5825V46.9629H279.114V44.5825H281.494ZM278.546 44.5825V46.9629H276.165V44.5825H278.546ZM275.597 44.5825V46.9629H273.216V44.5825H275.597ZM272.648 44.5825V46.9629H270.267V44.5825H272.648ZM293.326 56.0938V58.5098H290.945V56.0938H293.326ZM293.326 52.2922V54.6371H290.945V52.2922H293.326ZM293.326 48.4196V50.8H290.945V48.4196H293.326ZM296.274 48.4196V50.8H293.894V48.4196H296.274ZM299.223 48.4196V50.8H296.807V48.4196H299.223ZM302.172 48.4196V50.8H299.756V48.4196H302.172ZM305.121 48.4196V50.8H302.705V48.4196H305.121ZM307.999 48.4196V50.8H305.654V48.4196H307.999ZM310.948 48.4196V50.8H308.603V48.4196H310.948ZM310.948 52.2922V54.6371H308.603V52.2922H310.948ZM310.948 56.0938V58.5098H308.603V56.0938H310.948ZM310.948 44.5825V46.9274H308.603V44.5825H310.948ZM310.948 40.7098V43.1258H308.603V40.7098H310.948ZM307.999 36.8727V39.2531H305.654V36.8727H307.999ZM305.121 33.0356V35.416H302.705V33.0356H305.121ZM302.172 33.0356V35.416H299.756V33.0356H302.172ZM299.223 33.0356V35.416H296.807V33.0356H299.223ZM296.274 36.8727V39.2531H293.894V36.8727H296.274ZM293.326 40.7098V43.1258H290.945V40.7098H293.326ZM293.326 44.5825V46.9274H290.945V44.5825H293.326ZM334.61 33.0356V35.4515H332.23V33.0356H334.61ZM334.61 36.9082V39.2531H332.23V36.9082H334.61ZM334.61 40.7453V43.1258H332.23V40.7453H334.61ZM334.61 44.618V46.9629H332.23V44.618H334.61ZM334.61 48.4196V50.8355H332.23V48.4196H334.61ZM334.61 52.2922V54.6727H332.23V52.2922H334.61ZM334.61 56.1293V58.5098H332.23V56.1293H334.61ZM331.661 52.2922V54.6727H329.281V52.2922H331.661ZM328.748 48.4196V50.8355H326.367V48.4196H328.748ZM325.799 44.618V46.9629H323.419V44.618H325.799ZM322.85 40.7453V43.1258H320.47V40.7453H322.85ZM319.901 36.9082V39.2531H317.521V36.9082H319.901ZM316.952 33.0356V35.4515H314.572V33.0356H316.952ZM316.952 36.9082V39.2531H314.572V36.9082H316.952ZM316.952 40.7453V43.1258H314.572V40.7453H316.952ZM316.952 44.618V46.9629H314.572V44.618H316.952ZM316.952 48.4196V50.8355H314.572V48.4196H316.952ZM316.952 52.2922V54.6727H314.572V52.2922H316.952ZM316.952 56.1293V58.5098H314.572V56.1293H316.952ZM340.579 33.0356V35.416H338.199V33.0356H340.579ZM343.528 33.0356V35.416H341.147V33.0356H343.528ZM346.477 33.0356V35.416H344.061V33.0356H346.477ZM343.528 36.9082V39.2531H341.147V36.9082H343.528ZM343.528 40.7453V43.1258H341.147V40.7453H343.528ZM343.528 44.5825V46.9629H341.147V44.5825H343.528ZM343.528 48.4196V50.8H341.147V48.4196H343.528ZM343.528 52.2922V54.6371H341.147V52.2922H343.528ZM340.579 56.1293V58.5098H338.199V56.1293H340.579ZM343.528 56.1293V58.5098H341.147V56.1293H343.528ZM346.477 56.1293V58.5098H344.061V56.1293H346.477ZM370.032 33.0356V35.416H367.652V33.0356H370.032ZM367.083 33.0356V35.416H364.703V33.0356H367.083ZM364.17 33.0356V35.416H361.79V33.0356H364.17ZM361.221 33.0356V35.416H358.841V33.0356H361.221ZM358.272 33.0356V35.416H355.892V33.0356H358.272ZM355.323 33.0356V35.416H352.943V33.0356H355.323ZM352.375 33.0356V35.416H349.994V33.0356H352.375ZM352.375 36.9082V39.2531H349.994V36.9082H352.375ZM352.375 40.7453V43.1258H349.994V40.7453H352.375ZM352.375 44.5825V46.9629H349.994V44.5825H352.375ZM355.323 44.5825V46.9629H352.943V44.5825H355.323ZM358.272 44.5825V46.9629H355.892V44.5825H358.272ZM361.221 44.5825V46.9629H358.841V44.5825H361.221ZM364.17 44.5825V46.9629H361.79V44.5825H364.17ZM352.375 48.4196V50.8H349.994V48.4196H352.375ZM352.375 52.2922V54.6371H349.994V52.2922H352.375ZM352.375 56.1293V58.5098H349.994V56.1293H352.375ZM355.323 56.1293V58.5098H352.943V56.1293H355.323ZM358.272 56.1293V58.5098H355.892V56.1293H358.272ZM361.221 56.1293V58.5098H358.841V56.1293H361.221ZM364.17 56.1293V58.5098H361.79V56.1293H364.17ZM367.083 56.1293V58.5098H364.703V56.1293H367.083ZM370.032 56.1293V58.5098H367.652V56.1293H370.032ZM376.001 52.2567V54.6371H373.621V52.2567H376.001ZM378.95 56.0938V58.4742H376.57V56.0938H378.95ZM381.899 56.0938V58.4742H379.519V56.0938H381.899ZM384.848 56.0938V58.4742H382.467V56.0938H384.848ZM387.797 56.0938V58.4742H385.416V56.0938H387.797ZM390.71 56.0938V58.4742H388.33V56.0938H390.71ZM393.659 52.2567V54.6371H391.279V52.2567H393.659ZM393.659 48.4196V50.8H391.279V48.4196H393.659ZM390.71 44.5825V46.9274H388.33V44.5825H390.71ZM387.797 44.5825V46.9274H385.416V44.5825H387.797ZM384.848 44.5825V46.9274H382.467V44.5825H384.848ZM381.899 44.5825V46.9274H379.519V44.5825H381.899ZM378.95 44.5825V46.9274H376.57V44.5825H378.95ZM376.001 40.7098V43.0902H373.621V40.7098H376.001ZM376.001 36.8727V39.2531H373.621V36.8727H376.001ZM378.95 33.0001V35.416H376.57V33.0001H378.95ZM381.899 33.0001V35.416H379.519V33.0001H381.899ZM384.848 33.0001V35.416H382.467V33.0001H384.848ZM387.797 33.0001V35.416H385.416V33.0001H387.797ZM390.71 33.0001V35.416H388.33V33.0001H390.71ZM393.659 36.8727V39.2531H391.279V36.8727H393.659ZM2.3799 89.0938V91.5098H-0.00052904V89.0938H2.3799ZM2.3799 85.2922V87.6371H-0.00052904V85.2922H2.3799ZM2.3799 81.4196V83.8H-0.00052904V81.4196H2.3799ZM5.3288 81.4196V83.8H2.94836V81.4196H5.3288ZM8.27769 81.4196V83.8H5.86173V81.4196H8.27769ZM11.2266 81.4196V83.8H8.81062V81.4196H11.2266ZM14.1755 81.4196V83.8H11.7595V81.4196H14.1755ZM17.0533 81.4196V83.8H14.7084V81.4196H17.0533ZM20.0022 81.4196V83.8H17.6573V81.4196H20.0022ZM20.0022 85.2922V87.6371H17.6573V85.2922H20.0022ZM20.0022 89.0938V91.5098H17.6573V89.0938H20.0022ZM20.0022 77.5825V79.9274H17.6573V77.5825H20.0022ZM20.0022 73.7098V76.1258H17.6573V73.7098H20.0022ZM17.0533 69.8727V72.2531H14.7084V69.8727H17.0533ZM14.1755 66.0356V68.416H11.7595V66.0356H14.1755ZM11.2266 66.0356V68.416H8.81062V66.0356H11.2266ZM8.27769 66.0356V68.416H5.86173V66.0356H8.27769ZM5.3288 69.8727V72.2531H2.94836V69.8727H5.3288ZM2.3799 73.7098V76.1258H-0.00052904V73.7098H2.3799ZM2.3799 77.5825V79.9274H-0.00052904V77.5825H2.3799ZM24.4337 89.5452C24.4337 88.6478 24.6519 88.0171 25.0885 87.6533C25.5251 87.2895 26.0466 87.1076 26.6529 87.1076C27.2835 87.1076 27.8171 87.2895 28.2537 87.6533C28.7145 88.0171 28.945 88.6478 28.945 89.5452C28.945 90.4183 28.7145 91.0489 28.2537 91.437C27.8171 91.8251 27.2835 92.0191 26.6529 92.0191C26.0466 92.0191 25.5251 91.8251 25.0885 91.437C24.6519 91.0489 24.4337 90.4183 24.4337 89.5452ZM24.4337 73.9739C24.4337 73.0522 24.6519 72.4095 25.0885 72.0456C25.5251 71.6818 26.0466 71.4999 26.6529 71.4999C27.2835 71.4999 27.8171 71.6818 28.2537 72.0456C28.7145 72.4095 28.945 73.0522 28.945 73.9739C28.945 74.847 28.7145 75.4776 28.2537 75.8657C27.8171 76.2538 27.2835 76.4478 26.6529 76.4478C26.0466 76.4478 25.5251 76.2538 25.0885 75.8657C24.6519 75.4776 24.4337 74.847 24.4337 73.9739ZM49.349 66.0356V68.416H46.9686V66.0356H49.349ZM46.4001 69.9082V72.2531H44.0197V69.9082H46.4001ZM49.349 69.9082V72.2531H46.9686V69.9082H49.349ZM49.349 73.7453V76.1258H46.9686V73.7453H49.349ZM49.349 77.5825V79.9629H46.9686V77.5825H49.349ZM49.349 81.4196V83.8355H46.9686V81.4196H49.349ZM49.349 85.2922V87.6371H46.9686V85.2922H49.349ZM46.4001 89.1293V91.5098H44.0197V89.1293H46.4001ZM49.349 89.1293V91.5098H46.9686V89.1293H49.349ZM52.2979 89.1293V91.5098H49.9175V89.1293H52.2979ZM58.1957 66.0711V68.4515H55.8153V66.0711H58.1957ZM61.1446 66.0711V68.4515H58.7642V66.0711H61.1446ZM64.0935 66.0711V68.4515H61.7131V66.0711H64.0935ZM67.0424 66.0711V68.4515H64.6264V66.0711H67.0424ZM69.9913 66.0711V68.4515H67.5753V66.0711H69.9913ZM72.9047 66.0711V68.4515H70.5242V66.0711H72.9047ZM75.818 69.9082V72.2887H73.4731V69.9082H75.818ZM75.818 73.7453V76.1613H73.4731V73.7453H75.818ZM75.818 81.4551V83.8355H73.4731V81.4551H75.818ZM75.818 85.3277V87.6727H73.4731V85.3277H75.818ZM72.9047 89.1293V91.5453H70.5242V89.1293H72.9047ZM69.9913 89.1293V91.5453H67.5753V89.1293H69.9913ZM67.0424 89.1293V91.5453H64.6264V89.1293H67.0424ZM64.0935 89.1293V91.5453H61.7131V89.1293H64.0935ZM61.1446 89.1293V91.5453H58.7642V89.1293H61.1446ZM58.1957 89.1293V91.5453H55.8153V89.1293H58.1957ZM58.1957 85.3277V87.6727H55.8153V85.3277H58.1957ZM58.1957 81.4551V83.8355H55.8153V81.4551H58.1957ZM58.1957 77.618V79.9629H55.8153V77.618H58.1957ZM58.1957 73.7453V76.1613H55.8153V73.7453H58.1957ZM58.1957 69.9082V72.2887H55.8153V69.9082H58.1957ZM61.1446 77.618V79.9629H58.7642V77.618H61.1446ZM64.0935 77.618V79.9629H61.7131V77.618H64.0935ZM67.0424 77.618V79.9629H64.6264V77.618H67.0424ZM69.9913 77.618V79.9629H67.5753V77.618H69.9913ZM72.9047 77.618V79.9629H70.5242V77.618H72.9047ZM81.8224 66.0356V68.416H79.442V66.0356H81.8224ZM84.7713 66.0356V68.416H82.3909V66.0356H84.7713ZM87.7202 66.0356V68.416H85.3042V66.0356H87.7202ZM84.7713 69.9082V72.2531H82.3909V69.9082H84.7713ZM84.7713 73.7453V76.1258H82.3909V73.7453H84.7713ZM84.7713 77.5825V79.9629H82.3909V77.5825H84.7713ZM84.7713 81.4196V83.8H82.3909V81.4196H84.7713ZM84.7713 85.2922V87.6371H82.3909V85.2922H84.7713ZM81.8224 89.1293V91.5098H79.442V89.1293H81.8224ZM84.7713 89.1293V91.5098H82.3909V89.1293H84.7713ZM87.7202 89.1293V91.5098H85.3042V89.1293H87.7202ZM104.277 89.0938V91.5098H101.896V89.0938H104.277ZM104.277 85.2922V87.6371H101.896V85.2922H104.277ZM104.277 81.4196V83.8H101.896V81.4196H104.277ZM107.226 81.4196V83.8H104.845V81.4196H107.226ZM110.174 81.4196V83.8H107.758V81.4196H110.174ZM113.123 81.4196V83.8H110.707V81.4196H113.123ZM116.072 81.4196V83.8H113.656V81.4196H116.072ZM118.95 81.4196V83.8H116.605V81.4196H118.95ZM121.899 81.4196V83.8H119.554V81.4196H121.899ZM121.899 85.2922V87.6371H119.554V85.2922H121.899ZM121.899 89.0938V91.5098H119.554V89.0938H121.899ZM121.899 77.5825V79.9274H119.554V77.5825H121.899ZM121.899 73.7098V76.1258H119.554V73.7098H121.899ZM118.95 69.8727V72.2531H116.605V69.8727H118.95ZM116.072 66.0356V68.416H113.656V66.0356H116.072ZM113.123 66.0356V68.416H110.707V66.0356H113.123ZM110.174 66.0356V68.416H107.758V66.0356H110.174ZM107.226 69.8727V72.2531H104.845V69.8727H107.226ZM104.277 73.7098V76.1258H101.896V73.7098H104.277ZM104.277 77.5825V79.9274H101.896V77.5825H104.277ZM127.903 89.1293V91.5098H125.523V89.1293H127.903ZM127.903 85.2922V87.6371H125.523V85.2922H127.903ZM127.903 81.4196V83.8355H125.523V81.4196H127.903ZM127.903 77.5825V79.9629H125.523V77.5825H127.903ZM127.903 73.7453V76.1258H125.523V73.7453H127.903ZM127.903 69.9082V72.2531H125.523V69.9082H127.903ZM127.903 66.0356V68.416H125.523V66.0356H127.903ZM130.852 66.0356V68.416H128.472V66.0356H130.852ZM133.801 66.0356V68.416H131.421V66.0356H133.801ZM136.75 66.0356V68.416H134.37V66.0356H136.75ZM139.699 66.0356V68.416H137.318V66.0356H139.699ZM142.612 66.0356V68.416H140.232V66.0356H142.612ZM145.561 69.9082V72.2531H143.181V69.9082H145.561ZM145.561 73.7453V76.1258H143.181V73.7453H145.561ZM142.612 77.5825V79.9629H140.232V77.5825H142.612ZM139.699 77.5825V79.9629H137.318V77.5825H139.699ZM136.75 77.5825V79.9629H134.37V77.5825H136.75ZM133.801 77.5825V79.9629H131.421V77.5825H133.801ZM130.852 77.5825V79.9629H128.472V77.5825H130.852ZM145.561 89.1293V91.5098H143.181V89.1293H145.561ZM142.612 85.2922V87.6371H140.232V85.2922H142.612ZM139.699 81.4196V83.8355H137.318V81.4196H139.699ZM151.53 89.1293V91.5098H149.15V89.1293H151.53ZM151.53 85.2922V87.6371H149.15V85.2922H151.53ZM151.53 81.4196V83.8355H149.15V81.4196H151.53ZM151.53 77.5825V79.9629H149.15V77.5825H151.53ZM151.53 73.7453V76.1258H149.15V73.7453H151.53ZM151.53 69.9082V72.2531H149.15V69.9082H151.53ZM151.53 66.0356V68.416H149.15V66.0356H151.53ZM154.479 66.0356V68.416H152.098V66.0356H154.479ZM157.428 66.0356V68.416H155.047V66.0356H157.428ZM160.377 66.0356V68.416H157.996V66.0356H160.377ZM163.326 66.0356V68.416H160.945V66.0356H163.326ZM166.239 66.0356V68.416H163.858V66.0356H166.239ZM169.188 69.9082V72.2531H166.807V69.9082H169.188ZM169.188 73.7453V76.1258H166.807V73.7453H169.188ZM166.239 77.5825V79.9629H163.858V77.5825H166.239ZM163.326 77.5825V79.9629H160.945V77.5825H163.326ZM160.377 77.5825V79.9629H157.996V77.5825H160.377ZM157.428 77.5825V79.9629H155.047V77.5825H157.428ZM154.479 77.5825V79.9629H152.098V77.5825H154.479ZM169.188 89.1293V91.5098H166.807V89.1293H169.188ZM166.239 85.2922V87.6371H163.858V85.2922H166.239ZM163.326 81.4196V83.8355H160.945V81.4196H163.326ZM185.815 66.0356V68.416H183.435V66.0356H185.815ZM188.764 66.0356V68.416H186.384V66.0356H188.764ZM191.713 66.0356V68.416H189.333V66.0356H191.713ZM194.662 66.0356V68.416H192.282V66.0356H194.662ZM197.611 66.0356V68.416H195.23V66.0356H197.611ZM200.524 66.0356V68.416H198.144V66.0356H200.524ZM203.473 66.0356V68.416H201.093V66.0356H203.473ZM194.662 69.8727V72.2531H192.282V69.8727H194.662ZM194.662 73.7098V76.1258H192.282V73.7098H194.662ZM194.662 77.5825V79.9274H192.282V77.5825H194.662ZM194.662 81.4196V83.8H192.282V81.4196H194.662ZM194.662 85.2922V87.6371H192.282V85.2922H194.662ZM194.662 89.0938V91.5098H192.282V89.0938H194.662ZM209.442 89.0938V91.5098H207.062V89.0938H209.442ZM209.442 85.2922V87.6371H207.062V85.2922H209.442ZM209.442 81.4196V83.8H207.062V81.4196H209.442ZM212.391 81.4196V83.8H210.01V81.4196H212.391ZM215.34 81.4196V83.8H212.924V81.4196H215.34ZM218.289 81.4196V83.8H215.873V81.4196H218.289ZM221.238 81.4196V83.8H218.822V81.4196H221.238ZM224.115 81.4196V83.8H221.77V81.4196H224.115ZM227.064 81.4196V83.8H224.719V81.4196H227.064ZM227.064 85.2922V87.6371H224.719V85.2922H227.064ZM227.064 89.0938V91.5098H224.719V89.0938H227.064ZM227.064 77.5825V79.9274H224.719V77.5825H227.064ZM227.064 73.7098V76.1258H224.719V73.7098H227.064ZM224.115 69.8727V72.2531H221.77V69.8727H224.115ZM221.238 66.0356V68.416H218.822V66.0356H221.238ZM218.289 66.0356V68.416H215.873V66.0356H218.289ZM215.34 66.0356V68.416H212.924V66.0356H215.34ZM212.391 69.8727V72.2531H210.01V69.8727H212.391ZM209.442 73.7098V76.1258H207.062V73.7098H209.442ZM209.442 77.5825V79.9274H207.062V77.5825H209.442ZM233.069 89.1293V91.5098H230.688V89.1293H233.069ZM233.069 85.2922V87.6371H230.688V85.2922H233.069ZM233.069 81.4196V83.8355H230.688V81.4196H233.069ZM233.069 77.5825V79.9629H230.688V77.5825H233.069ZM233.069 73.7453V76.1258H230.688V73.7453H233.069ZM233.069 69.9082V72.2531H230.688V69.9082H233.069ZM233.069 66.0356V68.416H230.688V66.0356H233.069ZM236.018 66.0356V68.416H233.637V66.0356H236.018ZM238.966 66.0356V68.416H236.586V66.0356H238.966ZM241.915 66.0356V68.416H239.535V66.0356H241.915ZM244.864 66.0356V68.416H242.484V66.0356H244.864ZM247.778 66.0356V68.416H245.397V66.0356H247.778ZM250.727 69.9082V72.2531H248.346V69.9082H250.727ZM250.727 73.7453V76.1258H248.346V73.7453H250.727ZM247.778 77.5825V79.9629H245.397V77.5825H247.778ZM244.864 77.5825V79.9629H242.484V77.5825H244.864ZM241.915 77.5825V79.9629H239.535V77.5825H241.915ZM238.966 77.5825V79.9629H236.586V77.5825H238.966ZM236.018 77.5825V79.9629H233.637V77.5825H236.018ZM250.727 89.1293V91.5098H248.346V89.1293H250.727ZM247.778 85.2922V87.6371H245.397V85.2922H247.778ZM244.864 81.4196V83.8355H242.484V81.4196H244.864ZM274.318 69.9082V72.2531H271.973V69.9082H274.318ZM271.369 66.0356V68.4515H269.024V66.0356H271.369ZM268.491 66.0356V68.4515H266.075V66.0356H268.491ZM265.542 66.0356V68.4515H263.126V66.0356H265.542ZM262.593 66.0356V68.4515H260.177V66.0356H262.593ZM259.644 66.0356V68.4515H257.264V66.0356H259.644ZM256.695 69.9082V72.2531H254.315V69.9082H256.695ZM256.695 73.7453V76.1258H254.315V73.7453H256.695ZM256.695 77.618V79.9629H254.315V77.618H256.695ZM256.695 81.4196V83.8355H254.315V81.4196H256.695ZM256.695 85.2922V87.6727H254.315V85.2922H256.695ZM259.644 89.1293V91.5098H257.264V89.1293H259.644ZM262.593 89.1293V91.5098H260.177V89.1293H262.593ZM265.542 89.1293V91.5098H263.126V89.1293H265.542ZM268.491 89.1293V91.5098H266.075V89.1293H268.491ZM271.369 89.1293V91.5098H269.024V89.1293H271.369ZM274.318 89.1293V91.5098H271.973V89.1293H274.318ZM274.318 85.2922V87.6727H271.973V85.2922H274.318ZM274.318 81.4196V83.8355H271.973V81.4196H274.318ZM274.318 77.618V79.9629H271.973V77.618H274.318ZM271.369 77.618V79.9629H269.024V77.618H271.369ZM268.491 77.618V79.9629H266.075V77.618H268.491ZM297.98 66.0356V68.416H295.599V66.0356H297.98ZM295.031 66.0356V68.416H292.651V66.0356H295.031ZM292.118 66.0356V68.416H289.737V66.0356H292.118ZM289.169 66.0356V68.416H286.788V66.0356H289.169ZM286.22 66.0356V68.416H283.839V66.0356H286.22ZM283.271 66.0356V68.416H280.891V66.0356H283.271ZM280.322 66.0356V68.416H277.942V66.0356H280.322ZM280.322 69.9082V72.2531H277.942V69.9082H280.322ZM280.322 73.7453V76.1258H277.942V73.7453H280.322ZM280.322 77.5825V79.9629H277.942V77.5825H280.322ZM283.271 77.5825V79.9629H280.891V77.5825H283.271ZM286.22 77.5825V79.9629H283.839V77.5825H286.22ZM289.169 77.5825V79.9629H286.788V77.5825H289.169ZM292.118 77.5825V79.9629H289.737V77.5825H292.118ZM280.322 81.4196V83.8H277.942V81.4196H280.322ZM280.322 85.2922V87.6371H277.942V85.2922H280.322ZM280.322 89.1293V91.5098H277.942V89.1293H280.322ZM283.271 89.1293V91.5098H280.891V89.1293H283.271ZM286.22 89.1293V91.5098H283.839V89.1293H286.22ZM289.169 89.1293V91.5098H286.788V89.1293H289.169ZM292.118 89.1293V91.5098H289.737V89.1293H292.118ZM295.031 89.1293V91.5098H292.651V89.1293H295.031ZM297.98 89.1293V91.5098H295.599V89.1293H297.98ZM303.949 66.0356V68.416H301.568V66.0356H303.949ZM306.898 66.0356V68.416H304.517V66.0356H306.898ZM309.847 66.0356V68.416H307.466V66.0356H309.847ZM312.795 66.0356V68.416H310.415V66.0356H312.795ZM315.744 66.0356V68.416H313.364V66.0356H315.744ZM318.658 66.0356V68.416H316.277V66.0356H318.658ZM321.607 66.0356V68.416H319.226V66.0356H321.607ZM312.795 69.8727V72.2531H310.415V69.8727H312.795ZM312.795 73.7098V76.1258H310.415V73.7098H312.795ZM312.795 77.5825V79.9274H310.415V77.5825H312.795ZM312.795 81.4196V83.8H310.415V81.4196H312.795ZM312.795 85.2922V87.6371H310.415V85.2922H312.795ZM312.795 89.0938V91.5098H310.415V89.0938H312.795ZM20.0377 122.129V124.51H17.6573V122.129H20.0377ZM20.0377 118.292V120.637H17.6573V118.292H20.0377ZM20.0377 114.42V116.8H17.6573V114.42H20.0377ZM20.0377 110.582V112.963H17.6573V110.582H20.0377ZM20.0377 106.71V109.126H17.6573V106.71H20.0377ZM20.0377 102.908V105.253H17.6573V102.908H20.0377ZM20.0377 99.0356V101.416H17.6573V99.0356H20.0377ZM17.0888 102.908V105.253H14.7084V102.908H17.0888ZM14.1755 106.71V109.126H11.795V106.71H14.1755ZM11.2266 110.582V112.963H8.84615V110.582H11.2266ZM8.27769 106.71V109.126H5.89726V106.71H8.27769ZM5.3288 102.908V105.253H2.94836V102.908H5.3288ZM2.3799 99.0356V101.416H-0.00052904V99.0356H2.3799ZM2.3799 102.908V105.253H-0.00052904V102.908H2.3799ZM2.3799 106.71V109.126H-0.00052904V106.71H2.3799ZM2.3799 110.582V112.963H-0.00052904V110.582H2.3799ZM2.3799 114.42V116.8H-0.00052904V114.42H2.3799ZM2.3799 118.292V120.637H-0.00052904V118.292H2.3799ZM2.3799 122.129V124.51H-0.00052904V122.129H2.3799ZM24.4337 122.545C24.4337 121.648 24.6519 121.017 25.0885 120.653C25.5251 120.29 26.0466 120.108 26.6529 120.108C27.2835 120.108 27.8171 120.29 28.2537 120.653C28.7145 121.017 28.945 121.648 28.945 122.545C28.945 123.418 28.7145 124.049 28.2537 124.437C27.8171 124.825 27.2835 125.019 26.6529 125.019C26.0466 125.019 25.5251 124.825 25.0885 124.437C24.6519 124.049 24.4337 123.418 24.4337 122.545ZM24.4337 106.974C24.4337 106.052 24.6519 105.409 25.0885 105.046C25.5251 104.682 26.0466 104.5 26.6529 104.5C27.2835 104.5 27.8171 104.682 28.2537 105.046C28.7145 105.409 28.945 106.052 28.945 106.974C28.945 107.847 28.7145 108.478 28.2537 108.866C27.8171 109.254 27.2835 109.448 26.6529 109.448C26.0466 109.448 25.5251 109.254 25.0885 108.866C24.6519 108.478 24.4337 107.847 24.4337 106.974ZM46.4001 99.0356V101.416H44.0197V99.0356H46.4001ZM49.349 99.0356V101.416H46.9686V99.0356H49.349ZM52.2979 99.0356V101.416H49.882V99.0356H52.2979ZM49.349 102.908V105.253H46.9686V102.908H49.349ZM49.349 106.745V109.126H46.9686V106.745H49.349ZM49.349 110.582V112.963H46.9686V110.582H49.349ZM49.349 114.42V116.8H46.9686V114.42H49.349ZM49.349 118.292V120.637H46.9686V118.292H49.349ZM46.4001 122.129V124.51H44.0197V122.129H46.4001ZM49.349 122.129V124.51H46.9686V122.129H49.349ZM52.2979 122.129V124.51H49.882V122.129H52.2979ZM58.1957 122.129V124.51H55.8153V122.129H58.1957ZM58.1957 118.292V120.637H55.8153V118.292H58.1957ZM58.1957 114.42V116.836H55.8153V114.42H58.1957ZM58.1957 110.582V112.963H55.8153V110.582H58.1957ZM58.1957 106.745V109.126H55.8153V106.745H58.1957ZM58.1957 102.908V105.253H55.8153V102.908H58.1957ZM58.1957 99.0356V101.416H55.8153V99.0356H58.1957ZM61.1446 99.0356V101.416H58.7642V99.0356H61.1446ZM64.0935 99.0356V101.416H61.7131V99.0356H64.0935ZM67.0424 99.0356V101.416H64.662V99.0356H67.0424ZM69.9913 99.0356V101.416H67.6109V99.0356H69.9913ZM72.9047 99.0356V101.416H70.5242V99.0356H72.9047ZM75.8535 102.908V105.253H73.4731V102.908H75.8535ZM75.8535 106.745V109.126H73.4731V106.745H75.8535ZM72.9047 110.582V112.963H70.5242V110.582H72.9047ZM69.9913 110.582V112.963H67.6109V110.582H69.9913ZM67.0424 110.582V112.963H64.662V110.582H67.0424ZM64.0935 110.582V112.963H61.7131V110.582H64.0935ZM61.1446 110.582V112.963H58.7642V110.582H61.1446ZM96.5313 99.0356V101.416H94.1509V99.0356H96.5313ZM93.618 99.0356V101.416H91.2375V99.0356H93.618ZM90.6691 99.0356V101.416H88.2886V99.0356H90.6691ZM87.7202 99.0356V101.416H85.3397V99.0356H87.7202ZM84.7713 99.0356V101.416H82.3909V99.0356H84.7713ZM81.8224 102.908V105.253H79.442V102.908H81.8224ZM81.8224 106.745V109.126H79.442V106.745H81.8224ZM81.8224 110.582V112.963H79.442V110.582H81.8224ZM81.8224 114.42V116.836H79.442V114.42H81.8224ZM81.8224 118.292V120.637H79.442V118.292H81.8224ZM84.7713 122.129V124.51H82.3909V122.129H84.7713ZM87.7202 122.129V124.51H85.3397V122.129H87.7202ZM90.6691 122.129V124.51H88.2886V122.129H90.6691ZM93.618 122.129V124.51H91.2375V122.129H93.618ZM96.5313 122.129V124.51H94.1509V122.129H96.5313ZM99.4802 118.292V120.637H97.0998V118.292H99.4802ZM99.4802 114.42V116.836H97.0998V114.42H99.4802ZM99.4802 110.582V112.963H97.0998V110.582H99.4802ZM99.4802 106.745V109.126H97.0998V106.745H99.4802ZM99.4802 102.908V105.253H97.0998V102.908H99.4802ZM116.108 122.129V124.51H113.727V122.129H116.108ZM116.108 118.292V120.637H113.727V118.292H116.108ZM116.108 114.42V116.836H113.727V114.42H116.108ZM116.108 110.582V112.963H113.727V110.582H116.108ZM116.108 106.745V109.126H113.727V106.745H116.108ZM116.108 102.908V105.253H113.727V102.908H116.108ZM116.108 99.0356V101.416H113.727V99.0356H116.108ZM119.057 99.0356V101.416H116.676V99.0356H119.057ZM122.006 99.0356V101.416H119.625V99.0356H122.006ZM124.954 99.0356V101.416H122.574V99.0356H124.954ZM127.903 99.0356V101.416H125.523V99.0356H127.903ZM130.817 99.0356V101.416H128.436V99.0356H130.817ZM133.766 102.908V105.253H131.385V102.908H133.766ZM133.766 106.745V109.126H131.385V106.745H133.766ZM130.817 110.582V112.963H128.436V110.582H130.817ZM127.903 110.582V112.963H125.523V110.582H127.903ZM124.954 110.582V112.963H122.574V110.582H124.954ZM122.006 110.582V112.963H119.625V110.582H122.006ZM119.057 110.582V112.963H116.676V110.582H119.057ZM133.766 122.129V124.51H131.385V122.129H133.766ZM130.817 118.292V120.637H128.436V118.292H130.817ZM127.903 114.42V116.836H125.523V114.42H127.903ZM157.392 99.0356V101.416H155.012V99.0356H157.392ZM154.443 99.0356V101.416H152.063V99.0356H154.443ZM151.53 99.0356V101.416H149.15V99.0356H151.53ZM148.581 99.0356V101.416H146.201V99.0356H148.581ZM145.632 99.0356V101.416H143.252V99.0356H145.632ZM142.683 99.0356V101.416H140.303V99.0356H142.683ZM139.734 99.0356V101.416H137.354V99.0356H139.734ZM139.734 102.908V105.253H137.354V102.908H139.734ZM139.734 106.745V109.126H137.354V106.745H139.734ZM139.734 110.582V112.963H137.354V110.582H139.734ZM142.683 110.582V112.963H140.303V110.582H142.683ZM145.632 110.582V112.963H143.252V110.582H145.632ZM148.581 110.582V112.963H146.201V110.582H148.581ZM151.53 110.582V112.963H149.15V110.582H151.53ZM139.734 114.42V116.8H137.354V114.42H139.734ZM139.734 118.292V120.637H137.354V118.292H139.734ZM139.734 122.129V124.51H137.354V122.129H139.734ZM142.683 122.129V124.51H140.303V122.129H142.683ZM145.632 122.129V124.51H143.252V122.129H145.632ZM148.581 122.129V124.51H146.201V122.129H148.581ZM151.53 122.129V124.51H149.15V122.129H151.53ZM154.443 122.129V124.51H152.063V122.129H154.443ZM157.392 122.129V124.51H155.012V122.129H157.392ZM163.361 122.094V124.51H160.981V122.094H163.361ZM163.361 118.292V120.637H160.981V118.292H163.361ZM163.361 114.42V116.8H160.981V114.42H163.361ZM166.31 114.42V116.8H163.93V114.42H166.31ZM169.259 114.42V116.8H166.843V114.42H169.259ZM172.208 114.42V116.8H169.792V114.42H172.208ZM175.157 114.42V116.8H172.741V114.42H175.157ZM178.035 114.42V116.8H175.69V114.42H178.035ZM180.983 114.42V116.8H178.638V114.42H180.983ZM180.983 118.292V120.637H178.638V118.292H180.983ZM180.983 122.094V124.51H178.638V122.094H180.983ZM180.983 110.582V112.927H178.638V110.582H180.983ZM180.983 106.71V109.126H178.638V106.71H180.983ZM178.035 102.873V105.253H175.69V102.873H178.035ZM175.157 99.0356V101.416H172.741V99.0356H175.157ZM172.208 99.0356V101.416H169.792V99.0356H172.208ZM169.259 99.0356V101.416H166.843V99.0356H169.259ZM166.31 102.873V105.253H163.93V102.873H166.31ZM163.361 106.71V109.126H160.981V106.71H163.361ZM163.361 110.582V112.927H160.981V110.582H163.361ZM186.988 99.0711V101.452H184.607V99.0711H186.988ZM186.988 102.908V105.289H184.607V102.908H186.988ZM186.988 106.745V109.126H184.607V106.745H186.988ZM186.988 110.618V112.963H184.607V110.618H186.988ZM186.988 114.455V116.836H184.607V114.455H186.988ZM186.988 118.292V120.673H184.607V118.292H186.988ZM186.988 122.129V124.545H184.607V122.129H186.988ZM189.937 122.129V124.545H187.556V122.129H189.937ZM192.886 122.129V124.545H190.47V122.129H192.886ZM195.834 122.129V124.545H193.418V122.129H195.834ZM198.783 122.129V124.545H196.367V122.129H198.783ZM201.661 118.292V120.673H199.316V118.292H201.661ZM204.61 114.455V116.836H202.265V114.455H204.61ZM204.61 110.618V112.963H202.265V110.618H204.61ZM204.61 106.745V109.126H202.265V106.745H204.61ZM201.661 102.908V105.289H199.316V102.908H201.661ZM198.783 99.0711V101.452H196.367V99.0711H198.783ZM195.834 99.0711V101.452H193.418V99.0711H195.834ZM192.886 99.0711V101.452H190.47V99.0711H192.886ZM189.937 99.0711V101.452H187.556V99.0711H189.937ZM210.614 99.0356V101.416H208.234V99.0356H210.614ZM210.614 102.873V105.253H208.234V102.873H210.614ZM213.563 106.71V109.126H211.183V106.71H213.563ZM216.512 110.582V112.927H214.096V110.582H216.512ZM228.237 99.0356V101.416H225.892V99.0356H228.237ZM228.237 102.873V105.253H225.892V102.873H228.237ZM225.288 106.71V109.126H222.943V106.71H225.288ZM222.41 110.582V112.927H219.994V110.582H222.41ZM219.461 114.42V116.8H217.045V114.42H219.461ZM219.461 118.292V120.637H217.045V118.292H219.461ZM219.461 122.094V124.51H217.045V122.094H219.461ZM2.3799 155.129V157.51H-0.00052904V155.129H2.3799ZM2.3799 151.292V153.637H-0.00052904V151.292H2.3799ZM2.3799 147.42V149.836H-0.00052904V147.42H2.3799ZM2.3799 143.582V145.963H-0.00052904V143.582H2.3799ZM2.3799 139.745V142.126H-0.00052904V139.745H2.3799ZM2.3799 135.908V138.253H-0.00052904V135.908H2.3799ZM2.3799 132.036V134.416H-0.00052904V132.036H2.3799ZM5.3288 132.036V134.416H2.94836V132.036H5.3288ZM8.27769 132.036V134.416H5.89726V132.036H8.27769ZM11.2266 132.036V134.416H8.84615V132.036H11.2266ZM14.1755 132.036V134.416H11.795V132.036H14.1755ZM17.0888 132.036V134.416H14.7084V132.036H17.0888ZM20.0377 135.908V138.253H17.6573V135.908H20.0377ZM20.0377 139.745V142.126H17.6573V139.745H20.0377ZM17.0888 143.582V145.963H14.7084V143.582H17.0888ZM14.1755 143.582V145.963H11.795V143.582H14.1755ZM11.2266 143.582V145.963H8.84615V143.582H11.2266ZM8.27769 143.582V145.963H5.89726V143.582H8.27769ZM5.3288 143.582V145.963H2.94836V143.582H5.3288ZM24.4337 155.545C24.4337 154.648 24.6519 154.017 25.0885 153.653C25.5251 153.29 26.0466 153.108 26.6529 153.108C27.2835 153.108 27.8171 153.29 28.2537 153.653C28.7145 154.017 28.945 154.648 28.945 155.545C28.945 156.418 28.7145 157.049 28.2537 157.437C27.8171 157.825 27.2835 158.019 26.6529 158.019C26.0466 158.019 25.5251 157.825 25.0885 157.437C24.6519 157.049 24.4337 156.418 24.4337 155.545ZM24.4337 139.974C24.4337 139.052 24.6519 138.409 25.0885 138.046C25.5251 137.682 26.0466 137.5 26.6529 137.5C27.2835 137.5 27.8171 137.682 28.2537 138.046C28.7145 138.409 28.945 139.052 28.945 139.974C28.945 140.847 28.7145 141.478 28.2537 141.866C27.8171 142.254 27.2835 142.448 26.6529 142.448C26.0466 142.448 25.5251 142.254 25.0885 141.866C24.6519 141.478 24.4337 140.847 24.4337 139.974ZM46.4001 155.129V157.51H44.0197V155.129H46.4001ZM46.4001 151.292V153.637H44.0197V151.292H46.4001ZM46.4001 147.42V149.836H44.0197V147.42H46.4001ZM46.4001 143.582V145.963H44.0197V143.582H46.4001ZM46.4001 139.745V142.126H44.0197V139.745H46.4001ZM46.4001 135.908V138.253H44.0197V135.908H46.4001ZM46.4001 132.036V134.416H44.0197V132.036H46.4001ZM49.349 132.036V134.416H46.9686V132.036H49.349ZM52.2979 132.036V134.416H49.9175V132.036H52.2979ZM55.2468 132.036V134.416H52.8664V132.036H55.2468ZM58.1957 132.036V134.416H55.8153V132.036H58.1957ZM61.1091 132.036V134.416H58.7286V132.036H61.1091ZM64.058 135.908V138.253H61.6775V135.908H64.058ZM64.058 139.745V142.126H61.6775V139.745H64.058ZM61.1091 143.582V145.963H58.7286V143.582H61.1091ZM58.1957 143.582V145.963H55.8153V143.582H58.1957ZM55.2468 143.582V145.963H52.8664V143.582H55.2468ZM52.2979 143.582V145.963H49.9175V143.582H52.2979ZM49.349 143.582V145.963H46.9686V143.582H49.349ZM87.6846 132.036V134.416H85.3042V132.036H87.6846ZM84.7358 132.036V134.416H82.3553V132.036H84.7358ZM81.8224 132.036V134.416H79.442V132.036H81.8224ZM78.8735 132.036V134.416H76.4931V132.036H78.8735ZM75.9246 132.036V134.416H73.5442V132.036H75.9246ZM72.9757 132.036V134.416H70.5953V132.036H72.9757ZM70.0268 132.036V134.416H67.6464V132.036H70.0268ZM70.0268 135.908V138.253H67.6464V135.908H70.0268ZM70.0268 139.745V142.126H67.6464V139.745H70.0268ZM70.0268 143.582V145.963H67.6464V143.582H70.0268ZM72.9757 143.582V145.963H70.5953V143.582H72.9757ZM75.9246 143.582V145.963H73.5442V143.582H75.9246ZM78.8735 143.582V145.963H76.4931V143.582H78.8735ZM81.8224 143.582V145.963H79.442V143.582H81.8224ZM70.0268 147.42V149.8H67.6464V147.42H70.0268ZM70.0268 151.292V153.637H67.6464V151.292H70.0268ZM70.0268 155.129V157.51H67.6464V155.129H70.0268ZM72.9757 155.129V157.51H70.5953V155.129H72.9757ZM75.9246 155.129V157.51H73.5442V155.129H75.9246ZM78.8735 155.129V157.51H76.4931V155.129H78.8735ZM81.8224 155.129V157.51H79.442V155.129H81.8224ZM84.7358 155.129V157.51H82.3553V155.129H84.7358ZM87.6846 155.129V157.51H85.3042V155.129H87.6846ZM93.6535 155.129V157.51H91.2731V155.129H93.6535ZM93.6535 151.292V153.637H91.2731V151.292H93.6535ZM93.6535 147.42V149.836H91.2731V147.42H93.6535ZM93.6535 143.582V145.963H91.2731V143.582H93.6535ZM93.6535 139.745V142.126H91.2731V139.745H93.6535ZM93.6535 135.908V138.253H91.2731V135.908H93.6535ZM93.6535 132.036V134.416H91.2731V132.036H93.6535ZM96.6024 132.036V134.416H94.222V132.036H96.6024ZM99.5513 132.036V134.416H97.1709V132.036H99.5513ZM102.5 132.036V134.416H100.12V132.036H102.5ZM105.449 132.036V134.416H103.069V132.036H105.449ZM108.362 132.036V134.416H105.982V132.036H108.362ZM111.311 135.908V138.253H108.931V135.908H111.311ZM111.311 139.745V142.126H108.931V139.745H111.311ZM108.362 143.582V145.963H105.982V143.582H108.362ZM105.449 143.582V145.963H103.069V143.582H105.449ZM102.5 143.582V145.963H100.12V143.582H102.5ZM99.5513 143.582V145.963H97.1709V143.582H99.5513ZM96.6024 143.582V145.963H94.222V143.582H96.6024ZM111.311 155.129V157.51H108.931V155.129H111.311ZM108.362 151.292V153.637H105.982V151.292H108.362ZM105.449 147.42V149.836H103.069V147.42H105.449ZM117.28 155.129V157.51H114.9V155.129H117.28ZM117.28 151.292V153.637H114.9V151.292H117.28ZM117.28 147.42V149.836H114.9V147.42H117.28ZM117.28 143.582V145.963H114.9V143.582H117.28ZM117.28 139.745V142.126H114.9V139.745H117.28ZM117.28 135.908V138.253H114.9V135.908H117.28ZM117.28 132.036V134.416H114.9V132.036H117.28ZM120.229 132.036V134.416H117.849V132.036H120.229ZM123.178 132.036V134.416H120.798V132.036H123.178ZM126.127 132.036V134.416H123.746V132.036H126.127ZM129.076 132.036V134.416H126.695V132.036H129.076ZM131.989 132.036V134.416H129.609V132.036H131.989ZM134.938 135.908V138.253H132.558V135.908H134.938ZM134.938 139.745V142.126H132.558V139.745H134.938ZM131.989 143.582V145.963H129.609V143.582H131.989ZM129.076 143.582V145.963H126.695V143.582H129.076ZM126.127 143.582V145.963H123.746V143.582H126.127ZM123.178 143.582V145.963H120.798V143.582H123.178ZM120.229 143.582V145.963H117.849V143.582H120.229ZM158.565 132.036V134.416H156.184V132.036H158.565ZM155.616 132.036V134.416H153.235V132.036H155.616ZM152.702 132.036V134.416H150.322V132.036H152.702ZM149.754 132.036V134.416H147.373V132.036H149.754ZM146.805 132.036V134.416H144.424V132.036H146.805ZM143.856 132.036V134.416H141.475V132.036H143.856ZM140.907 132.036V134.416H138.526V132.036H140.907ZM140.907 135.908V138.253H138.526V135.908H140.907ZM140.907 139.745V142.126H138.526V139.745H140.907ZM140.907 143.582V145.963H138.526V143.582H140.907ZM143.856 143.582V145.963H141.475V143.582H143.856ZM146.805 143.582V145.963H144.424V143.582H146.805ZM149.754 143.582V145.963H147.373V143.582H149.754ZM152.702 143.582V145.963H150.322V143.582H152.702ZM140.907 147.42V149.8H138.526V147.42H140.907ZM140.907 151.292V153.637H138.526V151.292H140.907ZM140.907 155.129V157.51H138.526V155.129H140.907ZM143.856 155.129V157.51H141.475V155.129H143.856ZM146.805 155.129V157.51H144.424V155.129H146.805ZM149.754 155.129V157.51H147.373V155.129H149.754ZM152.702 155.129V157.51H150.322V155.129H152.702ZM155.616 155.129V157.51H153.235V155.129H155.616ZM158.565 155.129V157.51H156.184V155.129H158.565ZM164.534 132.036V134.416H162.153V132.036H164.534ZM167.482 132.036V134.416H165.102V132.036H167.482ZM170.431 132.036V134.416H168.051V132.036H170.431ZM173.38 132.036V134.416H171V132.036H173.38ZM176.329 132.036V134.416H173.949V132.036H176.329ZM179.242 132.036V134.416H176.862V132.036H179.242ZM182.191 132.036V134.416H179.811V132.036H182.191ZM173.38 135.873V138.253H171V135.873H173.38ZM173.38 139.71V142.126H171V139.71H173.38ZM173.38 143.582V145.927H171V143.582H173.38ZM173.38 147.42V149.8H171V147.42H173.38ZM173.38 151.292V153.637H171V151.292H173.38ZM173.38 155.094V157.51H171V155.094H173.38ZM188.16 151.257V153.637H185.78V151.257H188.16ZM205.818 151.257V153.637H203.438V151.257H205.818ZM188.16 132.036V134.416H185.78V132.036H188.16ZM188.16 135.908V138.253H185.78V135.908H188.16ZM188.16 139.71V142.126H185.78V139.71H188.16ZM188.16 143.582V145.963H185.78V143.582H188.16ZM188.16 147.42V149.8H185.78V147.42H188.16ZM191.109 155.165V157.51H188.729V155.165H191.109ZM194.058 155.129V157.51H191.678V155.129H194.058ZM197.007 155.129V157.51H194.626V155.129H197.007ZM199.956 155.129V157.51H197.575V155.129H199.956ZM202.869 155.165V157.51H200.489V155.165H202.869ZM205.818 147.42V149.8H203.438V147.42H205.818ZM205.818 143.582V145.963H203.438V143.582H205.818ZM205.818 139.71V142.126H203.438V139.71H205.818ZM205.818 135.908V138.253H203.438V135.908H205.818ZM205.818 132.036V134.416H203.438V132.036H205.818ZM211.787 132.036V134.416H209.406V132.036H211.787ZM214.736 132.036V134.416H212.355V132.036H214.736ZM217.685 132.036V134.416H215.269V132.036H217.685ZM214.736 135.908V138.253H212.355V135.908H214.736ZM214.736 139.745V142.126H212.355V139.745H214.736ZM214.736 143.582V145.963H212.355V143.582H214.736ZM214.736 147.42V149.8H212.355V147.42H214.736ZM214.736 151.292V153.637H212.355V151.292H214.736ZM211.787 155.129V157.51H209.406V155.129H211.787ZM214.736 155.129V157.51H212.355V155.129H214.736ZM217.685 155.129V157.51H215.269V155.129H217.685ZM223.582 132.036V134.416H221.202V132.036H223.582ZM226.531 132.036V134.416H224.151V132.036H226.531ZM229.48 132.036V134.416H227.1V132.036H229.48ZM232.429 132.036V134.416H230.049V132.036H232.429ZM235.378 132.036V134.416H232.998V132.036H235.378ZM238.291 132.036V134.416H235.911V132.036H238.291ZM241.24 132.036V134.416H238.86V132.036H241.24ZM232.429 135.873V138.253H230.049V135.873H232.429ZM232.429 139.71V142.126H230.049V139.71H232.429ZM232.429 143.582V145.927H230.049V143.582H232.429ZM232.429 147.42V149.8H230.049V147.42H232.429ZM232.429 151.292V153.637H230.049V151.292H232.429ZM232.429 155.094V157.51H230.049V155.094H232.429ZM247.209 132.036V134.416H244.829V132.036H247.209ZM247.209 135.873V138.253H244.829V135.873H247.209ZM250.158 139.71V142.126H247.778V139.71H250.158ZM253.107 143.582V145.927H250.691V143.582H253.107ZM264.831 132.036V134.416H262.487V132.036H264.831ZM264.831 135.873V138.253H262.487V135.873H264.831ZM261.883 139.71V142.126H259.538V139.71H261.883ZM259.005 143.582V145.927H256.589V143.582H259.005ZM256.056 147.42V149.8H253.64V147.42H256.056ZM256.056 151.292V153.637H253.64V151.292H256.056ZM256.056 155.094V157.51H253.64V155.094H256.056ZM299.152 155.129V157.51H296.772V155.129H299.152ZM299.152 151.292V153.637H296.772V151.292H299.152ZM299.152 147.42V149.8H296.772V147.42H299.152ZM299.152 143.582V145.963H296.772V143.582H299.152ZM299.152 139.71V142.126H296.772V139.71H299.152ZM299.152 135.908V138.253H296.772V135.908H299.152ZM299.152 132.036V134.416H296.772V132.036H299.152ZM296.203 135.908V138.253H293.823V135.908H296.203ZM293.29 139.71V142.126H290.91V139.71H293.29ZM290.341 143.582V145.963H287.961V143.582H290.341ZM287.392 139.71V142.126H285.012V139.71H287.392ZM284.443 135.908V138.253H282.063V135.908H284.443ZM281.494 132.036V134.416H279.114V132.036H281.494ZM281.494 135.908V138.253H279.114V135.908H281.494ZM281.494 139.71V142.126H279.114V139.71H281.494ZM281.494 143.582V145.963H279.114V143.582H281.494ZM281.494 147.42V149.8H279.114V147.42H281.494ZM281.494 151.292V153.637H279.114V151.292H281.494ZM281.494 155.129V157.51H279.114V155.129H281.494ZM319.83 132.036V134.416H317.45V132.036H319.83ZM316.917 132.036V134.416H314.536V132.036H316.917ZM313.968 132.036V134.416H311.587V132.036H313.968ZM311.019 132.036V134.416H308.639V132.036H311.019ZM308.07 132.036V134.416H305.69V132.036H308.07ZM305.121 135.908V138.253H302.741V135.908H305.121ZM305.121 139.745V142.126H302.741V139.745H305.121ZM305.121 143.582V145.963H302.741V143.582H305.121ZM305.121 147.42V149.836H302.741V147.42H305.121ZM305.121 151.292V153.637H302.741V151.292H305.121ZM308.07 155.129V157.51H305.69V155.129H308.07ZM311.019 155.129V157.51H308.639V155.129H311.019ZM313.968 155.129V157.51H311.587V155.129H313.968ZM316.917 155.129V157.51H314.536V155.129H316.917ZM319.83 155.129V157.51H317.45V155.129H319.83ZM322.779 151.292V153.637H320.399V151.292H322.779ZM322.779 147.42V149.836H320.399V147.42H322.779ZM322.779 143.582V145.963H320.399V143.582H322.779ZM322.779 139.745V142.126H320.399V139.745H322.779ZM322.779 135.908V138.253H320.399V135.908H322.779ZM328.748 132.071V134.452H326.367V132.071H328.748ZM328.748 135.908V138.289H326.367V135.908H328.748ZM328.748 139.745V142.126H326.367V139.745H328.748ZM328.748 143.618V145.963H326.367V143.618H328.748ZM328.748 147.455V149.836H326.367V147.455H328.748ZM328.748 151.292V153.673H326.367V151.292H328.748ZM328.748 155.129V157.545H326.367V155.129H328.748ZM331.697 155.129V157.545H329.316V155.129H331.697ZM334.646 155.129V157.545H332.23V155.129H334.646ZM337.595 155.129V157.545H335.179V155.129H337.595ZM340.543 155.129V157.545H338.127V155.129H340.543ZM343.421 151.292V153.673H341.076V151.292H343.421ZM346.37 147.455V149.836H344.025V147.455H346.37ZM346.37 143.618V145.963H344.025V143.618H346.37ZM346.37 139.745V142.126H344.025V139.745H346.37ZM343.421 135.908V138.289H341.076V135.908H343.421ZM340.543 132.071V134.452H338.127V132.071H340.543ZM337.595 132.071V134.452H335.179V132.071H337.595ZM334.646 132.071V134.452H332.23V132.071H334.646ZM331.697 132.071V134.452H329.316V132.071H331.697ZM370.032 132.036V134.416H367.652V132.036H370.032ZM367.083 132.036V134.416H364.703V132.036H367.083ZM364.17 132.036V134.416H361.79V132.036H364.17ZM361.221 132.036V134.416H358.841V132.036H361.221ZM358.272 132.036V134.416H355.892V132.036H358.272ZM355.323 132.036V134.416H352.943V132.036H355.323ZM352.375 132.036V134.416H349.994V132.036H352.375ZM352.375 135.908V138.253H349.994V135.908H352.375ZM352.375 139.745V142.126H349.994V139.745H352.375ZM352.375 143.582V145.963H349.994V143.582H352.375ZM355.323 143.582V145.963H352.943V143.582H355.323ZM358.272 143.582V145.963H355.892V143.582H358.272ZM361.221 143.582V145.963H358.841V143.582H361.221ZM364.17 143.582V145.963H361.79V143.582H364.17ZM352.375 147.42V149.8H349.994V147.42H352.375ZM352.375 151.292V153.637H349.994V151.292H352.375ZM352.375 155.129V157.51H349.994V155.129H352.375ZM355.323 155.129V157.51H352.943V155.129H355.323ZM358.272 155.129V157.51H355.892V155.129H358.272ZM361.221 155.129V157.51H358.841V155.129H361.221ZM364.17 155.129V157.51H361.79V155.129H364.17ZM367.083 155.129V157.51H364.703V155.129H367.083ZM370.032 155.129V157.51H367.652V155.129H370.032Z" fill="white"/>
</svg>
