<svg width="523" height="58" viewBox="0 0 523 58" fill="none" xmlns="http://www.w3.org/2000/svg">
<path d="M77.0727 24.9593H70.5243C61.9201 24.9593 54.9453 17.89 54.9453 9.16907V2.53194C54.9453 1.77561 54.3362 1.1582 53.5899 1.1582H48.4426C47.6964 1.1582 47.0873 1.77561 47.0873 2.53194V9.16907C47.0873 17.89 40.1125 24.9593 31.5082 24.9593H24.9599C24.2136 24.9593 23.6045 25.5767 23.6045 26.333V31.5501C23.6045 32.3064 24.2136 32.9238 24.9599 32.9238H31.5082C40.1125 32.9238 47.0873 39.9931 47.0873 48.714V55.3512C47.0873 56.1075 47.6964 56.7249 48.4426 56.7249H53.5899C54.3362 56.7249 54.9453 56.1075 54.9453 55.3512V48.714C54.9453 39.9931 61.9201 32.9238 70.5243 32.9238H77.0727C77.8189 32.9238 78.4281 32.3064 78.4281 31.5501V26.333C78.4281 25.5767 77.8189 24.9593 77.0727 24.9593Z" fill="#010506"/>
<path d="M30.0312 48.7754H24.8991C24.1505 48.7754 23.5437 49.3904 23.5437 50.1491V55.3508C23.5437 56.1095 24.1505 56.7245 24.8991 56.7245H30.0312C30.7797 56.7245 31.3865 56.1095 31.3865 55.3508V50.1491C31.3865 49.3904 30.7797 48.7754 30.0312 48.7754Z" fill="#010506"/>
<path d="M76.9965 48.7754H71.8644C71.1158 48.7754 70.509 49.3904 70.509 50.1491V55.3508C70.509 56.1095 71.1158 56.7245 71.8644 56.7245H76.9965C77.745 56.7245 78.3519 56.1095 78.3519 55.3508V50.1491C78.3519 49.3904 77.745 48.7754 76.9965 48.7754Z" fill="#010506"/>
<path d="M6.48746 24.9595H1.35536C0.606816 24.9595 0 25.5745 0 26.3332V31.5349C0 32.2936 0.606816 32.9086 1.35536 32.9086H6.48746C7.236 32.9086 7.84282 32.2936 7.84282 31.5349V26.3332C7.84282 25.5745 7.236 24.9595 6.48746 24.9595Z" fill="#010506"/>
<path d="M100.419 24.9595H95.2865C94.538 24.9595 93.9312 25.5745 93.9312 26.3332V31.5349C93.9312 32.2936 94.538 32.9086 95.2865 32.9086H100.419C101.167 32.9086 101.774 32.2936 101.774 31.5349V26.3332C101.774 25.5745 101.167 24.9595 100.419 24.9595Z" fill="#010506"/>
<path d="M30.0312 1.18896H24.8991C24.1505 1.18896 23.5437 1.80401 23.5437 2.5627V7.76436C23.5437 8.52305 24.1505 9.13809 24.8991 9.13809H30.0312C30.7797 9.13809 31.3865 8.52305 31.3865 7.76436V2.5627C31.3865 1.80401 30.7797 1.18896 30.0312 1.18896Z" fill="#010506"/>
<path d="M76.9965 1.1582H71.8644C71.1158 1.1582 70.509 1.77324 70.509 2.53193V7.73359C70.509 8.49229 71.1158 9.10733 71.8644 9.10733H76.9965C77.745 9.10733 78.3519 8.49229 78.3519 7.73359V2.53193C78.3519 1.77324 77.745 1.1582 76.9965 1.1582Z" fill="#010506"/>
<path d="M310.271 17.689C317.931 17.689 327.343 22.0263 328.257 33.2013H321.449C320.383 26.132 315.784 23.5852 310.271 23.5852C301.698 23.5852 297.494 29.9445 297.494 37.7084C297.494 45.4723 301.698 51.9088 310.271 51.9088C315.784 51.9088 320.383 49.3465 321.449 42.2927H328.257C327.343 53.4677 317.916 57.805 310.271 57.805C297.951 57.805 290.748 49.0378 290.748 37.7084C290.748 26.379 297.951 17.689 310.271 17.689Z" fill="#010506"/>
<path d="M481.854 37.7082C481.854 25.9929 488.829 17.6887 499.687 17.6887C508.185 17.6887 513.545 22.026 516.073 28.0149V0H522.819V57.033H516.073V47.4941C513.469 53.6219 508.032 57.8202 499.687 57.8202C488.814 57.8202 481.854 49.4389 481.854 37.7236V37.7082ZM501.91 51.9086C509.342 51.9086 515.845 47.1699 515.845 37.7082C515.845 28.2464 509.342 23.585 501.91 23.585C494.479 23.585 488.661 28.0921 488.661 37.7082C488.661 47.3243 494.555 51.9086 501.91 51.9086Z" fill="#010506"/>
<path d="M206.594 24.3722V18.4605H194.655V6.59082L187.833 8.69001V18.4605H179.426V24.3722H206.594Z" fill="#010506"/>
<path d="M194.655 51.2136V27.999H187.832V51.5994C187.832 55.3193 189.599 57.0326 193.193 57.0326H208.117V51.1364L194.639 51.2136H194.655Z" fill="#010506"/>
<path d="M368.75 24.3717V18.46H346.257V6.59033L339.434 8.68952V18.46H331.013V24.3717H368.75Z" fill="#010506"/>
<path d="M346.257 51.2136V27.999H339.435V51.5994C339.435 55.3193 341.201 57.0326 344.795 57.0326H359.719V51.1364L346.242 51.2136H346.257Z" fill="#010506"/>
<path d="M262.88 51.9085C256.377 51.9085 253.468 48.806 253.468 40.8878V18.4604H246.57V41.5824C246.57 51.9857 251.778 57.8047 260.58 57.8047C266.276 57.8047 270.54 55.7519 273.357 52.2481V46.3981C271.027 49.9019 267.433 51.9085 262.88 51.9085Z" fill="#010506"/>
<path d="M283.072 18.4604H276.341V57.033H283.072V18.4604Z" fill="#010506"/>
<path d="M381.786 51.9085C375.283 51.9085 372.374 48.806 372.374 40.8878V18.4604H365.476V41.5824C365.476 51.9857 370.684 57.8047 379.486 57.8047C385.182 57.8047 389.446 55.7519 392.263 52.2481V46.3981C389.933 49.9019 386.339 51.9085 381.786 51.9085Z" fill="#010506"/>
<path d="M401.994 18.4604H395.263V57.033H401.994V18.4604Z" fill="#010506"/>
<path d="M416.919 27.9995H410.111V57.0331H416.919V27.9995Z" fill="#010506"/>
<path d="M415.472 18.4604C411.878 18.4604 410.111 20.1738 410.111 23.8165V24.3567H436.99V18.4604H415.472Z" fill="#010506"/>
<path d="M221.655 27.999H214.848V57.0326H221.655V27.999Z" fill="#010506"/>
<path d="M220.208 18.4604C216.614 18.4604 214.848 20.1738 214.848 23.8165V24.3567H241.726V18.4604H220.208Z" fill="#010506"/>
<path d="M445.488 34.1429C446.021 27.1662 450.772 23.1222 457.047 23.1222C463.854 23.1222 468.529 27.1507 468.986 34.1429H445.107V39.0358H475.656V36.5508C475.656 24.6039 468.301 17.689 457.047 17.689C445.793 17.689 438.833 24.7428 438.833 37.2454C438.833 48.652 445.107 57.805 457.519 57.805C469.23 57.805 474.286 50.674 475.808 43.5275H469.077C467.783 48.8835 463.945 52.2947 457.443 52.2947C449.554 52.2947 445.655 46.5528 445.427 39.0204C445.427 39.0204 445.26 37.7701 445.503 34.1274L445.488 34.1429Z" fill="#010506"/>
<path d="M163.192 27.8607L148.268 24.0636C142.374 22.5047 140.075 19.5565 140.075 15.6823C140.075 10.0948 144.278 7.37818 152.166 7.37818C161.562 7.37818 166.633 11.0826 167.38 18.4761H174.522C173.7 7.84123 166.04 1.48193 152.166 1.48193C139.77 1.48193 133.024 6.52924 133.024 15.991C133.024 22.5047 136.541 27.4748 145.039 29.7283L160.116 33.6797C166.39 35.3159 169.146 38.5727 169.146 42.8328C169.146 48.8834 165.004 51.9087 155.669 51.9087C143.729 51.9087 137.531 46.9386 137.531 36.4735H130.496C130.496 50.2108 139.146 57.8976 155.532 57.8976C169.923 57.8976 176.197 52.2328 176.197 42.4469C176.197 35.2387 171.918 30.1142 163.177 27.8607H163.192Z" fill="#010506"/>
<path d="M246.569 41.6443V18.4761H253.468V40.9497C253.468 48.8834 256.377 51.9859 262.91 51.9859C271.271 51.9859 276.403 45.3024 276.403 34.8837V18.4761H283.149V57.1104H276.403V46.5372C274.331 53.5294 268.956 57.8821 260.595 57.8821C251.778 57.8821 246.554 52.0476 246.554 41.6289L246.569 41.6443Z" fill="#010506"/>
<path d="M365.248 41.6443V18.4761H372.146V40.9497C372.146 48.8834 375.055 51.9859 381.588 51.9859C389.949 51.9859 395.081 45.3024 395.081 34.8837V18.4761H401.827V57.1104H395.081V46.5372C393.01 53.5294 387.634 57.8821 379.273 57.8821C370.456 57.8821 365.232 52.0476 365.232 41.6289L365.248 41.6443Z" fill="#010506"/>
</svg>
