<svg width="144" height="34" viewBox="0 0 144 34" fill="none" xmlns="http://www.w3.org/2000/svg">
<g clip-path="url(#clip0_1292_3385)">
<path d="M30.0742 25.8159V0H34.3816V10.3264C35.73 8.48252 38.0518 7.30253 40.5986 7.30253C45.6552 7.30253 49.5504 11.396 49.5504 16.7808C49.5504 22.1656 45.6552 26.2592 40.5986 26.2592C38.0518 26.2592 35.73 25.1895 34.3816 23.3456V25.8159H30.0742ZM39.7003 11.1744C36.5913 11.1744 34.1985 13.6457 34.1985 16.7808C34.1985 19.916 36.5993 22.3863 39.7003 22.3863C42.8013 22.3863 45.2021 19.915 45.2021 16.7808C45.2021 13.6467 42.8113 11.1744 39.7003 11.1744Z" fill="#171512"/>
<path d="M56.9645 7.74475H52.6201V25.8159H56.9645V7.74475Z" fill="#171512"/>
<path d="M79.5113 7.7448V33.4888H75.2099V23.2344C73.8985 25.0782 71.5767 26.2592 68.9919 26.2592C63.9353 26.2592 60.04 22.1282 60.04 16.7809C60.04 11.4335 63.9353 7.30255 68.9919 7.30255C71.5767 7.30255 73.8615 8.33479 75.2099 10.2161V7.7448H79.5113ZM69.8862 22.3863C72.9942 22.3863 75.3879 19.915 75.3879 16.7809C75.3879 13.6467 72.9872 11.1744 69.8862 11.1744C66.7852 11.1744 64.3844 13.6457 64.3844 16.7809C64.3844 19.916 66.7772 22.3863 69.8862 22.3863Z" fill="#171512"/>
<path d="M2.857 26.2591C1.26749 26.2473 -0.0119201 24.9679 8.37816e-05 23.4027C0.0120876 21.8376 1.3115 20.5779 2.90101 20.5897C4.49052 20.6015 5.76893 21.879 5.75792 23.4441C5.75192 25.0043 4.46251 26.2651 2.877 26.2591C2.87 26.2591 2.864 26.2591 2.857 26.2591Z" fill="#FF5C38"/>
<path d="M2.857 13.0498C1.26749 13.038 -0.0119201 11.7585 8.37816e-05 10.1934C0.0120876 8.62828 1.3115 7.36851 2.90101 7.38033C4.49052 7.39215 5.76893 8.66965 5.75792 10.2348C5.75192 11.7949 4.46251 13.0557 2.877 13.0498C2.87 13.0498 2.864 13.0498 2.857 13.0498Z" fill="#FF5C38"/>
<path d="M108.872 7.74475H104.527V25.8159H108.872V7.74475Z" fill="#171512"/>
<path d="M118.236 2.3974V7.74477H123.105V11.3586H118.236V19.4727C118.236 21.4643 119.136 22.3498 121.083 22.3498C121.757 22.3498 122.543 22.1647 123.105 21.7963V25.5943C122.394 25.9637 121.305 26.2592 119.804 26.2592C116.133 26.2592 113.923 24.0085 113.923 20.2509V11.3586H111.193V7.74477H113.927V2.3974H118.236Z" fill="#171512"/>
<path d="M126.024 33.4888V29.8355C126.631 30.0818 127.28 30.2079 127.935 30.2049C129.47 30.2049 130.445 29.4672 131.306 27.4391L132.092 25.5578L124.751 7.74475H129.358L134.377 20.764L139.543 7.74475H144L135.497 27.9917C133.697 32.2704 131.677 34 128.568 34C127.693 34.0088 126.826 33.8345 126.024 33.4888Z" fill="#171512"/>
<path d="M17.412 26.2542C13.0696 26.2542 9.10938 23.3052 9.10938 18.6237V7.74969H13.4518V17.8131C13.4518 20.6143 14.9122 22.3104 17.42 22.3104H17.7201C20.2279 22.3104 21.6884 20.6143 21.6884 17.8131V7.74969H26.0308V18.6237C26.0308 23.3052 22.0675 26.2542 17.7281 26.2542H17.412Z" fill="#171512"/>
<path d="M91.8642 26.2542C87.5218 26.2542 83.5615 23.3052 83.5615 18.6237V7.74969H87.9049V17.8131C87.9049 20.6143 89.3644 22.3104 91.8722 22.3104H92.1723C94.6801 22.3104 96.1405 20.6143 96.1405 17.8131V7.74969H100.483V18.6237C100.483 23.3052 96.5197 26.2542 92.1803 26.2542H91.8642Z" fill="#171512"/>
</g>
<defs>
<clipPath id="clip0_1292_3385">
<rect width="144" height="34" fill="white"/>
</clipPath>
</defs>
</svg>
