<svg width="259" height="69" viewBox="0 0 259 69" fill="none" xmlns="http://www.w3.org/2000/svg">
<path d="M82.8428 18.4155H87.0315V47.0878H101.226V50.5844H82.8428V18.4155Z" fill="#3A82DC"/>
<path d="M103.321 38.4629C103.321 30.7703 108.44 26.1082 113.792 26.1082C119.843 26.1082 123.101 30.3041 123.101 37.0642C123.101 37.9967 123.101 38.696 122.868 39.3953H107.044C107.277 44.2906 110.302 47.5541 114.723 47.5541C116.818 47.5541 118.912 46.8548 120.541 45.6892L121.937 48.2534C119.843 49.6521 117.516 50.5845 114.258 50.5845C108.208 50.5845 103.321 46.1555 103.321 38.4629ZM119.61 36.3649C119.61 31.7027 117.516 29.1386 113.792 29.1386C110.535 29.1386 107.509 31.7027 107.044 36.3649H119.61Z" fill="#3A82DC"/>
<path d="M125.66 44.2906C125.66 39.1623 130.082 36.5981 140.088 35.4325C140.088 32.4021 139.157 29.6048 135.201 29.6048C132.409 29.6048 130.082 30.7704 128.22 32.169L126.591 29.3717C128.685 27.9731 132.176 26.3413 135.899 26.3413C141.717 26.3413 144.044 30.071 144.044 36.1318V50.8177H140.786L140.553 47.7873H140.321C137.993 49.6521 135.434 51.2839 132.409 51.2839C128.685 51.0508 125.66 48.4866 125.66 44.2906ZM139.855 44.7568V38.2298C131.943 39.1623 129.383 41.2602 129.383 44.0575C129.383 46.6217 131.245 47.7873 133.572 47.7873C135.899 47.7873 137.761 46.6217 139.855 44.7568Z" fill="#3A82DC"/>
<path d="M149.163 26.5744H152.421L152.887 30.071C155.214 27.7399 157.541 26.1082 160.799 26.1082C165.685 26.1082 168.012 29.3717 168.012 35.4325V50.5845H163.824V36.1318C163.824 31.7027 162.428 29.8379 159.402 29.8379C157.075 29.8379 155.446 31.0034 153.119 33.5676V50.8176H148.931C149.163 50.5845 149.163 26.5744 149.163 26.5744Z" fill="#3A82DC"/>
<path d="M173.598 18.4155H182.208C191.981 18.4155 197.799 23.777 197.799 34.2669C197.799 44.7567 191.981 50.5844 182.673 50.5844H173.83V18.4155H173.598ZM181.975 45.9223C188.491 45.9223 191.981 42.1926 191.981 34.2669C191.981 26.3412 188.258 22.8446 181.975 22.8446H179.183V45.9223H181.975Z" fill="#3A82DC"/>
<path d="M202.22 18.4155H208.038L218.277 36.598L221.767 43.3581H222C221.767 40.0946 221.302 35.8986 221.302 32.402V18.4155H226.887V50.5844H221.069L211.063 32.402L207.34 25.6419H207.107C207.34 29.1385 207.805 33.1013 207.805 36.598V50.5844H202.22V18.4155Z" fill="#3A82DC"/>
<path d="M241.78 18.4155H248.528L259 50.5844H252.95L250.39 41.9594H239.685L237.126 50.5844H231.308L241.78 18.4155ZM240.849 37.2973H248.994L247.83 33.3344C246.899 30.0709 245.968 26.3412 245.038 22.8446H244.805C243.874 26.3412 242.943 30.0709 242.013 33.3344L240.849 37.2973Z" fill="#3A82DC"/>
<path d="M69.1132 34.5C69.1132 17.0169 56.0818 2.56419 39.0943 0.233108V0.466216C37.9308 7.22635 65.1572 20.5135 60.7358 28.6723C57.9434 33.8007 51.195 32.1689 47.9371 31.0034C47.7044 31.0034 47.7044 30.5372 47.9371 30.5372C50.0314 30.7703 54.6855 31.0034 54.9182 27.973C55.6163 22.3784 30.2516 8.39189 33.044 0C14.6604 0.699324 0 15.8514 0 34.5C0 53.1487 13.4969 66.902 30.717 68.7669C28.1572 62.2399 5.1195 49.1858 9.30818 41.2601C12.3333 35.8987 18.8491 37.7635 21.6415 38.9291C21.8742 38.9291 21.8742 39.3953 21.6415 39.3953C19.7799 39.1622 15.3585 38.9291 14.8931 42.6588C13.9623 48.9527 37.2327 60.8412 37.2327 69C54.9182 67.6014 69.1132 52.6824 69.1132 34.5ZM44.6792 56.8784C41.8868 62.0068 35.1384 60.375 31.8805 59.2095C31.6478 59.2095 31.6478 58.7432 31.8805 58.7432C33.9748 58.9764 38.6289 59.2095 38.8616 56.1791C39.327 50.3514 12.566 35.8986 17.2201 27.5068C20.2453 22.1453 26.761 24.0101 29.5535 25.1757C29.7862 25.1757 29.7862 25.6419 29.5535 25.6419C27.6918 25.4088 23.2704 25.1757 22.805 28.9054C21.8742 35.4324 49.1006 48.4865 44.6792 56.8784ZM52.8239 42.8919C50.0314 48.0203 43.283 46.3885 40.0252 45.223C39.7925 45.223 39.7925 44.7568 40.0252 44.7568C42.1195 44.9899 46.7736 45.223 47.0063 42.1926C47.4717 36.3649 20.7107 21.9122 25.3648 13.5203C28.3899 8.15878 34.9057 10.0236 37.6981 11.1892C37.9308 11.1892 37.9308 11.6554 37.6981 11.6554C35.8365 11.4223 31.4151 11.1892 30.9497 14.9189C30.0189 21.4459 57.0126 34.5 52.8239 42.8919Z" fill="#3A82DC"/>
</svg>
