<svg width="206" height="44" viewBox="0 0 206 44" fill="none" xmlns="http://www.w3.org/2000/svg">
<g id="Group 291">
<path id="Vector" d="M54.4499 29.3172H63.1208C69.8745 29.3172 75.3658 23.8927 75.3658 17.2211V0.175781H67.8468V17.2133C67.8468 19.7853 65.7244 21.8818 63.1208 21.8818H54.4499C51.8462 21.8818 49.7238 19.7853 49.7238 17.2133V0.175781H42.2048V17.2133C42.2048 23.8849 47.6962 29.3095 54.4499 29.3095V29.3172Z" fill="white"/>
<path id="Vector_2" d="M143.884 29.3172H152.555C159.309 29.3172 164.8 23.8927 164.8 17.2211V0.175781H157.281V17.2133C157.281 19.7853 155.159 21.8818 152.555 21.8818H143.884C141.28 21.8818 139.158 19.7853 139.158 17.2133V0.175781H131.639V17.2133C131.639 23.8849 137.13 29.3095 143.884 29.3095V29.3172Z" fill="white"/>
<path id="Vector_3" d="M99.0355 7.60537H107.969C110.652 7.60537 112.838 9.7025 112.838 12.2752V29.3172H120.585V12.2752C120.585 5.6018 114.928 0.175781 107.969 0.175781H99.0355C92.0772 0.175781 86.4194 5.6018 86.4194 12.2752V29.3172H94.1663V12.2752C94.1663 9.7025 96.353 7.60537 99.0355 7.60537Z" fill="white"/>
<path id="Vector_4" d="M206 17.5295V12.4965C206 5.70104 200.574 0.175781 193.9 0.175781H176.858V43.3855H184.288V29.8582H193.9C200.574 29.8582 206 24.3329 206 17.5375V17.5295ZM184.28 7.74126H193.893C196.465 7.74126 198.562 9.87674 198.562 12.4965V17.5295C198.562 20.1493 196.465 22.2848 193.893 22.2848H184.28V7.74126Z" fill="white"/>
<path id="Vector_5" d="M8.31289 9.58832V8.76238C8.31289 7.3131 9.51999 6.14433 11.0168 6.14433H19.0802C20.6253 6.14433 21.8807 7.35985 21.8807 8.85589H30.1936C30.1936 4.06391 26.178 0.175781 21.2289 0.175781H8.20023C3.66958 0.175781 0 3.72886 0 8.11566V9.87661C0 12.9544 2.32568 15.5724 5.46414 16.04L21.5186 18.4087C22.4038 18.5411 23.0476 19.2736 23.0476 20.1385V20.7696C23.0476 22.2189 21.8405 23.3877 20.3437 23.3877L11.7411 23.3487C10.196 23.3487 8.94058 22.1332 8.94058 20.6371H0.643786C0.643786 25.4291 4.6594 29.3172 9.60851 29.3172H22.951C27.4816 29.3172 31.1512 25.7642 31.1512 21.3774V19.8112C31.1512 16.7334 28.8255 14.1154 25.679 13.6479L9.84993 11.3181C8.96473 11.1856 8.31289 10.4532 8.31289 9.58832Z" fill="white"/>
</g>
</svg>
